ISO-10303-21;
HEADER;
/*Generated by software containing ST-Developer
 * from STEP Tools, Inc. (www.steptools.com) 
 */
/*OPTION: using custom renumber hook */
/*description */
/*implementation_level */
FILE_DESCRIPTION(('STEP AP242 Edition 2','STEP AP242 Edition 2''CAx-IF Rec.Pracs.---Representation and Presentation of Product Manufa
cturing Information (PMI)---4.0---2014-10-13','STEP AP242 Edition 2''CAx-IF Rec.Pracs.---Representation and Presentation of Product Manufa
cturing Information (PMI)---4.0---2014-10-13''CAx-IF Rec.Pracs.---3D Tessellated Geometry---0.4---2014-09-14','STEP AP242 Edition 2''CAx-IF Rec.Pracs.---Representation and Presentation of Product Manufa
cturing Information (PMI)---4.0---2014-10-13''CAx-IF Rec.Pracs.---3D Tessellated Geometry---0.4---2014-09-14''2;1','STEP AP242 Edition 2''CAx-IF Rec.Pracs.---Representation and Presentation of Product Manufa
cturing Information (PMI)---4.0---2014-10-13''CAx-IF Rec.Pracs.---3D Tessellated Geometry---0.4---2014-09-14''2;1''CAx-IF Rec.Pracs.---User Defined Attributes---1.5---2016-08-15'),'2;1');
/*name */
/*time_stamp */
/*author */
/*organization */
/*preprocessor_version */
/*originating_system */
/*authorisation */
FILE_NAME('/vol/tmp/translate-10383412470357891963/Top.step','2026-03-15T00:38:00',(''),(''),'ST-DEVELOPER v20','ONSHAPE BY PTC INC, 1.212','  ');
FILE_SCHEMA(('AP242_MANAGED_MODEL_BASED_3D_ENGINEERING_MIM_LF { 1 0 10303 442 3 1 4 }'));
ENDSEC;
DATA;
#10=SHAPE_REPRESENTATION_RELATIONSHIP('','',#605,#11);
#11=ADVANCED_BREP_SHAPE_REPRESENTATION('',(#603),#1020);
#12=SPHERICAL_SURFACE('',#663,0.0005);
#13=SPHERICAL_SURFACE('',#666,0.0005);
#14=SPHERICAL_SURFACE('',#669,0.0005);
#15=SPHERICAL_SURFACE('',#672,0.0005);
#16=TOROIDAL_SURFACE('',#660,0.00175,0.0005);
#17=ELLIPSE('',#644,0.000707106781186548,0.0005);
#18=ELLIPSE('',#646,0.000707106781186548,0.0005);
#19=CIRCLE('',#609,0.00125);
#20=CIRCLE('',#610,0.00125);
#21=CIRCLE('',#613,0.00175);
#22=CIRCLE('',#614,0.0015);
#23=CIRCLE('',#615,0.0015);
#24=CIRCLE('',#616,0.0015);
#25=CIRCLE('',#617,0.0015);
#26=CIRCLE('',#629,0.0015);
#27=CIRCLE('',#631,0.0015);
#28=CIRCLE('',#633,0.0015);
#29=CIRCLE('',#635,0.0015);
#30=CIRCLE('',#637,0.0005);
#31=CIRCLE('',#638,0.0005);
#32=CIRCLE('',#639,0.0005);
#33=CIRCLE('',#640,0.0005);
#34=CIRCLE('',#641,0.0005);
#35=CIRCLE('',#642,0.0005);
#36=CIRCLE('',#649,0.0005);
#37=CIRCLE('',#650,0.0005);
#38=CIRCLE('',#652,0.0005);
#39=CIRCLE('',#653,0.0005);
#40=CIRCLE('',#655,0.0005);
#41=CIRCLE('',#656,0.0005);
#42=CIRCLE('',#658,0.0005);
#43=CIRCLE('',#659,0.0005);
#44=CIRCLE('',#662,0.0005);
#45=CIRCLE('',#665,0.0005);
#46=CIRCLE('',#668,0.0005);
#47=CIRCLE('',#671,0.0005);
#48=CYLINDRICAL_SURFACE('',#608,0.00125);
#49=CYLINDRICAL_SURFACE('',#628,0.0015);
#50=CYLINDRICAL_SURFACE('',#630,0.0015);
#51=CYLINDRICAL_SURFACE('',#632,0.0015);
#52=CYLINDRICAL_SURFACE('',#634,0.0015);
#53=CYLINDRICAL_SURFACE('',#643,0.0005);
#54=CYLINDRICAL_SURFACE('',#645,0.0005);
#55=CYLINDRICAL_SURFACE('',#647,0.0005);
#56=CYLINDRICAL_SURFACE('',#648,0.0005);
#57=CYLINDRICAL_SURFACE('',#651,0.0005);
#58=CYLINDRICAL_SURFACE('',#654,0.0005);
#59=CYLINDRICAL_SURFACE('',#657,0.0005);
#60=CYLINDRICAL_SURFACE('',#661,0.0005);
#61=CYLINDRICAL_SURFACE('',#664,0.0005);
#62=CYLINDRICAL_SURFACE('',#667,0.0005);
#63=CYLINDRICAL_SURFACE('',#670,0.0005);
#64=ORIENTED_EDGE('',*,*,#220,.F.);
#65=ORIENTED_EDGE('',*,*,#221,.T.);
#66=ORIENTED_EDGE('',*,*,#222,.T.);
#67=ORIENTED_EDGE('',*,*,#223,.T.);
#68=ORIENTED_EDGE('',*,*,#224,.T.);
#69=ORIENTED_EDGE('',*,*,#225,.T.);
#70=ORIENTED_EDGE('',*,*,#226,.T.);
#71=ORIENTED_EDGE('',*,*,#227,.T.);
#72=ORIENTED_EDGE('',*,*,#228,.T.);
#73=ORIENTED_EDGE('',*,*,#229,.F.);
#74=ORIENTED_EDGE('',*,*,#229,.T.);
#75=ORIENTED_EDGE('',*,*,#230,.T.);
#76=ORIENTED_EDGE('',*,*,#231,.T.);
#77=ORIENTED_EDGE('',*,*,#232,.F.);
#78=ORIENTED_EDGE('',*,*,#233,.T.);
#79=ORIENTED_EDGE('',*,*,#234,.T.);
#80=ORIENTED_EDGE('',*,*,#235,.F.);
#81=ORIENTED_EDGE('',*,*,#236,.F.);
#82=ORIENTED_EDGE('',*,*,#237,.T.);
#83=ORIENTED_EDGE('',*,*,#238,.T.);
#84=ORIENTED_EDGE('',*,*,#239,.T.);
#85=ORIENTED_EDGE('',*,*,#240,.T.);
#86=ORIENTED_EDGE('',*,*,#241,.T.);
#87=ORIENTED_EDGE('',*,*,#242,.T.);
#88=ORIENTED_EDGE('',*,*,#243,.T.);
#89=ORIENTED_EDGE('',*,*,#244,.F.);
#90=ORIENTED_EDGE('',*,*,#245,.T.);
#91=ORIENTED_EDGE('',*,*,#246,.F.);
#92=ORIENTED_EDGE('',*,*,#247,.T.);
#93=ORIENTED_EDGE('',*,*,#236,.T.);
#94=ORIENTED_EDGE('',*,*,#248,.F.);
#95=ORIENTED_EDGE('',*,*,#249,.F.);
#96=ORIENTED_EDGE('',*,*,#248,.T.);
#97=ORIENTED_EDGE('',*,*,#235,.T.);
#98=ORIENTED_EDGE('',*,*,#250,.F.);
#99=ORIENTED_EDGE('',*,*,#251,.F.);
#100=ORIENTED_EDGE('',*,*,#234,.F.);
#101=ORIENTED_EDGE('',*,*,#252,.F.);
#102=ORIENTED_EDGE('',*,*,#253,.T.);
#103=ORIENTED_EDGE('',*,*,#250,.T.);
#104=ORIENTED_EDGE('',*,*,#232,.T.);
#105=ORIENTED_EDGE('',*,*,#254,.T.);
#106=ORIENTED_EDGE('',*,*,#255,.F.);
#107=ORIENTED_EDGE('',*,*,#256,.T.);
#108=ORIENTED_EDGE('',*,*,#233,.F.);
#109=ORIENTED_EDGE('',*,*,#256,.F.);
#110=ORIENTED_EDGE('',*,*,#257,.T.);
#111=ORIENTED_EDGE('',*,*,#252,.T.);
#112=ORIENTED_EDGE('',*,*,#237,.F.);
#113=ORIENTED_EDGE('',*,*,#247,.F.);
#114=ORIENTED_EDGE('',*,*,#258,.T.);
#115=ORIENTED_EDGE('',*,*,#259,.T.);
#116=ORIENTED_EDGE('',*,*,#260,.T.);
#117=ORIENTED_EDGE('',*,*,#261,.T.);
#118=ORIENTED_EDGE('',*,*,#230,.F.);
#119=ORIENTED_EDGE('',*,*,#259,.F.);
#120=ORIENTED_EDGE('',*,*,#262,.T.);
#121=ORIENTED_EDGE('',*,*,#263,.T.);
#122=ORIENTED_EDGE('',*,*,#264,.T.);
#123=ORIENTED_EDGE('',*,*,#265,.T.);
#124=ORIENTED_EDGE('',*,*,#266,.T.);
#125=ORIENTED_EDGE('',*,*,#267,.T.);
#126=ORIENTED_EDGE('',*,*,#268,.T.);
#127=ORIENTED_EDGE('',*,*,#269,.T.);
#128=ORIENTED_EDGE('',*,*,#270,.T.);
#129=ORIENTED_EDGE('',*,*,#271,.T.);
#130=ORIENTED_EDGE('',*,*,#272,.T.);
#131=ORIENTED_EDGE('',*,*,#273,.T.);
#132=ORIENTED_EDGE('',*,*,#274,.T.);
#133=ORIENTED_EDGE('',*,*,#245,.F.);
#134=ORIENTED_EDGE('',*,*,#275,.F.);
#135=ORIENTED_EDGE('',*,*,#244,.T.);
#136=ORIENTED_EDGE('',*,*,#276,.T.);
#137=ORIENTED_EDGE('',*,*,#243,.F.);
#138=ORIENTED_EDGE('',*,*,#277,.F.);
#139=ORIENTED_EDGE('',*,*,#246,.T.);
#140=ORIENTED_EDGE('',*,*,#272,.F.);
#141=ORIENTED_EDGE('',*,*,#278,.T.);
#142=ORIENTED_EDGE('',*,*,#266,.F.);
#143=ORIENTED_EDGE('',*,*,#279,.T.);
#144=ORIENTED_EDGE('',*,*,#262,.F.);
#145=ORIENTED_EDGE('',*,*,#280,.T.);
#146=ORIENTED_EDGE('',*,*,#220,.T.);
#147=ORIENTED_EDGE('',*,*,#281,.T.);
#148=ORIENTED_EDGE('',*,*,#260,.F.);
#149=ORIENTED_EDGE('',*,*,#258,.F.);
#150=ORIENTED_EDGE('',*,*,#249,.T.);
#151=ORIENTED_EDGE('',*,*,#251,.T.);
#152=ORIENTED_EDGE('',*,*,#253,.F.);
#153=ORIENTED_EDGE('',*,*,#257,.F.);
#154=ORIENTED_EDGE('',*,*,#255,.T.);
#155=ORIENTED_EDGE('',*,*,#282,.T.);
#156=ORIENTED_EDGE('',*,*,#224,.F.);
#157=ORIENTED_EDGE('',*,*,#283,.T.);
#158=ORIENTED_EDGE('',*,*,#276,.F.);
#159=ORIENTED_EDGE('',*,*,#275,.T.);
#160=ORIENTED_EDGE('',*,*,#274,.F.);
#161=ORIENTED_EDGE('',*,*,#277,.T.);
#162=ORIENTED_EDGE('',*,*,#281,.F.);
#163=ORIENTED_EDGE('',*,*,#227,.F.);
#164=ORIENTED_EDGE('',*,*,#284,.F.);
#165=ORIENTED_EDGE('',*,*,#261,.F.);
#166=ORIENTED_EDGE('',*,*,#284,.T.);
#167=ORIENTED_EDGE('',*,*,#226,.F.);
#168=ORIENTED_EDGE('',*,*,#285,.F.);
#169=ORIENTED_EDGE('',*,*,#231,.F.);
#170=ORIENTED_EDGE('',*,*,#282,.F.);
#171=ORIENTED_EDGE('',*,*,#254,.F.);
#172=ORIENTED_EDGE('',*,*,#285,.T.);
#173=ORIENTED_EDGE('',*,*,#225,.F.);
#174=ORIENTED_EDGE('',*,*,#242,.F.);
#175=ORIENTED_EDGE('',*,*,#286,.T.);
#176=ORIENTED_EDGE('',*,*,#270,.F.);
#177=ORIENTED_EDGE('',*,*,#287,.T.);
#178=ORIENTED_EDGE('',*,*,#222,.F.);
#179=ORIENTED_EDGE('',*,*,#288,.T.);
#180=ORIENTED_EDGE('',*,*,#239,.F.);
#181=ORIENTED_EDGE('',*,*,#289,.T.);
#182=ORIENTED_EDGE('',*,*,#268,.F.);
#183=ORIENTED_EDGE('',*,*,#290,.T.);
#184=ORIENTED_EDGE('',*,*,#241,.F.);
#185=ORIENTED_EDGE('',*,*,#291,.T.);
#186=ORIENTED_EDGE('',*,*,#264,.F.);
#187=ORIENTED_EDGE('',*,*,#292,.T.);
#188=ORIENTED_EDGE('',*,*,#240,.F.);
#189=ORIENTED_EDGE('',*,*,#293,.T.);
#190=ORIENTED_EDGE('',*,*,#238,.F.);
#191=ORIENTED_EDGE('',*,*,#228,.F.);
#192=ORIENTED_EDGE('',*,*,#278,.F.);
#193=ORIENTED_EDGE('',*,*,#271,.F.);
#194=ORIENTED_EDGE('',*,*,#294,.F.);
#195=ORIENTED_EDGE('',*,*,#267,.F.);
#196=ORIENTED_EDGE('',*,*,#294,.T.);
#197=ORIENTED_EDGE('',*,*,#286,.F.);
#198=ORIENTED_EDGE('',*,*,#290,.F.);
#199=ORIENTED_EDGE('',*,*,#279,.F.);
#200=ORIENTED_EDGE('',*,*,#269,.F.);
#201=ORIENTED_EDGE('',*,*,#295,.F.);
#202=ORIENTED_EDGE('',*,*,#263,.F.);
#203=ORIENTED_EDGE('',*,*,#295,.T.);
#204=ORIENTED_EDGE('',*,*,#291,.F.);
#205=ORIENTED_EDGE('',*,*,#292,.F.);
#206=ORIENTED_EDGE('',*,*,#280,.F.);
#207=ORIENTED_EDGE('',*,*,#265,.F.);
#208=ORIENTED_EDGE('',*,*,#296,.F.);
#209=ORIENTED_EDGE('',*,*,#221,.F.);
#210=ORIENTED_EDGE('',*,*,#293,.F.);
#211=ORIENTED_EDGE('',*,*,#288,.F.);
#212=ORIENTED_EDGE('',*,*,#296,.T.);
#213=ORIENTED_EDGE('',*,*,#283,.F.);
#214=ORIENTED_EDGE('',*,*,#223,.F.);
#215=ORIENTED_EDGE('',*,*,#297,.F.);
#216=ORIENTED_EDGE('',*,*,#273,.F.);
#217=ORIENTED_EDGE('',*,*,#289,.F.);
#218=ORIENTED_EDGE('',*,*,#287,.F.);
#219=ORIENTED_EDGE('',*,*,#297,.T.);
#220=EDGE_CURVE('',#298,#299,#349,.T.);
#221=EDGE_CURVE('',#298,#300,#350,.T.);
#222=EDGE_CURVE('',#300,#301,#351,.T.);
#223=EDGE_CURVE('',#301,#302,#352,.F.);
#224=EDGE_CURVE('',#302,#303,#353,.T.);
#225=EDGE_CURVE('',#303,#304,#354,.T.);
#226=EDGE_CURVE('',#304,#305,#355,.F.);
#227=EDGE_CURVE('',#305,#299,#356,.F.);
#228=EDGE_CURVE('',#306,#306,#19,.T.);
#229=EDGE_CURVE('',#307,#307,#20,.T.);
#230=EDGE_CURVE('',#308,#309,#357,.T.);
#231=EDGE_CURVE('',#309,#310,#358,.T.);
#232=EDGE_CURVE('',#311,#310,#359,.T.);
#233=EDGE_CURVE('',#311,#312,#360,.T.);
#234=EDGE_CURVE('',#312,#313,#361,.T.);
#235=EDGE_CURVE('',#314,#313,#362,.T.);
#236=EDGE_CURVE('',#315,#314,#363,.T.);
#237=EDGE_CURVE('',#315,#308,#364,.T.);
#238=EDGE_CURVE('',#316,#316,#21,.F.);
#239=EDGE_CURVE('',#317,#318,#365,.F.);
#240=EDGE_CURVE('',#318,#319,#366,.T.);
#241=EDGE_CURVE('',#319,#320,#367,.T.);
#242=EDGE_CURVE('',#320,#317,#368,.T.);
#243=EDGE_CURVE('',#321,#321,#22,.T.);
#244=EDGE_CURVE('',#322,#322,#23,.T.);
#245=EDGE_CURVE('',#323,#323,#24,.T.);
#246=EDGE_CURVE('',#324,#324,#25,.T.);
#247=EDGE_CURVE('',#325,#315,#369,.T.);
#248=EDGE_CURVE('',#326,#314,#370,.T.);
#249=EDGE_CURVE('',#325,#326,#371,.T.);
#250=EDGE_CURVE('',#327,#313,#372,.T.);
#251=EDGE_CURVE('',#326,#327,#373,.T.);
#252=EDGE_CURVE('',#328,#312,#374,.T.);
#253=EDGE_CURVE('',#328,#327,#375,.T.);
#254=EDGE_CURVE('',#310,#329,#376,.F.);
#255=EDGE_CURVE('',#330,#329,#377,.T.);
#256=EDGE_CURVE('',#330,#311,#378,.T.);
#257=EDGE_CURVE('',#330,#328,#379,.T.);
#258=EDGE_CURVE('',#325,#331,#380,.T.);
#259=EDGE_CURVE('',#331,#308,#381,.T.);
#260=EDGE_CURVE('',#331,#332,#382,.T.);
#261=EDGE_CURVE('',#332,#309,#383,.T.);
#262=EDGE_CURVE('',#333,#334,#384,.T.);
#263=EDGE_CURVE('',#334,#335,#385,.T.);
#264=EDGE_CURVE('',#335,#336,#386,.F.);
#265=EDGE_CURVE('',#336,#333,#387,.F.);
#266=EDGE_CURVE('',#337,#338,#388,.T.);
#267=EDGE_CURVE('',#338,#339,#389,.T.);
#268=EDGE_CURVE('',#339,#340,#390,.F.);
#269=EDGE_CURVE('',#340,#337,#391,.F.);
#270=EDGE_CURVE('',#341,#342,#392,.F.);
#271=EDGE_CURVE('',#342,#343,#393,.F.);
#272=EDGE_CURVE('',#343,#344,#394,.T.);
#273=EDGE_CURVE('',#344,#341,#395,.T.);
#274=EDGE_CURVE('',#345,#345,#26,.T.);
#275=EDGE_CURVE('',#346,#346,#27,.T.);
#276=EDGE_CURVE('',#347,#347,#28,.T.);
#277=EDGE_CURVE('',#348,#348,#29,.T.);
#278=EDGE_CURVE('',#343,#338,#30,.F.);
#279=EDGE_CURVE('',#337,#334,#31,.F.);
#280=EDGE_CURVE('',#333,#298,#32,.F.);
#281=EDGE_CURVE('',#299,#332,#33,.F.);
#282=EDGE_CURVE('',#329,#303,#34,.F.);
#283=EDGE_CURVE('',#302,#344,#35,.F.);
#284=EDGE_CURVE('',#309,#305,#17,.T.);
#285=EDGE_CURVE('',#310,#304,#18,.F.);
#286=EDGE_CURVE('',#320,#342,#36,.T.);
#287=EDGE_CURVE('',#341,#317,#37,.F.);
#288=EDGE_CURVE('',#300,#318,#38,.F.);
#289=EDGE_CURVE('',#317,#301,#39,.T.);
#290=EDGE_CURVE('',#339,#320,#40,.F.);
#291=EDGE_CURVE('',#319,#340,#41,.T.);
#292=EDGE_CURVE('',#335,#319,#42,.F.);
#293=EDGE_CURVE('',#318,#336,#43,.T.);
#294=EDGE_CURVE('',#339,#342,#44,.T.);
#295=EDGE_CURVE('',#335,#340,#45,.T.);
#296=EDGE_CURVE('',#300,#336,#46,.T.);
#297=EDGE_CURVE('',#341,#301,#47,.T.);
#298=VERTEX_POINT('',#857);
#299=VERTEX_POINT('',#858);
#300=VERTEX_POINT('',#860);
#301=VERTEX_POINT('',#862);
#302=VERTEX_POINT('',#864);
#303=VERTEX_POINT('',#866);
#304=VERTEX_POINT('',#868);
#305=VERTEX_POINT('',#870);
#306=VERTEX_POINT('',#874);
#307=VERTEX_POINT('',#876);
#308=VERTEX_POINT('',#879);
#309=VERTEX_POINT('',#880);
#310=VERTEX_POINT('',#882);
#311=VERTEX_POINT('',#884);
#312=VERTEX_POINT('',#886);
#313=VERTEX_POINT('',#888);
#314=VERTEX_POINT('',#890);
#315=VERTEX_POINT('',#892);
#316=VERTEX_POINT('',#896);
#317=VERTEX_POINT('',#898);
#318=VERTEX_POINT('',#899);
#319=VERTEX_POINT('',#901);
#320=VERTEX_POINT('',#903);
#321=VERTEX_POINT('',#906);
#322=VERTEX_POINT('',#908);
#323=VERTEX_POINT('',#910);
#324=VERTEX_POINT('',#912);
#325=VERTEX_POINT('',#915);
#326=VERTEX_POINT('',#917);
#327=VERTEX_POINT('',#921);
#328=VERTEX_POINT('',#925);
#329=VERTEX_POINT('',#929);
#330=VERTEX_POINT('',#931);
#331=VERTEX_POINT('',#937);
#332=VERTEX_POINT('',#941);
#333=VERTEX_POINT('',#945);
#334=VERTEX_POINT('',#946);
#335=VERTEX_POINT('',#948);
#336=VERTEX_POINT('',#950);
#337=VERTEX_POINT('',#954);
#338=VERTEX_POINT('',#955);
#339=VERTEX_POINT('',#957);
#340=VERTEX_POINT('',#959);
#341=VERTEX_POINT('',#963);
#342=VERTEX_POINT('',#964);
#343=VERTEX_POINT('',#966);
#344=VERTEX_POINT('',#968);
#345=VERTEX_POINT('',#972);
#346=VERTEX_POINT('',#975);
#347=VERTEX_POINT('',#978);
#348=VERTEX_POINT('',#981);
#349=LINE('',#856,#396);
#350=LINE('',#859,#397);
#351=LINE('',#861,#398);
#352=LINE('',#863,#399);
#353=LINE('',#865,#400);
#354=LINE('',#867,#401);
#355=LINE('',#869,#402);
#356=LINE('',#871,#403);
#357=LINE('',#878,#404);
#358=LINE('',#881,#405);
#359=LINE('',#883,#406);
#360=LINE('',#885,#407);
#361=LINE('',#887,#408);
#362=LINE('',#889,#409);
#363=LINE('',#891,#410);
#364=LINE('',#893,#411);
#365=LINE('',#897,#412);
#366=LINE('',#900,#413);
#367=LINE('',#902,#414);
#368=LINE('',#904,#415);
#369=LINE('',#914,#416);
#370=LINE('',#916,#417);
#371=LINE('',#918,#418);
#372=LINE('',#920,#419);
#373=LINE('',#922,#420);
#374=LINE('',#924,#421);
#375=LINE('',#926,#422);
#376=LINE('',#928,#423);
#377=LINE('',#930,#424);
#378=LINE('',#932,#425);
#379=LINE('',#934,#426);
#380=LINE('',#936,#427);
#381=LINE('',#938,#428);
#382=LINE('',#940,#429);
#383=LINE('',#942,#430);
#384=LINE('',#944,#431);
#385=LINE('',#947,#432);
#386=LINE('',#949,#433);
#387=LINE('',#951,#434);
#388=LINE('',#953,#435);
#389=LINE('',#956,#436);
#390=LINE('',#958,#437);
#391=LINE('',#960,#438);
#392=LINE('',#962,#439);
#393=LINE('',#965,#440);
#394=LINE('',#967,#441);
#395=LINE('',#969,#442);
#396=VECTOR('',#677,1.);
#397=VECTOR('',#678,1.);
#398=VECTOR('',#679,1.);
#399=VECTOR('',#680,1.);
#400=VECTOR('',#681,1.);
#401=VECTOR('',#682,1.);
#402=VECTOR('',#683,1.);
#403=VECTOR('',#684,1.);
#404=VECTOR('',#693,1.);
#405=VECTOR('',#694,1.);
#406=VECTOR('',#695,1.);
#407=VECTOR('',#696,1.);
#408=VECTOR('',#697,1.);
#409=VECTOR('',#698,1.);
#410=VECTOR('',#699,1.);
#411=VECTOR('',#700,1.);
#412=VECTOR('',#705,1.);
#413=VECTOR('',#706,1.);
#414=VECTOR('',#707,1.);
#415=VECTOR('',#708,1.);
#416=VECTOR('',#719,1.);
#417=VECTOR('',#720,1.);
#418=VECTOR('',#721,1.);
#419=VECTOR('',#724,1.);
#420=VECTOR('',#725,1.);
#421=VECTOR('',#728,1.);
#422=VECTOR('',#729,1.);
#423=VECTOR('',#732,1.);
#424=VECTOR('',#733,1.);
#425=VECTOR('',#734,1.);
#426=VECTOR('',#737,1.);
#427=VECTOR('',#740,1.);
#428=VECTOR('',#741,1.);
#429=VECTOR('',#744,1.);
#430=VECTOR('',#745,1.);
#431=VECTOR('',#748,1.);
#432=VECTOR('',#749,1.);
#433=VECTOR('',#750,1.);
#434=VECTOR('',#751,1.);
#435=VECTOR('',#754,1.);
#436=VECTOR('',#755,1.);
#437=VECTOR('',#756,1.);
#438=VECTOR('',#757,1.);
#439=VECTOR('',#760,1.);
#440=VECTOR('',#761,1.);
#441=VECTOR('',#762,1.);
#442=VECTOR('',#763,1.);
#443=EDGE_LOOP('',(#64,#65,#66,#67,#68,#69,#70,#71));
#444=EDGE_LOOP('',(#72));
#445=EDGE_LOOP('',(#73));
#446=EDGE_LOOP('',(#74));
#447=EDGE_LOOP('',(#75,#76,#77,#78,#79,#80,#81,#82));
#448=EDGE_LOOP('',(#83));
#449=EDGE_LOOP('',(#84,#85,#86,#87));
#450=EDGE_LOOP('',(#88));
#451=EDGE_LOOP('',(#89));
#452=EDGE_LOOP('',(#90));
#453=EDGE_LOOP('',(#91));
#454=EDGE_LOOP('',(#92,#93,#94,#95));
#455=EDGE_LOOP('',(#96,#97,#98,#99));
#456=EDGE_LOOP('',(#100,#101,#102,#103));
#457=EDGE_LOOP('',(#104,#105,#106,#107));
#458=EDGE_LOOP('',(#108,#109,#110,#111));
#459=EDGE_LOOP('',(#112,#113,#114,#115));
#460=EDGE_LOOP('',(#116,#117,#118,#119));
#461=EDGE_LOOP('',(#120,#121,#122,#123));
#462=EDGE_LOOP('',(#124,#125,#126,#127));
#463=EDGE_LOOP('',(#128,#129,#130,#131));
#464=EDGE_LOOP('',(#132));
#465=EDGE_LOOP('',(#133));
#466=EDGE_LOOP('',(#134));
#467=EDGE_LOOP('',(#135));
#468=EDGE_LOOP('',(#136));
#469=EDGE_LOOP('',(#137));
#470=EDGE_LOOP('',(#138));
#471=EDGE_LOOP('',(#139));
#472=EDGE_LOOP('',(#140,#141,#142,#143,#144,#145,#146,#147,#148,#149,#150,#151,#152,#153,#154,#155,#156,#157));
#473=EDGE_LOOP('',(#158));
#474=EDGE_LOOP('',(#159));
#475=EDGE_LOOP('',(#160));
#476=EDGE_LOOP('',(#161));
#477=EDGE_LOOP('',(#162,#163,#164,#165));
#478=EDGE_LOOP('',(#166,#167,#168,#169));
#479=EDGE_LOOP('',(#170,#171,#172,#173));
#480=EDGE_LOOP('',(#174,#175,#176,#177));
#481=EDGE_LOOP('',(#178,#179,#180,#181));
#482=EDGE_LOOP('',(#182,#183,#184,#185));
#483=EDGE_LOOP('',(#186,#187,#188,#189));
#484=EDGE_LOOP('',(#190));
#485=EDGE_LOOP('',(#191));
#486=EDGE_LOOP('',(#192,#193,#194,#195));
#487=EDGE_LOOP('',(#196,#197,#198));
#488=EDGE_LOOP('',(#199,#200,#201,#202));
#489=EDGE_LOOP('',(#203,#204,#205));
#490=EDGE_LOOP('',(#206,#207,#208,#209));
#491=EDGE_LOOP('',(#210,#211,#212));
#492=EDGE_LOOP('',(#213,#214,#215,#216));
#493=EDGE_LOOP('',(#217,#218,#219));
#494=FACE_BOUND('',#443,.T.);
#495=FACE_BOUND('',#444,.T.);
#496=FACE_BOUND('',#445,.T.);
#497=FACE_BOUND('',#446,.T.);
#498=FACE_BOUND('',#447,.T.);
#499=FACE_BOUND('',#448,.T.);
#500=FACE_BOUND('',#449,.T.);
#501=FACE_BOUND('',#450,.T.);
#502=FACE_BOUND('',#451,.T.);
#503=FACE_BOUND('',#452,.T.);
#504=FACE_BOUND('',#453,.T.);
#505=FACE_BOUND('',#454,.T.);
#506=FACE_BOUND('',#455,.T.);
#507=FACE_BOUND('',#456,.T.);
#508=FACE_BOUND('',#457,.T.);
#509=FACE_BOUND('',#458,.T.);
#510=FACE_BOUND('',#459,.T.);
#511=FACE_BOUND('',#460,.T.);
#512=FACE_BOUND('',#461,.T.);
#513=FACE_BOUND('',#462,.T.);
#514=FACE_BOUND('',#463,.T.);
#515=FACE_BOUND('',#464,.T.);
#516=FACE_BOUND('',#465,.T.);
#517=FACE_BOUND('',#466,.T.);
#518=FACE_BOUND('',#467,.T.);
#519=FACE_BOUND('',#468,.T.);
#520=FACE_BOUND('',#469,.T.);
#521=FACE_BOUND('',#470,.T.);
#522=FACE_BOUND('',#471,.T.);
#523=FACE_BOUND('',#472,.T.);
#524=FACE_BOUND('',#473,.T.);
#525=FACE_BOUND('',#474,.T.);
#526=FACE_BOUND('',#475,.T.);
#527=FACE_BOUND('',#476,.T.);
#528=FACE_BOUND('',#477,.T.);
#529=FACE_BOUND('',#478,.T.);
#530=FACE_BOUND('',#479,.T.);
#531=FACE_BOUND('',#480,.T.);
#532=FACE_BOUND('',#481,.T.);
#533=FACE_BOUND('',#482,.T.);
#534=FACE_BOUND('',#483,.T.);
#535=FACE_BOUND('',#484,.T.);
#536=FACE_BOUND('',#485,.T.);
#537=FACE_BOUND('',#486,.T.);
#538=FACE_BOUND('',#487,.T.);
#539=FACE_BOUND('',#488,.T.);
#540=FACE_BOUND('',#489,.T.);
#541=FACE_BOUND('',#490,.T.);
#542=FACE_BOUND('',#491,.T.);
#543=FACE_BOUND('',#492,.T.);
#544=FACE_BOUND('',#493,.T.);
#545=PLANE('',#607);
#546=PLANE('',#611);
#547=PLANE('',#612);
#548=PLANE('',#618);
#549=PLANE('',#619);
#550=PLANE('',#620);
#551=PLANE('',#621);
#552=PLANE('',#622);
#553=PLANE('',#623);
#554=PLANE('',#624);
#555=PLANE('',#625);
#556=PLANE('',#626);
#557=PLANE('',#627);
#558=PLANE('',#636);
#559=ADVANCED_FACE('',(#494),#545,.F.);
#560=ADVANCED_FACE('',(#495,#496),#48,.F.);
#561=ADVANCED_FACE('',(#497,#498),#546,.F.);
#562=ADVANCED_FACE('',(#499,#500,#501,#502,#503,#504),#547,.T.);
#563=ADVANCED_FACE('',(#505),#548,.F.);
#564=ADVANCED_FACE('',(#506),#549,.F.);
#565=ADVANCED_FACE('',(#507),#550,.T.);
#566=ADVANCED_FACE('',(#508),#551,.F.);
#567=ADVANCED_FACE('',(#509),#552,.T.);
#568=ADVANCED_FACE('',(#510),#553,.T.);
#569=ADVANCED_FACE('',(#511),#554,.T.);
#570=ADVANCED_FACE('',(#512),#555,.T.);
#571=ADVANCED_FACE('',(#513),#556,.T.);
#572=ADVANCED_FACE('',(#514),#557,.T.);
#573=ADVANCED_FACE('',(#515,#516),#49,.F.);
#574=ADVANCED_FACE('',(#517,#518),#50,.F.);
#575=ADVANCED_FACE('',(#519,#520),#51,.F.);
#576=ADVANCED_FACE('',(#521,#522),#52,.F.);
#577=ADVANCED_FACE('',(#523,#524,#525,#526,#527),#558,.F.);
#578=ADVANCED_FACE('',(#528),#53,.T.);
#579=ADVANCED_FACE('',(#529),#54,.T.);
#580=ADVANCED_FACE('',(#530),#55,.T.);
#581=ADVANCED_FACE('',(#531),#56,.T.);
#582=ADVANCED_FACE('',(#532),#57,.T.);
#583=ADVANCED_FACE('',(#533),#58,.T.);
#584=ADVANCED_FACE('',(#534),#59,.T.);
#585=ADVANCED_FACE('',(#535,#536),#16,.T.);
#586=ADVANCED_FACE('',(#537),#60,.T.);
#587=ADVANCED_FACE('',(#538),#12,.T.);
#588=ADVANCED_FACE('',(#539),#61,.T.);
#589=ADVANCED_FACE('',(#540),#13,.T.);
#590=ADVANCED_FACE('',(#541),#62,.T.);
#591=ADVANCED_FACE('',(#542),#14,.T.);
#592=ADVANCED_FACE('',(#543),#63,.T.);
#593=ADVANCED_FACE('',(#544),#15,.T.);
#594=CLOSED_SHELL('',(#559,#560,#561,#562,#563,#564,#565,#566,#567,#568,#569,#570,#571,#572,#573,#574,#575,#576,#577,#578,#579,#580,#581,#582,#583,#584,#585,#586,#587,#588,#589,#590,#591,#592,#593));
#595=STYLED_ITEM('',(#596),#603);
#596=PRESENTATION_STYLE_ASSIGNMENT((#597));
#597=SURFACE_STYLE_USAGE(.BOTH.,#598);
#598=SURFACE_SIDE_STYLE('',(#599));
#599=SURFACE_STYLE_FILL_AREA(#600);
#600=FILL_AREA_STYLE('',(#601));
#601=FILL_AREA_STYLE_COLOUR('',#602);
#602=COLOUR_RGB('',0.615686274509804,0.811764705882353,0.929411764705882);
#603=MANIFOLD_SOLID_BREP('Part 1',#594);
#604=SHAPE_DEFINITION_REPRESENTATION(#1025,#605);
#605=SHAPE_REPRESENTATION('Part 1',(#606),#1020);
#606=AXIS2_PLACEMENT_3D('',#854,#673,#674);
#607=AXIS2_PLACEMENT_3D('',#855,#675,#676);
#608=AXIS2_PLACEMENT_3D('',#872,#685,#686);
#609=AXIS2_PLACEMENT_3D('',#873,#687,#688);
#610=AXIS2_PLACEMENT_3D('',#875,#689,#690);
#611=AXIS2_PLACEMENT_3D('',#877,#691,#692);
#612=AXIS2_PLACEMENT_3D('',#894,#701,#702);
#613=AXIS2_PLACEMENT_3D('',#895,#703,#704);
#614=AXIS2_PLACEMENT_3D('',#905,#709,#710);
#615=AXIS2_PLACEMENT_3D('',#907,#711,#712);
#616=AXIS2_PLACEMENT_3D('',#909,#713,#714);
#617=AXIS2_PLACEMENT_3D('',#911,#715,#716);
#618=AXIS2_PLACEMENT_3D('',#913,#717,#718);
#619=AXIS2_PLACEMENT_3D('',#919,#722,#723);
#620=AXIS2_PLACEMENT_3D('',#923,#726,#727);
#621=AXIS2_PLACEMENT_3D('',#927,#730,#731);
#622=AXIS2_PLACEMENT_3D('',#933,#735,#736);
#623=AXIS2_PLACEMENT_3D('',#935,#738,#739);
#624=AXIS2_PLACEMENT_3D('',#939,#742,#743);
#625=AXIS2_PLACEMENT_3D('',#943,#746,#747);
#626=AXIS2_PLACEMENT_3D('',#952,#752,#753);
#627=AXIS2_PLACEMENT_3D('',#961,#758,#759);
#628=AXIS2_PLACEMENT_3D('',#970,#764,#765);
#629=AXIS2_PLACEMENT_3D('',#971,#766,#767);
#630=AXIS2_PLACEMENT_3D('',#973,#768,#769);
#631=AXIS2_PLACEMENT_3D('',#974,#770,#771);
#632=AXIS2_PLACEMENT_3D('',#976,#772,#773);
#633=AXIS2_PLACEMENT_3D('',#977,#774,#775);
#634=AXIS2_PLACEMENT_3D('',#979,#776,#777);
#635=AXIS2_PLACEMENT_3D('',#980,#778,#779);
#636=AXIS2_PLACEMENT_3D('',#982,#780,#781);
#637=AXIS2_PLACEMENT_3D('',#983,#782,#783);
#638=AXIS2_PLACEMENT_3D('',#984,#784,#785);
#639=AXIS2_PLACEMENT_3D('',#985,#786,#787);
#640=AXIS2_PLACEMENT_3D('',#986,#788,#789);
#641=AXIS2_PLACEMENT_3D('',#987,#790,#791);
#642=AXIS2_PLACEMENT_3D('',#988,#792,#793);
#643=AXIS2_PLACEMENT_3D('',#989,#794,#795);
#644=AXIS2_PLACEMENT_3D('',#990,#796,#797);
#645=AXIS2_PLACEMENT_3D('',#991,#798,#799);
#646=AXIS2_PLACEMENT_3D('',#992,#800,#801);
#647=AXIS2_PLACEMENT_3D('',#993,#802,#803);
#648=AXIS2_PLACEMENT_3D('',#994,#804,#805);
#649=AXIS2_PLACEMENT_3D('',#995,#806,#807);
#650=AXIS2_PLACEMENT_3D('',#996,#808,#809);
#651=AXIS2_PLACEMENT_3D('',#997,#810,#811);
#652=AXIS2_PLACEMENT_3D('',#998,#812,#813);
#653=AXIS2_PLACEMENT_3D('',#999,#814,#815);
#654=AXIS2_PLACEMENT_3D('',#1000,#816,#817);
#655=AXIS2_PLACEMENT_3D('',#1001,#818,#819);
#656=AXIS2_PLACEMENT_3D('',#1002,#820,#821);
#657=AXIS2_PLACEMENT_3D('',#1003,#822,#823);
#658=AXIS2_PLACEMENT_3D('',#1004,#824,#825);
#659=AXIS2_PLACEMENT_3D('',#1005,#826,#827);
#660=AXIS2_PLACEMENT_3D('',#1006,#828,#829);
#661=AXIS2_PLACEMENT_3D('',#1007,#830,#831);
#662=AXIS2_PLACEMENT_3D('',#1008,#832,#833);
#663=AXIS2_PLACEMENT_3D('',#1009,#834,#835);
#664=AXIS2_PLACEMENT_3D('',#1010,#836,#837);
#665=AXIS2_PLACEMENT_3D('',#1011,#838,#839);
#666=AXIS2_PLACEMENT_3D('',#1012,#840,#841);
#667=AXIS2_PLACEMENT_3D('',#1013,#842,#843);
#668=AXIS2_PLACEMENT_3D('',#1014,#844,#845);
#669=AXIS2_PLACEMENT_3D('',#1015,#846,#847);
#670=AXIS2_PLACEMENT_3D('',#1016,#848,#849);
#671=AXIS2_PLACEMENT_3D('',#1017,#850,#851);
#672=AXIS2_PLACEMENT_3D('',#1018,#852,#853);
#673=DIRECTION('',(0.,0.,1.));
#674=DIRECTION('',(1.,0.,0.));
#675=DIRECTION('',(0.,0.,1.));
#676=DIRECTION('',(0.,-1.,0.));
#677=DIRECTION('',(1.,0.,0.));
#678=DIRECTION('',(0.,1.,0.));
#679=DIRECTION('',(1.,0.,0.));
#680=DIRECTION('',(0.,1.,0.));
#681=DIRECTION('',(-1.,0.,0.));
#682=DIRECTION('',(0.,1.,0.));
#683=DIRECTION('',(1.,0.,0.));
#684=DIRECTION('',(0.,1.,0.));
#685=DIRECTION('',(0.,1.,0.));
#686=DIRECTION('',(1.,0.,0.));
#687=DIRECTION('',(0.,1.,0.));
#688=DIRECTION('',(1.,0.,0.));
#689=DIRECTION('',(0.,1.,0.));
#690=DIRECTION('',(1.,0.,0.));
#691=DIRECTION('',(0.,1.,0.));
#692=DIRECTION('',(1.,0.,0.));
#693=DIRECTION('',(-1.57702134179709E-16,0.,-1.));
#694=DIRECTION('',(1.,0.,0.));
#695=DIRECTION('',(1.57702134179709E-16,0.,-1.));
#696=DIRECTION('',(1.,0.,0.));
#697=DIRECTION('',(-2.04085114820801E-16,0.,1.));
#698=DIRECTION('',(1.,0.,0.));
#699=DIRECTION('',(-2.04085114820801E-16,0.,1.));
#700=DIRECTION('',(1.,0.,0.));
#701=DIRECTION('',(0.,1.,0.));
#702=DIRECTION('',(1.,0.,0.));
#703=DIRECTION('',(0.,1.,0.));
#704=DIRECTION('',(1.,0.,0.));
#705=DIRECTION('',(1.,0.,0.));
#706=DIRECTION('',(6.14061407425418E-17,0.,1.));
#707=DIRECTION('',(1.,0.,-2.16840434497101E-16));
#708=DIRECTION('',(0.,0.,-1.));
#709=DIRECTION('',(0.,-1.,0.));
#710=DIRECTION('',(1.,0.,0.));
#711=DIRECTION('',(0.,1.,0.));
#712=DIRECTION('',(1.,0.,0.));
#713=DIRECTION('',(0.,-1.,0.));
#714=DIRECTION('',(1.,0.,0.));
#715=DIRECTION('',(0.,1.,0.));
#716=DIRECTION('',(1.,0.,0.));
#717=DIRECTION('',(-1.,0.,-2.04085114820801E-16));
#718=DIRECTION('',(-2.04085114820801E-16,0.,1.));
#719=DIRECTION('',(0.,1.,0.));
#720=DIRECTION('',(0.,1.,0.));
#721=DIRECTION('',(-2.04085114820801E-16,0.,1.));
#722=DIRECTION('',(0.,0.,1.));
#723=DIRECTION('',(0.,-1.,0.));
#724=DIRECTION('',(0.,1.,0.));
#725=DIRECTION('',(1.,0.,0.));
#726=DIRECTION('',(-1.,0.,-2.04085114820801E-16));
#727=DIRECTION('',(-2.04085114820801E-16,0.,1.));
#728=DIRECTION('',(0.,1.,0.));
#729=DIRECTION('',(-2.04085114820801E-16,0.,1.));
#730=DIRECTION('',(1.,0.,1.57702134179709E-16));
#731=DIRECTION('',(1.57702134179709E-16,0.,-1.));
#732=DIRECTION('',(0.,1.,0.));
#733=DIRECTION('',(1.57702134179709E-16,0.,-1.));
#734=DIRECTION('',(0.,1.,0.));
#735=DIRECTION('',(0.,0.,1.));
#736=DIRECTION('',(0.,-1.,0.));
#737=DIRECTION('',(1.,0.,0.));
#738=DIRECTION('',(0.,0.,1.));
#739=DIRECTION('',(0.,-1.,0.));
#740=DIRECTION('',(1.,0.,0.));
#741=DIRECTION('',(0.,1.,0.));
#742=DIRECTION('',(1.,0.,-1.57702134179709E-16));
#743=DIRECTION('',(-1.57702134179709E-16,0.,-1.));
#744=DIRECTION('',(-1.57702134179709E-16,0.,-1.));
#745=DIRECTION('',(0.,1.,0.));
#746=DIRECTION('',(-1.,0.,6.14061407425418E-17));
#747=DIRECTION('',(6.14061407425418E-17,0.,1.));
#748=DIRECTION('',(6.14061407425418E-17,0.,1.));
#749=DIRECTION('',(0.,1.,0.));
#750=DIRECTION('',(6.14061407425418E-17,0.,1.));
#751=DIRECTION('',(0.,1.,0.));
#752=DIRECTION('',(2.16840434497101E-16,0.,1.));
#753=DIRECTION('',(1.,0.,-2.16840434497101E-16));
#754=DIRECTION('',(1.,0.,-2.16840434497101E-16));
#755=DIRECTION('',(0.,1.,0.));
#756=DIRECTION('',(1.,0.,-2.16840434497101E-16));
#757=DIRECTION('',(0.,1.,0.));
#758=DIRECTION('',(1.,0.,0.));
#759=DIRECTION('',(0.,-1.,0.));
#760=DIRECTION('',(0.,0.,-1.));
#761=DIRECTION('',(0.,1.,0.));
#762=DIRECTION('',(0.,0.,-1.));
#763=DIRECTION('',(0.,1.,0.));
#764=DIRECTION('',(0.,1.,0.));
#765=DIRECTION('',(1.,0.,0.));
#766=DIRECTION('',(0.,-1.,0.));
#767=DIRECTION('',(1.,0.,0.));
#768=DIRECTION('',(0.,1.,0.));
#769=DIRECTION('',(1.,0.,0.));
#770=DIRECTION('',(0.,1.,0.));
#771=DIRECTION('',(1.,0.,0.));
#772=DIRECTION('',(0.,1.,0.));
#773=DIRECTION('',(1.,0.,0.));
#774=DIRECTION('',(0.,-1.,0.));
#775=DIRECTION('',(1.,0.,0.));
#776=DIRECTION('',(0.,1.,0.));
#777=DIRECTION('',(1.,0.,0.));
#778=DIRECTION('',(0.,1.,0.));
#779=DIRECTION('',(1.,0.,0.));
#780=DIRECTION('',(0.,1.,0.));
#781=DIRECTION('',(1.,0.,0.));
#782=DIRECTION('',(0.,1.,0.));
#783=DIRECTION('',(1.,0.,0.));
#784=DIRECTION('',(0.,1.,0.));
#785=DIRECTION('',(1.,0.,0.));
#786=DIRECTION('',(0.,1.,0.));
#787=DIRECTION('',(1.,0.,0.));
#788=DIRECTION('',(0.,1.,0.));
#789=DIRECTION('',(1.,0.,0.));
#790=DIRECTION('',(0.,1.,0.));
#791=DIRECTION('',(1.,0.,0.));
#792=DIRECTION('',(0.,1.,0.));
#793=DIRECTION('',(1.,0.,0.));
#794=DIRECTION('',(0.,-1.,0.));
#795=DIRECTION('',(-1.,0.,0.));
#796=DIRECTION('',(0.707106781186548,0.707106781186548,0.));
#797=DIRECTION('',(0.707106781186548,-0.707106781186548,0.));
#798=DIRECTION('',(1.,0.,0.));
#799=DIRECTION('',(0.,-1.,0.));
#800=DIRECTION('',(-0.707106781186548,0.707106781186548,0.));
#801=DIRECTION('',(0.707106781186548,0.707106781186548,0.));
#802=DIRECTION('',(0.,1.,0.));
#803=DIRECTION('',(1.,0.,0.));
#804=DIRECTION('',(0.,0.,-1.));
#805=DIRECTION('',(0.,1.,0.));
#806=DIRECTION('',(0.,0.,-1.));
#807=DIRECTION('',(0.,1.,0.));
#808=DIRECTION('',(0.,0.,-1.));
#809=DIRECTION('',(0.,1.,0.));
#810=DIRECTION('',(-1.,0.,0.));
#811=DIRECTION('',(0.,1.,0.));
#812=DIRECTION('',(-1.,0.,0.));
#813=DIRECTION('',(0.,1.,0.));
#814=DIRECTION('',(-1.,0.,0.));
#815=DIRECTION('',(0.,1.,0.));
#816=DIRECTION('',(1.,0.,-2.16840434497101E-16));
#817=DIRECTION('',(-2.16840434497101E-16,0.,-1.));
#818=DIRECTION('',(1.,0.,-2.16840434497101E-16));
#819=DIRECTION('',(-2.16840434497101E-16,0.,-1.));
#820=DIRECTION('',(1.,0.,-2.16840434497101E-16));
#821=DIRECTION('',(-2.16840434497101E-16,0.,-1.));
#822=DIRECTION('',(6.14061407425418E-17,0.,1.));
#823=DIRECTION('',(1.,0.,-6.14061407425418E-17));
#824=DIRECTION('',(6.14061407425418E-17,0.,1.));
#825=DIRECTION('',(1.,0.,-6.14061407425418E-17));
#826=DIRECTION('',(6.14061407425418E-17,0.,1.));
#827=DIRECTION('',(1.,0.,-6.14061407425418E-17));
#828=DIRECTION('',(0.,1.,0.));
#829=DIRECTION('',(1.,0.,0.));
#830=DIRECTION('',(0.,1.,0.));
#831=DIRECTION('',(1.,0.,0.));
#832=DIRECTION('',(0.,1.,0.));
#833=DIRECTION('',(1.,0.,0.));
#834=DIRECTION('',(0.,1.,0.));
#835=DIRECTION('',(1.,0.,0.));
#836=DIRECTION('',(0.,1.,0.));
#837=DIRECTION('',(1.,0.,0.));
#838=DIRECTION('',(0.,1.,0.));
#839=DIRECTION('',(1.,0.,0.));
#840=DIRECTION('',(0.,1.,0.));
#841=DIRECTION('',(1.,0.,0.));
#842=DIRECTION('',(0.,-1.,0.));
#843=DIRECTION('',(-1.,0.,0.));
#844=DIRECTION('',(-8.67361737988403E-16,1.,0.));
#845=DIRECTION('',(1.,8.67361737988403E-16,0.));
#846=DIRECTION('',(0.,1.,0.));
#847=DIRECTION('',(1.,0.,0.));
#848=DIRECTION('',(0.,-1.,0.));
#849=DIRECTION('',(-1.,0.,0.));
#850=DIRECTION('',(0.,1.,8.67361737988403E-16));
#851=DIRECTION('',(0.,-8.67361737988403E-16,1.));
#852=DIRECTION('',(0.,1.,0.));
#853=DIRECTION('',(1.,0.,0.));
#854=CARTESIAN_POINT('',(0.,0.,0.));
#855=CARTESIAN_POINT('',(-8.67361737988404E-19,-0.0015,-0.031));
#856=CARTESIAN_POINT('',(-0.009,-0.0065,-0.031));
#857=CARTESIAN_POINT('',(-0.0155,-0.0065,-0.031));
#858=CARTESIAN_POINT('',(-0.008,-0.0065,-0.031));
#859=CARTESIAN_POINT('',(-0.0155,-0.0005,-0.031));
#860=CARTESIAN_POINT('',(-0.0155,-0.0005,-0.031));
#861=CARTESIAN_POINT('',(0.016,-0.0005,-0.031));
#862=CARTESIAN_POINT('',(0.0155,-0.0005,-0.031));
#863=CARTESIAN_POINT('',(0.0155,-0.0065,-0.031));
#864=CARTESIAN_POINT('',(0.0155,-0.0065,-0.031));
#865=CARTESIAN_POINT('',(0.01175,-0.0065,-0.031));
#866=CARTESIAN_POINT('',(0.008,-0.0065,-0.031));
#867=CARTESIAN_POINT('',(0.008,-0.0015,-0.031));
#868=CARTESIAN_POINT('',(0.008,-0.001,-0.031));
#869=CARTESIAN_POINT('',(-8.67361737988404E-19,-0.001,-0.031));
#870=CARTESIAN_POINT('',(-0.008,-0.001,-0.031));
#871=CARTESIAN_POINT('',(-0.008,-0.0065,-0.031));
#872=CARTESIAN_POINT('',(0.00345,-0.0015,-0.01475));
#873=CARTESIAN_POINT('',(0.00345,-0.0005,-0.01475));
#874=CARTESIAN_POINT('',(0.0047,-0.0005,-0.01475));
#875=CARTESIAN_POINT('',(0.00345,-0.0015,-0.01475));
#876=CARTESIAN_POINT('',(0.0047,-0.0015,-0.01475));
#877=CARTESIAN_POINT('',(3.46944695195361E-18,-0.0015,0.));
#878=CARTESIAN_POINT('',(-0.0075,-0.0015,-0.02825));
#879=CARTESIAN_POINT('',(-0.0075,-0.0015,-0.0255));
#880=CARTESIAN_POINT('',(-0.0075,-0.0015,-0.0305));
#881=CARTESIAN_POINT('',(3.46944695195361E-18,-0.0015,-0.0305));
#882=CARTESIAN_POINT('',(0.0075,-0.0015,-0.0305));
#883=CARTESIAN_POINT('',(0.0075,-0.0015,-0.02825));
#884=CARTESIAN_POINT('',(0.0075,-0.0015,-0.0255));
#885=CARTESIAN_POINT('',(0.009,-0.0015,-0.0255));
#886=CARTESIAN_POINT('',(0.0105,-0.0015,-0.0255));
#887=CARTESIAN_POINT('',(0.0105,-0.0015,-3.46944695195361E-18));
#888=CARTESIAN_POINT('',(0.0105,-0.0015,0.0255));
#889=CARTESIAN_POINT('',(-8.67361737988404E-18,-0.0015,0.0255));
#890=CARTESIAN_POINT('',(-0.0105,-0.0015,0.0255));
#891=CARTESIAN_POINT('',(-0.0105,-0.0015,0.));
#892=CARTESIAN_POINT('',(-0.0105,-0.0015,-0.0255));
#893=CARTESIAN_POINT('',(-0.009,-0.0015,-0.0255));
#894=CARTESIAN_POINT('',(3.46944695195361E-18,0.,0.));
#895=CARTESIAN_POINT('',(0.00345,0.,-0.01475));
#896=CARTESIAN_POINT('',(0.0052,0.,-0.01475));
#897=CARTESIAN_POINT('',(-0.016,0.,-0.0305));
#898=CARTESIAN_POINT('',(0.0155,0.,-0.0305));
#899=CARTESIAN_POINT('',(-0.0155,0.,-0.0305));
#900=CARTESIAN_POINT('',(-0.0155,0.,9.51795181509399E-19));
#901=CARTESIAN_POINT('',(-0.0155,0.,0.0305));
#902=CARTESIAN_POINT('',(1.00830802041152E-17,0.,0.0305));
#903=CARTESIAN_POINT('',(0.0155,0.,0.0305));
#904=CARTESIAN_POINT('',(0.0155,0.,0.));
#905=CARTESIAN_POINT('',(0.01325,0.,-0.02825));
#906=CARTESIAN_POINT('',(0.01475,0.,-0.02825));
#907=CARTESIAN_POINT('',(0.01325,0.,0.02825));
#908=CARTESIAN_POINT('',(0.01475,0.,0.02825));
#909=CARTESIAN_POINT('',(-0.01325,0.,0.02825));
#910=CARTESIAN_POINT('',(-0.01175,0.,0.02825));
#911=CARTESIAN_POINT('',(-0.01325,0.,-0.02825));
#912=CARTESIAN_POINT('',(-0.01175,0.,-0.02825));
#913=CARTESIAN_POINT('',(-0.0105,-0.0065,0.));
#914=CARTESIAN_POINT('',(-0.0105,-0.0065,-0.0255));
#915=CARTESIAN_POINT('',(-0.0105,-0.0065,-0.0255));
#916=CARTESIAN_POINT('',(-0.0105,-0.0065,0.0255));
#917=CARTESIAN_POINT('',(-0.0105,-0.0065,0.0255));
#918=CARTESIAN_POINT('',(-0.0105,-0.0065,0.));
#919=CARTESIAN_POINT('',(-8.67361737988404E-18,-0.0065,0.0255));
#920=CARTESIAN_POINT('',(0.0105,-0.0065,0.0255));
#921=CARTESIAN_POINT('',(0.0105,-0.0065,0.0255));
#922=CARTESIAN_POINT('',(-8.67361737988404E-18,-0.0065,0.0255));
#923=CARTESIAN_POINT('',(0.0105,-0.0065,-3.46944695195361E-18));
#924=CARTESIAN_POINT('',(0.0105,-0.0065,-0.0255));
#925=CARTESIAN_POINT('',(0.0105,-0.0065,-0.0255));
#926=CARTESIAN_POINT('',(0.0105,-0.0065,-3.46944695195361E-18));
#927=CARTESIAN_POINT('',(0.0075,-0.0065,-0.02825));
#928=CARTESIAN_POINT('',(0.0075,-0.0065,-0.0305));
#929=CARTESIAN_POINT('',(0.0075,-0.0065,-0.0305));
#930=CARTESIAN_POINT('',(0.0075,-0.0065,-0.02825));
#931=CARTESIAN_POINT('',(0.0075,-0.0065,-0.0255));
#932=CARTESIAN_POINT('',(0.0075,-0.0065,-0.0255));
#933=CARTESIAN_POINT('',(0.009,-0.0065,-0.0255));
#934=CARTESIAN_POINT('',(0.009,-0.0065,-0.0255));
#935=CARTESIAN_POINT('',(-0.009,-0.0065,-0.0255));
#936=CARTESIAN_POINT('',(-0.009,-0.0065,-0.0255));
#937=CARTESIAN_POINT('',(-0.0075,-0.0065,-0.0255));
#938=CARTESIAN_POINT('',(-0.0075,-0.0065,-0.0255));
#939=CARTESIAN_POINT('',(-0.0075,-0.0065,-0.02825));
#940=CARTESIAN_POINT('',(-0.0075,-0.0065,-0.02825));
#941=CARTESIAN_POINT('',(-0.0075,-0.0065,-0.0305));
#942=CARTESIAN_POINT('',(-0.0075,-0.0015,-0.0305));
#943=CARTESIAN_POINT('',(-0.016,-0.0065,0.00275));
#944=CARTESIAN_POINT('',(-0.016,-0.0065,0.00275));
#945=CARTESIAN_POINT('',(-0.016,-0.0065,-0.0305));
#946=CARTESIAN_POINT('',(-0.016,-0.0065,0.0305));
#947=CARTESIAN_POINT('',(-0.016,-0.0065,0.0305));
#948=CARTESIAN_POINT('',(-0.016,-0.0005,0.0305));
#949=CARTESIAN_POINT('',(-0.016,-0.0005,0.00275));
#950=CARTESIAN_POINT('',(-0.016,-0.0005,-0.0305));
#951=CARTESIAN_POINT('',(-0.016,-0.0065,-0.0305));
#952=CARTESIAN_POINT('',(0.,-0.0065,0.031));
#953=CARTESIAN_POINT('',(0.,-0.0065,0.031));
#954=CARTESIAN_POINT('',(-0.0155,-0.0065,0.031));
#955=CARTESIAN_POINT('',(0.0155,-0.0065,0.031));
#956=CARTESIAN_POINT('',(0.0155,-0.0065,0.031));
#957=CARTESIAN_POINT('',(0.0155,-0.0005,0.031));
#958=CARTESIAN_POINT('',(0.,-0.0005,0.031));
#959=CARTESIAN_POINT('',(-0.0155,-0.0005,0.031));
#960=CARTESIAN_POINT('',(-0.0155,-0.0065,0.031));
#961=CARTESIAN_POINT('',(0.016,-0.0065,-0.02825));
#962=CARTESIAN_POINT('',(0.016,-0.0005,-0.02825));
#963=CARTESIAN_POINT('',(0.016,-0.0005,-0.0305));
#964=CARTESIAN_POINT('',(0.016,-0.0005,0.0305));
#965=CARTESIAN_POINT('',(0.016,-0.0065,0.0305));
#966=CARTESIAN_POINT('',(0.016,-0.0065,0.0305));
#967=CARTESIAN_POINT('',(0.016,-0.0065,-0.02825));
#968=CARTESIAN_POINT('',(0.016,-0.0065,-0.0305));
#969=CARTESIAN_POINT('',(0.016,-0.0005,-0.0305));
#970=CARTESIAN_POINT('',(-0.01325,-0.0065,0.02825));
#971=CARTESIAN_POINT('',(-0.01325,-0.0065,0.02825));
#972=CARTESIAN_POINT('',(-0.01175,-0.0065,0.02825));
#973=CARTESIAN_POINT('',(0.01325,-0.0065,0.02825));
#974=CARTESIAN_POINT('',(0.01325,-0.0065,0.02825));
#975=CARTESIAN_POINT('',(0.01475,-0.0065,0.02825));
#976=CARTESIAN_POINT('',(0.01325,-0.0065,-0.02825));
#977=CARTESIAN_POINT('',(0.01325,-0.0065,-0.02825));
#978=CARTESIAN_POINT('',(0.01475,-0.0065,-0.02825));
#979=CARTESIAN_POINT('',(-0.01325,-0.0065,-0.02825));
#980=CARTESIAN_POINT('',(-0.01325,-0.0065,-0.02825));
#981=CARTESIAN_POINT('',(-0.01175,-0.0065,-0.02825));
#982=CARTESIAN_POINT('',(3.46944695195361E-18,-0.0065,0.));
#983=CARTESIAN_POINT('',(0.0155,-0.0065,0.0305));
#984=CARTESIAN_POINT('',(-0.0155,-0.0065,0.0305));
#985=CARTESIAN_POINT('',(-0.0155,-0.0065,-0.0305));
#986=CARTESIAN_POINT('',(-0.008,-0.0065,-0.0305));
#987=CARTESIAN_POINT('',(0.008,-0.0065,-0.0305));
#988=CARTESIAN_POINT('',(0.0155,-0.0065,-0.0305));
#989=CARTESIAN_POINT('',(-0.008,-0.0065,-0.0305));
#990=CARTESIAN_POINT('',(-0.008,-0.001,-0.0305));
#991=CARTESIAN_POINT('',(3.46944695195361E-18,-0.001,-0.0305));
#992=CARTESIAN_POINT('',(0.008,-0.001,-0.0305));
#993=CARTESIAN_POINT('',(0.008,-0.0015,-0.0305));
#994=CARTESIAN_POINT('',(0.0155,-0.0005,0.));
#995=CARTESIAN_POINT('',(0.0155,-0.0005,0.0305));
#996=CARTESIAN_POINT('',(0.0155,-0.0005,-0.0305));
#997=CARTESIAN_POINT('',(-8.67361737988404E-19,-0.0005,-0.0305));
#998=CARTESIAN_POINT('',(-0.0155,-0.0005,-0.0305));
#999=CARTESIAN_POINT('',(0.0155,-0.0005,-0.0305));
#1000=CARTESIAN_POINT('',(1.00830802041152E-17,-0.0005,0.0305));
#1001=CARTESIAN_POINT('',(0.0155,-0.0005,0.0305));
#1002=CARTESIAN_POINT('',(-0.0155,-0.0005,0.0305));
#1003=CARTESIAN_POINT('',(-0.0155,-0.0005,9.51795181509399E-19));
#1004=CARTESIAN_POINT('',(-0.0155,-0.0005,0.0305));
#1005=CARTESIAN_POINT('',(-0.0155,-0.0005,-0.0305));
#1006=CARTESIAN_POINT('',(0.00345,-0.0005,-0.01475));
#1007=CARTESIAN_POINT('',(0.0155,-0.0065,0.0305));
#1008=CARTESIAN_POINT('',(0.0155,-0.0005,0.0305));
#1009=CARTESIAN_POINT('',(0.0155,-0.0005,0.0305));
#1010=CARTESIAN_POINT('',(-0.0155,-0.0065,0.0305));
#1011=CARTESIAN_POINT('',(-0.0155,-0.0005,0.0305));
#1012=CARTESIAN_POINT('',(-0.0155,-0.0005,0.0305));
#1013=CARTESIAN_POINT('',(-0.0155,-0.0015,-0.0305));
#1014=CARTESIAN_POINT('',(-0.0155,-0.0005,-0.0305));
#1015=CARTESIAN_POINT('',(-0.0155,-0.0005,-0.0305));
#1016=CARTESIAN_POINT('',(0.0155,-0.0065,-0.0305));
#1017=CARTESIAN_POINT('',(0.0155,-0.0005,-0.0305));
#1018=CARTESIAN_POINT('',(0.0155,-0.0005,-0.0305));
#1019=MECHANICAL_DESIGN_GEOMETRIC_PRESENTATION_REPRESENTATION('',(#595),#1020);
#1020=(
GEOMETRIC_REPRESENTATION_CONTEXT(3)
GLOBAL_UNCERTAINTY_ASSIGNED_CONTEXT((#1021))
GLOBAL_UNIT_ASSIGNED_CONTEXT((#1024,#1023,#1022))
REPRESENTATION_CONTEXT('Part 1','TOP_LEVEL_ASSEMBLY_PART')
);
#1021=UNCERTAINTY_MEASURE_WITH_UNIT(LENGTH_MEASURE(1.E-08),#1024,'DISTANCE_ACCURACY_VALUE','Maximum Tolerance applied to model');
#1022=(
NAMED_UNIT(*)
SI_UNIT($,.STERADIAN.)
SOLID_ANGLE_UNIT()
);
#1023=(
NAMED_UNIT(*)
PLANE_ANGLE_UNIT()
SI_UNIT($,.RADIAN.)
);
#1024=(
LENGTH_UNIT()
NAMED_UNIT(*)
SI_UNIT($,.METRE.)
);
#1025=PRODUCT_DEFINITION_SHAPE('','',#1026);
#1026=PRODUCT_DEFINITION('','',#1028,#1027);
#1027=PRODUCT_DEFINITION_CONTEXT('',#1034,'design');
#1028=PRODUCT_DEFINITION_FORMATION_WITH_SPECIFIED_SOURCE('','',#1030,.NOT_KNOWN.);
#1029=PRODUCT_RELATED_PRODUCT_CATEGORY('','',(#1030));
#1030=PRODUCT('Part 1','Part 1','Part 1',(#1032));
#1031=PRODUCT_CATEGORY('','');
#1032=PRODUCT_CONTEXT('',#1034,'mechanical');
#1033=APPLICATION_PROTOCOL_DEFINITION('international standard','ap242_managed_model_based_3d_engineering',2020,#1034);
#1034=APPLICATION_CONTEXT('managed model based 3d engineering');
ENDSEC;
END-ISO-10303-21;
