ISO-10303-21;
HEADER;
/*Generated by software containing ST-Developer
 * from STEP Tools, Inc. (www.steptools.com) 
 */
/*OPTION: using custom renumber hook */
/*description */
/*implementation_level */
FILE_DESCRIPTION(('STEP AP242 Edition 2','STEP AP242 Edition 2''CAx-IF Rec.Pracs.---Representation and Presentation of Product Manufa
cturing Information (PMI)---4.0---2014-10-13','STEP AP242 Edition 2''CAx-IF Rec.Pracs.---Representation and Presentation of Product Manufa
cturing Information (PMI)---4.0---2014-10-13''CAx-IF Rec.Pracs.---3D Tessellated Geometry---0.4---2014-09-14','STEP AP242 Edition 2''CAx-IF Rec.Pracs.---Representation and Presentation of Product Manufa
cturing Information (PMI)---4.0---2014-10-13''CAx-IF Rec.Pracs.---3D Tessellated Geometry---0.4---2014-09-14''2;1','STEP AP242 Edition 2''CAx-IF Rec.Pracs.---Representation and Presentation of Product Manufa
cturing Information (PMI)---4.0---2014-10-13''CAx-IF Rec.Pracs.---3D Tessellated Geometry---0.4---2014-09-14''2;1''CAx-IF Rec.Pracs.---User Defined Attributes---1.5---2016-08-15'),'2;1');
/*name */
/*time_stamp */
/*author */
/*organization */
/*preprocessor_version */
/*originating_system */
/*authorisation */
FILE_NAME('/vol/tmp/translate-11983087736105880917/Bottom.step','2026-03-15T00:37:50',(''),(''),'ST-DEVELOPER v20','ONSHAPE BY PTC INC, 1.212','  ');
FILE_SCHEMA(('AP242_MANAGED_MODEL_BASED_3D_ENGINEERING_MIM_LF { 1 0 10303 442 3 1 4 }'));
ENDSEC;
DATA;
#10=SHAPE_REPRESENTATION_RELATIONSHIP('','',#850,#11);
#11=ADVANCED_BREP_SHAPE_REPRESENTATION('',(#848),#1390);
#12=ELLIPSE('',#919,0.000707106781186548,0.0005);
#13=ELLIPSE('',#920,0.000707106781186548,0.0005);
#14=SPHERICAL_SURFACE('',#898,0.0005);
#15=SPHERICAL_SURFACE('',#906,0.0005);
#16=SPHERICAL_SURFACE('',#908,0.0005);
#17=SPHERICAL_SURFACE('',#914,0.0005);
#18=CYLINDRICAL_SURFACE('',#877,0.0015);
#19=CYLINDRICAL_SURFACE('',#879,0.0015);
#20=CYLINDRICAL_SURFACE('',#881,0.0015);
#21=CYLINDRICAL_SURFACE('',#884,0.0015);
#22=CYLINDRICAL_SURFACE('',#893,0.0005);
#23=CYLINDRICAL_SURFACE('',#895,0.0005);
#24=CYLINDRICAL_SURFACE('',#900,0.0005);
#25=CYLINDRICAL_SURFACE('',#902,0.0005);
#26=CYLINDRICAL_SURFACE('',#904,0.0005);
#27=CYLINDRICAL_SURFACE('',#910,0.0005);
#28=CYLINDRICAL_SURFACE('',#912,0.0005);
#29=CYLINDRICAL_SURFACE('',#916,0.0005);
#30=CYLINDRICAL_SURFACE('',#918,0.0005);
#31=CYLINDRICAL_SURFACE('',#921,0.0005);
#32=CYLINDRICAL_SURFACE('',#922,0.0005);
#33=CIRCLE('',#864,0.0015);
#34=CIRCLE('',#865,0.0015);
#35=CIRCLE('',#866,0.0015);
#36=CIRCLE('',#867,0.0015);
#37=CIRCLE('',#878,0.0015);
#38=CIRCLE('',#880,0.0015);
#39=CIRCLE('',#882,0.0015);
#40=CIRCLE('',#885,0.0015);
#41=CIRCLE('',#887,0.0005);
#42=CIRCLE('',#888,0.0005);
#43=CIRCLE('',#889,0.0005);
#44=CIRCLE('',#890,0.0005);
#45=CIRCLE('',#891,0.0005);
#46=CIRCLE('',#892,0.0005);
#47=CIRCLE('',#894,0.0005);
#48=CIRCLE('',#896,0.0005);
#49=CIRCLE('',#897,0.0005);
#50=CIRCLE('',#899,0.0005);
#51=CIRCLE('',#901,0.0005);
#52=CIRCLE('',#903,0.0005);
#53=CIRCLE('',#905,0.0005);
#54=CIRCLE('',#907,0.0005);
#55=CIRCLE('',#909,0.0005);
#56=CIRCLE('',#911,0.0005);
#57=CIRCLE('',#913,0.0005);
#58=CIRCLE('',#915,0.0005);
#59=ORIENTED_EDGE('',*,*,#289,.T.);
#60=ORIENTED_EDGE('',*,*,#290,.F.);
#61=ORIENTED_EDGE('',*,*,#291,.F.);
#62=ORIENTED_EDGE('',*,*,#292,.T.);
#63=ORIENTED_EDGE('',*,*,#293,.F.);
#64=ORIENTED_EDGE('',*,*,#294,.F.);
#65=ORIENTED_EDGE('',*,*,#295,.T.);
#66=ORIENTED_EDGE('',*,*,#296,.T.);
#67=ORIENTED_EDGE('',*,*,#297,.F.);
#68=ORIENTED_EDGE('',*,*,#298,.F.);
#69=ORIENTED_EDGE('',*,*,#299,.T.);
#70=ORIENTED_EDGE('',*,*,#294,.T.);
#71=ORIENTED_EDGE('',*,*,#300,.T.);
#72=ORIENTED_EDGE('',*,*,#301,.F.);
#73=ORIENTED_EDGE('',*,*,#302,.F.);
#74=ORIENTED_EDGE('',*,*,#298,.T.);
#75=ORIENTED_EDGE('',*,*,#303,.F.);
#76=ORIENTED_EDGE('',*,*,#304,.F.);
#77=ORIENTED_EDGE('',*,*,#305,.T.);
#78=ORIENTED_EDGE('',*,*,#306,.T.);
#79=ORIENTED_EDGE('',*,*,#307,.F.);
#80=ORIENTED_EDGE('',*,*,#308,.F.);
#81=ORIENTED_EDGE('',*,*,#309,.T.);
#82=ORIENTED_EDGE('',*,*,#310,.T.);
#83=ORIENTED_EDGE('',*,*,#311,.T.);
#84=ORIENTED_EDGE('',*,*,#312,.F.);
#85=ORIENTED_EDGE('',*,*,#313,.F.);
#86=ORIENTED_EDGE('',*,*,#308,.T.);
#87=ORIENTED_EDGE('',*,*,#314,.T.);
#88=ORIENTED_EDGE('',*,*,#315,.F.);
#89=ORIENTED_EDGE('',*,*,#316,.F.);
#90=ORIENTED_EDGE('',*,*,#312,.T.);
#91=ORIENTED_EDGE('',*,*,#317,.F.);
#92=ORIENTED_EDGE('',*,*,#310,.F.);
#93=ORIENTED_EDGE('',*,*,#318,.T.);
#94=ORIENTED_EDGE('',*,*,#315,.T.);
#95=ORIENTED_EDGE('',*,*,#319,.T.);
#96=ORIENTED_EDGE('',*,*,#292,.F.);
#97=ORIENTED_EDGE('',*,*,#320,.F.);
#98=ORIENTED_EDGE('',*,*,#304,.T.);
#99=ORIENTED_EDGE('',*,*,#309,.F.);
#100=ORIENTED_EDGE('',*,*,#313,.T.);
#101=ORIENTED_EDGE('',*,*,#316,.T.);
#102=ORIENTED_EDGE('',*,*,#318,.F.);
#103=ORIENTED_EDGE('',*,*,#291,.T.);
#104=ORIENTED_EDGE('',*,*,#321,.T.);
#105=ORIENTED_EDGE('',*,*,#295,.F.);
#106=ORIENTED_EDGE('',*,*,#299,.F.);
#107=ORIENTED_EDGE('',*,*,#302,.T.);
#108=ORIENTED_EDGE('',*,*,#322,.T.);
#109=ORIENTED_EDGE('',*,*,#305,.F.);
#110=ORIENTED_EDGE('',*,*,#320,.T.);
#111=ORIENTED_EDGE('',*,*,#323,.F.);
#112=ORIENTED_EDGE('',*,*,#324,.T.);
#113=ORIENTED_EDGE('',*,*,#325,.T.);
#114=ORIENTED_EDGE('',*,*,#300,.F.);
#115=ORIENTED_EDGE('',*,*,#297,.T.);
#116=ORIENTED_EDGE('',*,*,#293,.T.);
#117=ORIENTED_EDGE('',*,*,#326,.T.);
#118=ORIENTED_EDGE('',*,*,#327,.F.);
#119=ORIENTED_EDGE('',*,*,#328,.T.);
#120=ORIENTED_EDGE('',*,*,#329,.T.);
#121=ORIENTED_EDGE('',*,*,#330,.T.);
#122=ORIENTED_EDGE('',*,*,#331,.T.);
#123=ORIENTED_EDGE('',*,*,#332,.T.);
#124=ORIENTED_EDGE('',*,*,#333,.T.);
#125=ORIENTED_EDGE('',*,*,#307,.T.);
#126=ORIENTED_EDGE('',*,*,#317,.T.);
#127=ORIENTED_EDGE('',*,*,#314,.F.);
#128=ORIENTED_EDGE('',*,*,#311,.F.);
#129=ORIENTED_EDGE('',*,*,#289,.F.);
#130=ORIENTED_EDGE('',*,*,#319,.F.);
#131=ORIENTED_EDGE('',*,*,#303,.T.);
#132=ORIENTED_EDGE('',*,*,#334,.T.);
#133=ORIENTED_EDGE('',*,*,#335,.T.);
#134=ORIENTED_EDGE('',*,*,#336,.F.);
#135=ORIENTED_EDGE('',*,*,#337,.F.);
#136=ORIENTED_EDGE('',*,*,#338,.T.);
#137=ORIENTED_EDGE('',*,*,#296,.F.);
#138=ORIENTED_EDGE('',*,*,#321,.F.);
#139=ORIENTED_EDGE('',*,*,#290,.T.);
#140=ORIENTED_EDGE('',*,*,#334,.F.);
#141=ORIENTED_EDGE('',*,*,#306,.F.);
#142=ORIENTED_EDGE('',*,*,#322,.F.);
#143=ORIENTED_EDGE('',*,*,#301,.T.);
#144=ORIENTED_EDGE('',*,*,#325,.F.);
#145=ORIENTED_EDGE('',*,*,#339,.F.);
#146=ORIENTED_EDGE('',*,*,#340,.T.);
#147=ORIENTED_EDGE('',*,*,#341,.T.);
#148=ORIENTED_EDGE('',*,*,#326,.F.);
#149=ORIENTED_EDGE('',*,*,#342,.T.);
#150=ORIENTED_EDGE('',*,*,#343,.T.);
#151=ORIENTED_EDGE('',*,*,#344,.T.);
#152=ORIENTED_EDGE('',*,*,#345,.T.);
#153=ORIENTED_EDGE('',*,*,#346,.F.);
#154=ORIENTED_EDGE('',*,*,#347,.T.);
#155=ORIENTED_EDGE('',*,*,#348,.T.);
#156=ORIENTED_EDGE('',*,*,#349,.T.);
#157=ORIENTED_EDGE('',*,*,#350,.T.);
#158=ORIENTED_EDGE('',*,*,#351,.T.);
#159=ORIENTED_EDGE('',*,*,#352,.T.);
#160=ORIENTED_EDGE('',*,*,#353,.T.);
#161=ORIENTED_EDGE('',*,*,#354,.T.);
#162=ORIENTED_EDGE('',*,*,#355,.T.);
#163=ORIENTED_EDGE('',*,*,#356,.F.);
#164=ORIENTED_EDGE('',*,*,#357,.T.);
#165=ORIENTED_EDGE('',*,*,#358,.T.);
#166=ORIENTED_EDGE('',*,*,#359,.T.);
#167=ORIENTED_EDGE('',*,*,#360,.T.);
#168=ORIENTED_EDGE('',*,*,#361,.T.);
#169=ORIENTED_EDGE('',*,*,#362,.F.);
#170=ORIENTED_EDGE('',*,*,#363,.T.);
#171=ORIENTED_EDGE('',*,*,#364,.F.);
#172=ORIENTED_EDGE('',*,*,#365,.T.);
#173=ORIENTED_EDGE('',*,*,#366,.T.);
#174=ORIENTED_EDGE('',*,*,#367,.F.);
#175=ORIENTED_EDGE('',*,*,#323,.T.);
#176=ORIENTED_EDGE('',*,*,#368,.F.);
#177=ORIENTED_EDGE('',*,*,#369,.F.);
#178=ORIENTED_EDGE('',*,*,#367,.T.);
#179=ORIENTED_EDGE('',*,*,#370,.F.);
#180=ORIENTED_EDGE('',*,*,#371,.F.);
#181=ORIENTED_EDGE('',*,*,#372,.F.);
#182=ORIENTED_EDGE('',*,*,#373,.T.);
#183=ORIENTED_EDGE('',*,*,#327,.T.);
#184=ORIENTED_EDGE('',*,*,#341,.F.);
#185=ORIENTED_EDGE('',*,*,#374,.F.);
#186=ORIENTED_EDGE('',*,*,#368,.T.);
#187=ORIENTED_EDGE('',*,*,#324,.F.);
#188=ORIENTED_EDGE('',*,*,#373,.F.);
#189=ORIENTED_EDGE('',*,*,#375,.T.);
#190=ORIENTED_EDGE('',*,*,#339,.T.);
#191=ORIENTED_EDGE('',*,*,#376,.F.);
#192=ORIENTED_EDGE('',*,*,#337,.T.);
#193=ORIENTED_EDGE('',*,*,#377,.F.);
#194=ORIENTED_EDGE('',*,*,#336,.T.);
#195=ORIENTED_EDGE('',*,*,#378,.T.);
#196=ORIENTED_EDGE('',*,*,#335,.F.);
#197=ORIENTED_EDGE('',*,*,#379,.F.);
#198=ORIENTED_EDGE('',*,*,#380,.T.);
#199=ORIENTED_EDGE('',*,*,#381,.T.);
#200=ORIENTED_EDGE('',*,*,#371,.T.);
#201=ORIENTED_EDGE('',*,*,#382,.T.);
#202=ORIENTED_EDGE('',*,*,#338,.F.);
#203=ORIENTED_EDGE('',*,*,#381,.F.);
#204=ORIENTED_EDGE('',*,*,#383,.T.);
#205=ORIENTED_EDGE('',*,*,#342,.F.);
#206=ORIENTED_EDGE('',*,*,#384,.T.);
#207=ORIENTED_EDGE('',*,*,#354,.F.);
#208=ORIENTED_EDGE('',*,*,#385,.T.);
#209=ORIENTED_EDGE('',*,*,#356,.T.);
#210=ORIENTED_EDGE('',*,*,#386,.T.);
#211=ORIENTED_EDGE('',*,*,#362,.T.);
#212=ORIENTED_EDGE('',*,*,#387,.T.);
#213=ORIENTED_EDGE('',*,*,#346,.T.);
#214=ORIENTED_EDGE('',*,*,#388,.T.);
#215=ORIENTED_EDGE('',*,*,#364,.T.);
#216=ORIENTED_EDGE('',*,*,#369,.T.);
#217=ORIENTED_EDGE('',*,*,#374,.T.);
#218=ORIENTED_EDGE('',*,*,#340,.F.);
#219=ORIENTED_EDGE('',*,*,#375,.F.);
#220=ORIENTED_EDGE('',*,*,#372,.T.);
#221=ORIENTED_EDGE('',*,*,#378,.F.);
#222=ORIENTED_EDGE('',*,*,#377,.T.);
#223=ORIENTED_EDGE('',*,*,#376,.T.);
#224=ORIENTED_EDGE('',*,*,#382,.F.);
#225=ORIENTED_EDGE('',*,*,#387,.F.);
#226=ORIENTED_EDGE('',*,*,#361,.F.);
#227=ORIENTED_EDGE('',*,*,#389,.F.);
#228=ORIENTED_EDGE('',*,*,#347,.F.);
#229=ORIENTED_EDGE('',*,*,#330,.F.);
#230=ORIENTED_EDGE('',*,*,#329,.F.);
#231=ORIENTED_EDGE('',*,*,#328,.F.);
#232=ORIENTED_EDGE('',*,*,#390,.F.);
#233=ORIENTED_EDGE('',*,*,#350,.F.);
#234=ORIENTED_EDGE('',*,*,#349,.F.);
#235=ORIENTED_EDGE('',*,*,#348,.F.);
#236=ORIENTED_EDGE('',*,*,#391,.F.);
#237=ORIENTED_EDGE('',*,*,#391,.T.);
#238=ORIENTED_EDGE('',*,*,#389,.T.);
#239=ORIENTED_EDGE('',*,*,#392,.F.);
#240=ORIENTED_EDGE('',*,*,#386,.F.);
#241=ORIENTED_EDGE('',*,*,#359,.F.);
#242=ORIENTED_EDGE('',*,*,#393,.F.);
#243=ORIENTED_EDGE('',*,*,#363,.F.);
#244=ORIENTED_EDGE('',*,*,#392,.T.);
#245=ORIENTED_EDGE('',*,*,#360,.F.);
#246=ORIENTED_EDGE('',*,*,#394,.F.);
#247=ORIENTED_EDGE('',*,*,#331,.F.);
#248=ORIENTED_EDGE('',*,*,#384,.F.);
#249=ORIENTED_EDGE('',*,*,#351,.F.);
#250=ORIENTED_EDGE('',*,*,#395,.F.);
#251=ORIENTED_EDGE('',*,*,#355,.F.);
#252=ORIENTED_EDGE('',*,*,#394,.T.);
#253=ORIENTED_EDGE('',*,*,#393,.T.);
#254=ORIENTED_EDGE('',*,*,#396,.F.);
#255=ORIENTED_EDGE('',*,*,#395,.T.);
#256=ORIENTED_EDGE('',*,*,#390,.T.);
#257=ORIENTED_EDGE('',*,*,#397,.F.);
#258=ORIENTED_EDGE('',*,*,#396,.T.);
#259=ORIENTED_EDGE('',*,*,#358,.F.);
#260=ORIENTED_EDGE('',*,*,#398,.F.);
#261=ORIENTED_EDGE('',*,*,#332,.F.);
#262=ORIENTED_EDGE('',*,*,#397,.T.);
#263=ORIENTED_EDGE('',*,*,#333,.F.);
#264=ORIENTED_EDGE('',*,*,#399,.F.);
#265=ORIENTED_EDGE('',*,*,#352,.F.);
#266=ORIENTED_EDGE('',*,*,#399,.T.);
#267=ORIENTED_EDGE('',*,*,#398,.T.);
#268=ORIENTED_EDGE('',*,*,#400,.F.);
#269=ORIENTED_EDGE('',*,*,#385,.F.);
#270=ORIENTED_EDGE('',*,*,#353,.F.);
#271=ORIENTED_EDGE('',*,*,#400,.T.);
#272=ORIENTED_EDGE('',*,*,#357,.F.);
#273=ORIENTED_EDGE('',*,*,#366,.F.);
#274=ORIENTED_EDGE('',*,*,#401,.T.);
#275=ORIENTED_EDGE('',*,*,#379,.T.);
#276=ORIENTED_EDGE('',*,*,#370,.T.);
#277=ORIENTED_EDGE('',*,*,#344,.F.);
#278=ORIENTED_EDGE('',*,*,#402,.T.);
#279=ORIENTED_EDGE('',*,*,#401,.F.);
#280=ORIENTED_EDGE('',*,*,#403,.T.);
#281=ORIENTED_EDGE('',*,*,#383,.F.);
#282=ORIENTED_EDGE('',*,*,#380,.F.);
#283=ORIENTED_EDGE('',*,*,#402,.F.);
#284=ORIENTED_EDGE('',*,*,#343,.F.);
#285=ORIENTED_EDGE('',*,*,#388,.F.);
#286=ORIENTED_EDGE('',*,*,#345,.F.);
#287=ORIENTED_EDGE('',*,*,#403,.F.);
#288=ORIENTED_EDGE('',*,*,#365,.F.);
#289=EDGE_CURVE('',#404,#405,#480,.T.);
#290=EDGE_CURVE('',#406,#405,#481,.T.);
#291=EDGE_CURVE('',#407,#406,#482,.T.);
#292=EDGE_CURVE('',#407,#404,#483,.T.);
#293=EDGE_CURVE('',#408,#409,#484,.T.);
#294=EDGE_CURVE('',#410,#408,#485,.T.);
#295=EDGE_CURVE('',#410,#411,#486,.T.);
#296=EDGE_CURVE('',#411,#409,#487,.T.);
#297=EDGE_CURVE('',#412,#408,#488,.T.);
#298=EDGE_CURVE('',#413,#412,#489,.T.);
#299=EDGE_CURVE('',#413,#410,#490,.T.);
#300=EDGE_CURVE('',#412,#414,#491,.T.);
#301=EDGE_CURVE('',#415,#414,#492,.T.);
#302=EDGE_CURVE('',#413,#415,#493,.T.);
#303=EDGE_CURVE('',#416,#417,#494,.T.);
#304=EDGE_CURVE('',#418,#416,#495,.T.);
#305=EDGE_CURVE('',#418,#419,#496,.T.);
#306=EDGE_CURVE('',#419,#417,#497,.T.);
#307=EDGE_CURVE('',#420,#421,#498,.T.);
#308=EDGE_CURVE('',#422,#420,#499,.T.);
#309=EDGE_CURVE('',#422,#423,#500,.T.);
#310=EDGE_CURVE('',#423,#421,#501,.T.);
#311=EDGE_CURVE('',#420,#424,#502,.T.);
#312=EDGE_CURVE('',#425,#424,#503,.T.);
#313=EDGE_CURVE('',#422,#425,#504,.T.);
#314=EDGE_CURVE('',#424,#426,#505,.T.);
#315=EDGE_CURVE('',#427,#426,#506,.T.);
#316=EDGE_CURVE('',#425,#427,#507,.T.);
#317=EDGE_CURVE('',#421,#426,#508,.T.);
#318=EDGE_CURVE('',#423,#427,#509,.T.);
#319=EDGE_CURVE('',#416,#404,#510,.T.);
#320=EDGE_CURVE('',#418,#407,#511,.T.);
#321=EDGE_CURVE('',#406,#411,#512,.T.);
#322=EDGE_CURVE('',#415,#419,#513,.T.);
#323=EDGE_CURVE('',#428,#429,#514,.T.);
#324=EDGE_CURVE('',#428,#430,#515,.T.);
#325=EDGE_CURVE('',#430,#414,#516,.T.);
#326=EDGE_CURVE('',#409,#431,#517,.T.);
#327=EDGE_CURVE('',#429,#431,#518,.T.);
#328=EDGE_CURVE('',#432,#433,#519,.T.);
#329=EDGE_CURVE('',#433,#434,#520,.T.);
#330=EDGE_CURVE('',#434,#435,#521,.F.);
#331=EDGE_CURVE('',#435,#436,#522,.F.);
#332=EDGE_CURVE('',#436,#437,#523,.F.);
#333=EDGE_CURVE('',#437,#432,#524,.T.);
#334=EDGE_CURVE('',#417,#405,#525,.T.);
#335=EDGE_CURVE('',#438,#438,#33,.T.);
#336=EDGE_CURVE('',#439,#439,#34,.T.);
#337=EDGE_CURVE('',#440,#440,#35,.T.);
#338=EDGE_CURVE('',#441,#441,#36,.T.);
#339=EDGE_CURVE('',#442,#430,#526,.T.);
#340=EDGE_CURVE('',#442,#443,#527,.T.);
#341=EDGE_CURVE('',#443,#431,#528,.T.);
#342=EDGE_CURVE('',#444,#445,#529,.T.);
#343=EDGE_CURVE('',#445,#446,#530,.T.);
#344=EDGE_CURVE('',#446,#447,#531,.T.);
#345=EDGE_CURVE('',#447,#448,#532,.F.);
#346=EDGE_CURVE('',#449,#448,#533,.T.);
#347=EDGE_CURVE('',#449,#450,#534,.T.);
#348=EDGE_CURVE('',#450,#451,#535,.T.);
#349=EDGE_CURVE('',#451,#452,#536,.F.);
#350=EDGE_CURVE('',#452,#453,#537,.F.);
#351=EDGE_CURVE('',#453,#444,#538,.F.);
#352=EDGE_CURVE('',#454,#455,#539,.F.);
#353=EDGE_CURVE('',#455,#456,#540,.F.);
#354=EDGE_CURVE('',#456,#457,#541,.T.);
#355=EDGE_CURVE('',#457,#454,#542,.T.);
#356=EDGE_CURVE('',#458,#459,#543,.T.);
#357=EDGE_CURVE('',#458,#460,#544,.T.);
#358=EDGE_CURVE('',#460,#461,#545,.T.);
#359=EDGE_CURVE('',#461,#459,#546,.F.);
#360=EDGE_CURVE('',#462,#463,#547,.T.);
#361=EDGE_CURVE('',#463,#464,#548,.F.);
#362=EDGE_CURVE('',#465,#464,#549,.T.);
#363=EDGE_CURVE('',#465,#462,#550,.T.);
#364=EDGE_CURVE('',#466,#467,#551,.T.);
#365=EDGE_CURVE('',#466,#468,#552,.T.);
#366=EDGE_CURVE('',#468,#469,#553,.T.);
#367=EDGE_CURVE('',#467,#469,#554,.T.);
#368=EDGE_CURVE('',#470,#429,#555,.T.);
#369=EDGE_CURVE('',#467,#470,#556,.T.);
#370=EDGE_CURVE('',#471,#469,#557,.T.);
#371=EDGE_CURVE('',#472,#471,#558,.T.);
#372=EDGE_CURVE('',#473,#472,#559,.T.);
#373=EDGE_CURVE('',#473,#428,#560,.T.);
#374=EDGE_CURVE('',#470,#443,#561,.T.);
#375=EDGE_CURVE('',#473,#442,#562,.T.);
#376=EDGE_CURVE('',#474,#474,#37,.T.);
#377=EDGE_CURVE('',#475,#475,#38,.T.);
#378=EDGE_CURVE('',#476,#476,#39,.T.);
#379=EDGE_CURVE('',#477,#471,#563,.T.);
#380=EDGE_CURVE('',#477,#478,#564,.F.);
#381=EDGE_CURVE('',#478,#472,#565,.T.);
#382=EDGE_CURVE('',#479,#479,#40,.T.);
#383=EDGE_CURVE('',#478,#445,#41,.T.);
#384=EDGE_CURVE('',#444,#457,#42,.T.);
#385=EDGE_CURVE('',#456,#458,#43,.T.);
#386=EDGE_CURVE('',#459,#465,#44,.T.);
#387=EDGE_CURVE('',#464,#449,#45,.T.);
#388=EDGE_CURVE('',#448,#466,#46,.T.);
#389=EDGE_CURVE('',#450,#463,#47,.T.);
#390=EDGE_CURVE('',#453,#432,#48,.T.);
#391=EDGE_CURVE('',#435,#450,#49,.T.);
#392=EDGE_CURVE('',#435,#463,#50,.F.);
#393=EDGE_CURVE('',#462,#461,#51,.T.);
#394=EDGE_CURVE('',#436,#462,#52,.T.);
#395=EDGE_CURVE('',#454,#453,#53,.T.);
#396=EDGE_CURVE('',#436,#461,#54,.F.);
#397=EDGE_CURVE('',#454,#432,#55,.F.);
#398=EDGE_CURVE('',#437,#460,#56,.T.);
#399=EDGE_CURVE('',#455,#437,#57,.T.);
#400=EDGE_CURVE('',#455,#460,#58,.F.);
#401=EDGE_CURVE('',#468,#477,#566,.F.);
#402=EDGE_CURVE('',#446,#477,#12,.T.);
#403=EDGE_CURVE('',#468,#447,#13,.F.);
#404=VERTEX_POINT('',#1157);
#405=VERTEX_POINT('',#1158);
#406=VERTEX_POINT('',#1160);
#407=VERTEX_POINT('',#1162);
#408=VERTEX_POINT('',#1166);
#409=VERTEX_POINT('',#1167);
#410=VERTEX_POINT('',#1169);
#411=VERTEX_POINT('',#1171);
#412=VERTEX_POINT('',#1175);
#413=VERTEX_POINT('',#1177);
#414=VERTEX_POINT('',#1181);
#415=VERTEX_POINT('',#1183);
#416=VERTEX_POINT('',#1187);
#417=VERTEX_POINT('',#1188);
#418=VERTEX_POINT('',#1190);
#419=VERTEX_POINT('',#1192);
#420=VERTEX_POINT('',#1196);
#421=VERTEX_POINT('',#1197);
#422=VERTEX_POINT('',#1199);
#423=VERTEX_POINT('',#1201);
#424=VERTEX_POINT('',#1205);
#425=VERTEX_POINT('',#1207);
#426=VERTEX_POINT('',#1211);
#427=VERTEX_POINT('',#1213);
#428=VERTEX_POINT('',#1226);
#429=VERTEX_POINT('',#1227);
#430=VERTEX_POINT('',#1229);
#431=VERTEX_POINT('',#1232);
#432=VERTEX_POINT('',#1235);
#433=VERTEX_POINT('',#1236);
#434=VERTEX_POINT('',#1238);
#435=VERTEX_POINT('',#1240);
#436=VERTEX_POINT('',#1242);
#437=VERTEX_POINT('',#1244);
#438=VERTEX_POINT('',#1248);
#439=VERTEX_POINT('',#1250);
#440=VERTEX_POINT('',#1252);
#441=VERTEX_POINT('',#1254);
#442=VERTEX_POINT('',#1257);
#443=VERTEX_POINT('',#1259);
#444=VERTEX_POINT('',#1263);
#445=VERTEX_POINT('',#1264);
#446=VERTEX_POINT('',#1266);
#447=VERTEX_POINT('',#1268);
#448=VERTEX_POINT('',#1270);
#449=VERTEX_POINT('',#1272);
#450=VERTEX_POINT('',#1274);
#451=VERTEX_POINT('',#1276);
#452=VERTEX_POINT('',#1278);
#453=VERTEX_POINT('',#1280);
#454=VERTEX_POINT('',#1284);
#455=VERTEX_POINT('',#1285);
#456=VERTEX_POINT('',#1287);
#457=VERTEX_POINT('',#1289);
#458=VERTEX_POINT('',#1293);
#459=VERTEX_POINT('',#1294);
#460=VERTEX_POINT('',#1296);
#461=VERTEX_POINT('',#1298);
#462=VERTEX_POINT('',#1302);
#463=VERTEX_POINT('',#1303);
#464=VERTEX_POINT('',#1305);
#465=VERTEX_POINT('',#1307);
#466=VERTEX_POINT('',#1311);
#467=VERTEX_POINT('',#1312);
#468=VERTEX_POINT('',#1314);
#469=VERTEX_POINT('',#1316);
#470=VERTEX_POINT('',#1320);
#471=VERTEX_POINT('',#1323);
#472=VERTEX_POINT('',#1325);
#473=VERTEX_POINT('',#1327);
#474=VERTEX_POINT('',#1335);
#475=VERTEX_POINT('',#1338);
#476=VERTEX_POINT('',#1341);
#477=VERTEX_POINT('',#1344);
#478=VERTEX_POINT('',#1346);
#479=VERTEX_POINT('',#1350);
#480=LINE('',#1156,#567);
#481=LINE('',#1159,#568);
#482=LINE('',#1161,#569);
#483=LINE('',#1163,#570);
#484=LINE('',#1165,#571);
#485=LINE('',#1168,#572);
#486=LINE('',#1170,#573);
#487=LINE('',#1172,#574);
#488=LINE('',#1174,#575);
#489=LINE('',#1176,#576);
#490=LINE('',#1178,#577);
#491=LINE('',#1180,#578);
#492=LINE('',#1182,#579);
#493=LINE('',#1184,#580);
#494=LINE('',#1186,#581);
#495=LINE('',#1189,#582);
#496=LINE('',#1191,#583);
#497=LINE('',#1193,#584);
#498=LINE('',#1195,#585);
#499=LINE('',#1198,#586);
#500=LINE('',#1200,#587);
#501=LINE('',#1202,#588);
#502=LINE('',#1204,#589);
#503=LINE('',#1206,#590);
#504=LINE('',#1208,#591);
#505=LINE('',#1210,#592);
#506=LINE('',#1212,#593);
#507=LINE('',#1214,#594);
#508=LINE('',#1216,#595);
#509=LINE('',#1217,#596);
#510=LINE('',#1219,#597);
#511=LINE('',#1220,#598);
#512=LINE('',#1222,#599);
#513=LINE('',#1223,#600);
#514=LINE('',#1225,#601);
#515=LINE('',#1228,#602);
#516=LINE('',#1230,#603);
#517=LINE('',#1231,#604);
#518=LINE('',#1233,#605);
#519=LINE('',#1234,#606);
#520=LINE('',#1237,#607);
#521=LINE('',#1239,#608);
#522=LINE('',#1241,#609);
#523=LINE('',#1243,#610);
#524=LINE('',#1245,#611);
#525=LINE('',#1246,#612);
#526=LINE('',#1256,#613);
#527=LINE('',#1258,#614);
#528=LINE('',#1260,#615);
#529=LINE('',#1262,#616);
#530=LINE('',#1265,#617);
#531=LINE('',#1267,#618);
#532=LINE('',#1269,#619);
#533=LINE('',#1271,#620);
#534=LINE('',#1273,#621);
#535=LINE('',#1275,#622);
#536=LINE('',#1277,#623);
#537=LINE('',#1279,#624);
#538=LINE('',#1281,#625);
#539=LINE('',#1283,#626);
#540=LINE('',#1286,#627);
#541=LINE('',#1288,#628);
#542=LINE('',#1290,#629);
#543=LINE('',#1292,#630);
#544=LINE('',#1295,#631);
#545=LINE('',#1297,#632);
#546=LINE('',#1299,#633);
#547=LINE('',#1301,#634);
#548=LINE('',#1304,#635);
#549=LINE('',#1306,#636);
#550=LINE('',#1308,#637);
#551=LINE('',#1310,#638);
#552=LINE('',#1313,#639);
#553=LINE('',#1315,#640);
#554=LINE('',#1317,#641);
#555=LINE('',#1319,#642);
#556=LINE('',#1321,#643);
#557=LINE('',#1322,#644);
#558=LINE('',#1324,#645);
#559=LINE('',#1326,#646);
#560=LINE('',#1328,#647);
#561=LINE('',#1330,#648);
#562=LINE('',#1332,#649);
#563=LINE('',#1343,#650);
#564=LINE('',#1345,#651);
#565=LINE('',#1347,#652);
#566=LINE('',#1383,#653);
#567=VECTOR('',#927,1.);
#568=VECTOR('',#928,1.);
#569=VECTOR('',#929,1.);
#570=VECTOR('',#930,1.);
#571=VECTOR('',#933,1.);
#572=VECTOR('',#934,1.);
#573=VECTOR('',#935,1.);
#574=VECTOR('',#936,1.);
#575=VECTOR('',#939,1.);
#576=VECTOR('',#940,1.);
#577=VECTOR('',#941,1.);
#578=VECTOR('',#944,1.);
#579=VECTOR('',#945,1.);
#580=VECTOR('',#946,1.);
#581=VECTOR('',#949,1.);
#582=VECTOR('',#950,1.);
#583=VECTOR('',#951,1.);
#584=VECTOR('',#952,1.);
#585=VECTOR('',#955,1.);
#586=VECTOR('',#956,1.);
#587=VECTOR('',#957,1.);
#588=VECTOR('',#958,1.);
#589=VECTOR('',#961,1.);
#590=VECTOR('',#962,1.);
#591=VECTOR('',#963,1.);
#592=VECTOR('',#966,1.);
#593=VECTOR('',#967,1.);
#594=VECTOR('',#968,1.);
#595=VECTOR('',#971,1.);
#596=VECTOR('',#972,1.);
#597=VECTOR('',#975,1.);
#598=VECTOR('',#976,1.);
#599=VECTOR('',#979,1.);
#600=VECTOR('',#980,1.);
#601=VECTOR('',#983,1.);
#602=VECTOR('',#984,1.);
#603=VECTOR('',#985,1.);
#604=VECTOR('',#986,1.);
#605=VECTOR('',#987,1.);
#606=VECTOR('',#988,1.);
#607=VECTOR('',#989,1.);
#608=VECTOR('',#990,1.);
#609=VECTOR('',#991,1.);
#610=VECTOR('',#992,1.);
#611=VECTOR('',#993,1.);
#612=VECTOR('',#994,1.);
#613=VECTOR('',#1005,1.);
#614=VECTOR('',#1006,1.);
#615=VECTOR('',#1007,1.);
#616=VECTOR('',#1010,1.);
#617=VECTOR('',#1011,1.);
#618=VECTOR('',#1012,1.);
#619=VECTOR('',#1013,1.);
#620=VECTOR('',#1014,1.);
#621=VECTOR('',#1015,1.);
#622=VECTOR('',#1016,1.);
#623=VECTOR('',#1017,1.);
#624=VECTOR('',#1018,1.);
#625=VECTOR('',#1019,1.);
#626=VECTOR('',#1022,1.);
#627=VECTOR('',#1023,1.);
#628=VECTOR('',#1024,1.);
#629=VECTOR('',#1025,1.);
#630=VECTOR('',#1028,1.);
#631=VECTOR('',#1029,1.);
#632=VECTOR('',#1030,1.);
#633=VECTOR('',#1031,1.);
#634=VECTOR('',#1034,1.);
#635=VECTOR('',#1035,1.);
#636=VECTOR('',#1036,1.);
#637=VECTOR('',#1037,1.);
#638=VECTOR('',#1040,1.);
#639=VECTOR('',#1041,1.);
#640=VECTOR('',#1042,1.);
#641=VECTOR('',#1043,1.);
#642=VECTOR('',#1046,1.);
#643=VECTOR('',#1047,1.);
#644=VECTOR('',#1048,1.);
#645=VECTOR('',#1049,1.);
#646=VECTOR('',#1050,1.);
#647=VECTOR('',#1051,1.);
#648=VECTOR('',#1054,1.);
#649=VECTOR('',#1057,1.);
#650=VECTOR('',#1072,1.);
#651=VECTOR('',#1073,1.);
#652=VECTOR('',#1074,1.);
#653=VECTOR('',#1143,1.);
#654=EDGE_LOOP('',(#59,#60,#61,#62));
#655=EDGE_LOOP('',(#63,#64,#65,#66));
#656=EDGE_LOOP('',(#67,#68,#69,#70));
#657=EDGE_LOOP('',(#71,#72,#73,#74));
#658=EDGE_LOOP('',(#75,#76,#77,#78));
#659=EDGE_LOOP('',(#79,#80,#81,#82));
#660=EDGE_LOOP('',(#83,#84,#85,#86));
#661=EDGE_LOOP('',(#87,#88,#89,#90));
#662=EDGE_LOOP('',(#91,#92,#93,#94));
#663=EDGE_LOOP('',(#95,#96,#97,#98));
#664=EDGE_LOOP('',(#99,#100,#101,#102));
#665=EDGE_LOOP('',(#103,#104,#105,#106,#107,#108,#109,#110));
#666=EDGE_LOOP('',(#111,#112,#113,#114,#115,#116,#117,#118));
#667=EDGE_LOOP('',(#119,#120,#121,#122,#123,#124));
#668=EDGE_LOOP('',(#125,#126,#127,#128));
#669=EDGE_LOOP('',(#129,#130,#131,#132));
#670=EDGE_LOOP('',(#133));
#671=EDGE_LOOP('',(#134));
#672=EDGE_LOOP('',(#135));
#673=EDGE_LOOP('',(#136));
#674=EDGE_LOOP('',(#137,#138,#139,#140,#141,#142,#143,#144,#145,#146,#147,#148));
#675=EDGE_LOOP('',(#149,#150,#151,#152,#153,#154,#155,#156,#157,#158));
#676=EDGE_LOOP('',(#159,#160,#161,#162));
#677=EDGE_LOOP('',(#163,#164,#165,#166));
#678=EDGE_LOOP('',(#167,#168,#169,#170));
#679=EDGE_LOOP('',(#171,#172,#173,#174));
#680=EDGE_LOOP('',(#175,#176,#177,#178,#179,#180,#181,#182));
#681=EDGE_LOOP('',(#183,#184,#185,#186));
#682=EDGE_LOOP('',(#187,#188,#189,#190));
#683=EDGE_LOOP('',(#191));
#684=EDGE_LOOP('',(#192));
#685=EDGE_LOOP('',(#193));
#686=EDGE_LOOP('',(#194));
#687=EDGE_LOOP('',(#195));
#688=EDGE_LOOP('',(#196));
#689=EDGE_LOOP('',(#197,#198,#199,#200));
#690=EDGE_LOOP('',(#201));
#691=EDGE_LOOP('',(#202));
#692=EDGE_LOOP('',(#203,#204,#205,#206,#207,#208,#209,#210,#211,#212,#213,#214,#215,#216,#217,#218,#219,#220));
#693=EDGE_LOOP('',(#221));
#694=EDGE_LOOP('',(#222));
#695=EDGE_LOOP('',(#223));
#696=EDGE_LOOP('',(#224));
#697=EDGE_LOOP('',(#225,#226,#227,#228));
#698=EDGE_LOOP('',(#229,#230,#231,#232,#233,#234,#235,#236));
#699=EDGE_LOOP('',(#237,#238,#239));
#700=EDGE_LOOP('',(#240,#241,#242,#243));
#701=EDGE_LOOP('',(#244,#245,#246,#247));
#702=EDGE_LOOP('',(#248,#249,#250,#251));
#703=EDGE_LOOP('',(#252,#253,#254));
#704=EDGE_LOOP('',(#255,#256,#257));
#705=EDGE_LOOP('',(#258,#259,#260,#261));
#706=EDGE_LOOP('',(#262,#263,#264,#265));
#707=EDGE_LOOP('',(#266,#267,#268));
#708=EDGE_LOOP('',(#269,#270,#271,#272));
#709=EDGE_LOOP('',(#273,#274,#275,#276));
#710=EDGE_LOOP('',(#277,#278,#279,#280));
#711=EDGE_LOOP('',(#281,#282,#283,#284));
#712=EDGE_LOOP('',(#285,#286,#287,#288));
#713=FACE_BOUND('',#654,.T.);
#714=FACE_BOUND('',#655,.T.);
#715=FACE_BOUND('',#656,.T.);
#716=FACE_BOUND('',#657,.T.);
#717=FACE_BOUND('',#658,.T.);
#718=FACE_BOUND('',#659,.T.);
#719=FACE_BOUND('',#660,.T.);
#720=FACE_BOUND('',#661,.T.);
#721=FACE_BOUND('',#662,.T.);
#722=FACE_BOUND('',#663,.T.);
#723=FACE_BOUND('',#664,.T.);
#724=FACE_BOUND('',#665,.T.);
#725=FACE_BOUND('',#666,.T.);
#726=FACE_BOUND('',#667,.T.);
#727=FACE_BOUND('',#668,.T.);
#728=FACE_BOUND('',#669,.T.);
#729=FACE_BOUND('',#670,.T.);
#730=FACE_BOUND('',#671,.T.);
#731=FACE_BOUND('',#672,.T.);
#732=FACE_BOUND('',#673,.T.);
#733=FACE_BOUND('',#674,.T.);
#734=FACE_BOUND('',#675,.T.);
#735=FACE_BOUND('',#676,.T.);
#736=FACE_BOUND('',#677,.T.);
#737=FACE_BOUND('',#678,.T.);
#738=FACE_BOUND('',#679,.T.);
#739=FACE_BOUND('',#680,.T.);
#740=FACE_BOUND('',#681,.T.);
#741=FACE_BOUND('',#682,.T.);
#742=FACE_BOUND('',#683,.T.);
#743=FACE_BOUND('',#684,.T.);
#744=FACE_BOUND('',#685,.T.);
#745=FACE_BOUND('',#686,.T.);
#746=FACE_BOUND('',#687,.T.);
#747=FACE_BOUND('',#688,.T.);
#748=FACE_BOUND('',#689,.T.);
#749=FACE_BOUND('',#690,.T.);
#750=FACE_BOUND('',#691,.T.);
#751=FACE_BOUND('',#692,.T.);
#752=FACE_BOUND('',#693,.T.);
#753=FACE_BOUND('',#694,.T.);
#754=FACE_BOUND('',#695,.T.);
#755=FACE_BOUND('',#696,.T.);
#756=FACE_BOUND('',#697,.T.);
#757=FACE_BOUND('',#698,.T.);
#758=FACE_BOUND('',#699,.T.);
#759=FACE_BOUND('',#700,.T.);
#760=FACE_BOUND('',#701,.T.);
#761=FACE_BOUND('',#702,.T.);
#762=FACE_BOUND('',#703,.T.);
#763=FACE_BOUND('',#704,.T.);
#764=FACE_BOUND('',#705,.T.);
#765=FACE_BOUND('',#706,.T.);
#766=FACE_BOUND('',#707,.T.);
#767=FACE_BOUND('',#708,.T.);
#768=FACE_BOUND('',#709,.T.);
#769=FACE_BOUND('',#710,.T.);
#770=FACE_BOUND('',#711,.T.);
#771=FACE_BOUND('',#712,.T.);
#772=PLANE('',#852);
#773=PLANE('',#853);
#774=PLANE('',#854);
#775=PLANE('',#855);
#776=PLANE('',#856);
#777=PLANE('',#857);
#778=PLANE('',#858);
#779=PLANE('',#859);
#780=PLANE('',#860);
#781=PLANE('',#861);
#782=PLANE('',#862);
#783=PLANE('',#863);
#784=PLANE('',#868);
#785=PLANE('',#869);
#786=PLANE('',#870);
#787=PLANE('',#871);
#788=PLANE('',#872);
#789=PLANE('',#873);
#790=PLANE('',#874);
#791=PLANE('',#875);
#792=PLANE('',#876);
#793=PLANE('',#883);
#794=PLANE('',#886);
#795=PLANE('',#917);
#796=ADVANCED_FACE('',(#713),#772,.F.);
#797=ADVANCED_FACE('',(#714),#773,.T.);
#798=ADVANCED_FACE('',(#715),#774,.T.);
#799=ADVANCED_FACE('',(#716),#775,.F.);
#800=ADVANCED_FACE('',(#717),#776,.T.);
#801=ADVANCED_FACE('',(#718),#777,.T.);
#802=ADVANCED_FACE('',(#719),#778,.F.);
#803=ADVANCED_FACE('',(#720),#779,.F.);
#804=ADVANCED_FACE('',(#721),#780,.T.);
#805=ADVANCED_FACE('',(#722),#781,.F.);
#806=ADVANCED_FACE('',(#723,#724),#782,.T.);
#807=ADVANCED_FACE('',(#725,#726,#727,#728,#729,#730,#731,#732),#783,.F.);
#808=ADVANCED_FACE('',(#733),#784,.T.);
#809=ADVANCED_FACE('',(#734),#785,.T.);
#810=ADVANCED_FACE('',(#735),#786,.T.);
#811=ADVANCED_FACE('',(#736),#787,.F.);
#812=ADVANCED_FACE('',(#737),#788,.F.);
#813=ADVANCED_FACE('',(#738),#789,.F.);
#814=ADVANCED_FACE('',(#739),#790,.F.);
#815=ADVANCED_FACE('',(#740),#791,.F.);
#816=ADVANCED_FACE('',(#741),#792,.T.);
#817=ADVANCED_FACE('',(#742,#743),#18,.F.);
#818=ADVANCED_FACE('',(#744,#745),#19,.F.);
#819=ADVANCED_FACE('',(#746,#747),#20,.F.);
#820=ADVANCED_FACE('',(#748),#793,.T.);
#821=ADVANCED_FACE('',(#749,#750),#21,.F.);
#822=ADVANCED_FACE('',(#751,#752,#753,#754,#755),#794,.T.);
#823=ADVANCED_FACE('',(#756),#22,.T.);
#824=ADVANCED_FACE('',(#757),#23,.T.);
#825=ADVANCED_FACE('',(#758),#14,.T.);
#826=ADVANCED_FACE('',(#759),#24,.T.);
#827=ADVANCED_FACE('',(#760),#25,.T.);
#828=ADVANCED_FACE('',(#761),#26,.T.);
#829=ADVANCED_FACE('',(#762),#15,.T.);
#830=ADVANCED_FACE('',(#763),#16,.T.);
#831=ADVANCED_FACE('',(#764),#27,.T.);
#832=ADVANCED_FACE('',(#765),#28,.T.);
#833=ADVANCED_FACE('',(#766),#17,.T.);
#834=ADVANCED_FACE('',(#767),#29,.T.);
#835=ADVANCED_FACE('',(#768),#795,.T.);
#836=ADVANCED_FACE('',(#769),#30,.T.);
#837=ADVANCED_FACE('',(#770),#31,.T.);
#838=ADVANCED_FACE('',(#771),#32,.T.);
#839=CLOSED_SHELL('',(#796,#797,#798,#799,#800,#801,#802,#803,#804,#805,#806,#807,#808,#809,#810,#811,#812,#813,#814,#815,#816,#817,#818,#819,#820,#821,#822,#823,#824,#825,#826,#827,#828,#829,#830,#831,#832,#833,#834,#835,#836,#837,#838));
#840=STYLED_ITEM('',(#841),#848);
#841=PRESENTATION_STYLE_ASSIGNMENT((#842));
#842=SURFACE_STYLE_USAGE(.BOTH.,#843);
#843=SURFACE_SIDE_STYLE('',(#844));
#844=SURFACE_STYLE_FILL_AREA(#845);
#845=FILL_AREA_STYLE('',(#846));
#846=FILL_AREA_STYLE_COLOUR('',#847);
#847=COLOUR_RGB('',0.615686274509804,0.811764705882353,0.929411764705882);
#848=MANIFOLD_SOLID_BREP('Part 1',#839);
#849=SHAPE_DEFINITION_REPRESENTATION(#1395,#850);
#850=SHAPE_REPRESENTATION('Part 1',(#851),#1390);
#851=AXIS2_PLACEMENT_3D('',#1154,#923,#924);
#852=AXIS2_PLACEMENT_3D('',#1155,#925,#926);
#853=AXIS2_PLACEMENT_3D('',#1164,#931,#932);
#854=AXIS2_PLACEMENT_3D('',#1173,#937,#938);
#855=AXIS2_PLACEMENT_3D('',#1179,#942,#943);
#856=AXIS2_PLACEMENT_3D('',#1185,#947,#948);
#857=AXIS2_PLACEMENT_3D('',#1194,#953,#954);
#858=AXIS2_PLACEMENT_3D('',#1203,#959,#960);
#859=AXIS2_PLACEMENT_3D('',#1209,#964,#965);
#860=AXIS2_PLACEMENT_3D('',#1215,#969,#970);
#861=AXIS2_PLACEMENT_3D('',#1218,#973,#974);
#862=AXIS2_PLACEMENT_3D('',#1221,#977,#978);
#863=AXIS2_PLACEMENT_3D('',#1224,#981,#982);
#864=AXIS2_PLACEMENT_3D('',#1247,#995,#996);
#865=AXIS2_PLACEMENT_3D('',#1249,#997,#998);
#866=AXIS2_PLACEMENT_3D('',#1251,#999,#1000);
#867=AXIS2_PLACEMENT_3D('',#1253,#1001,#1002);
#868=AXIS2_PLACEMENT_3D('',#1255,#1003,#1004);
#869=AXIS2_PLACEMENT_3D('',#1261,#1008,#1009);
#870=AXIS2_PLACEMENT_3D('',#1282,#1020,#1021);
#871=AXIS2_PLACEMENT_3D('',#1291,#1026,#1027);
#872=AXIS2_PLACEMENT_3D('',#1300,#1032,#1033);
#873=AXIS2_PLACEMENT_3D('',#1309,#1038,#1039);
#874=AXIS2_PLACEMENT_3D('',#1318,#1044,#1045);
#875=AXIS2_PLACEMENT_3D('',#1329,#1052,#1053);
#876=AXIS2_PLACEMENT_3D('',#1331,#1055,#1056);
#877=AXIS2_PLACEMENT_3D('',#1333,#1058,#1059);
#878=AXIS2_PLACEMENT_3D('',#1334,#1060,#1061);
#879=AXIS2_PLACEMENT_3D('',#1336,#1062,#1063);
#880=AXIS2_PLACEMENT_3D('',#1337,#1064,#1065);
#881=AXIS2_PLACEMENT_3D('',#1339,#1066,#1067);
#882=AXIS2_PLACEMENT_3D('',#1340,#1068,#1069);
#883=AXIS2_PLACEMENT_3D('',#1342,#1070,#1071);
#884=AXIS2_PLACEMENT_3D('',#1348,#1075,#1076);
#885=AXIS2_PLACEMENT_3D('',#1349,#1077,#1078);
#886=AXIS2_PLACEMENT_3D('',#1351,#1079,#1080);
#887=AXIS2_PLACEMENT_3D('',#1352,#1081,#1082);
#888=AXIS2_PLACEMENT_3D('',#1353,#1083,#1084);
#889=AXIS2_PLACEMENT_3D('',#1354,#1085,#1086);
#890=AXIS2_PLACEMENT_3D('',#1355,#1087,#1088);
#891=AXIS2_PLACEMENT_3D('',#1356,#1089,#1090);
#892=AXIS2_PLACEMENT_3D('',#1357,#1091,#1092);
#893=AXIS2_PLACEMENT_3D('',#1358,#1093,#1094);
#894=AXIS2_PLACEMENT_3D('',#1359,#1095,#1096);
#895=AXIS2_PLACEMENT_3D('',#1360,#1097,#1098);
#896=AXIS2_PLACEMENT_3D('',#1361,#1099,#1100);
#897=AXIS2_PLACEMENT_3D('',#1362,#1101,#1102);
#898=AXIS2_PLACEMENT_3D('',#1363,#1103,#1104);
#899=AXIS2_PLACEMENT_3D('',#1364,#1105,#1106);
#900=AXIS2_PLACEMENT_3D('',#1365,#1107,#1108);
#901=AXIS2_PLACEMENT_3D('',#1366,#1109,#1110);
#902=AXIS2_PLACEMENT_3D('',#1367,#1111,#1112);
#903=AXIS2_PLACEMENT_3D('',#1368,#1113,#1114);
#904=AXIS2_PLACEMENT_3D('',#1369,#1115,#1116);
#905=AXIS2_PLACEMENT_3D('',#1370,#1117,#1118);
#906=AXIS2_PLACEMENT_3D('',#1371,#1119,#1120);
#907=AXIS2_PLACEMENT_3D('',#1372,#1121,#1122);
#908=AXIS2_PLACEMENT_3D('',#1373,#1123,#1124);
#909=AXIS2_PLACEMENT_3D('',#1374,#1125,#1126);
#910=AXIS2_PLACEMENT_3D('',#1375,#1127,#1128);
#911=AXIS2_PLACEMENT_3D('',#1376,#1129,#1130);
#912=AXIS2_PLACEMENT_3D('',#1377,#1131,#1132);
#913=AXIS2_PLACEMENT_3D('',#1378,#1133,#1134);
#914=AXIS2_PLACEMENT_3D('',#1379,#1135,#1136);
#915=AXIS2_PLACEMENT_3D('',#1380,#1137,#1138);
#916=AXIS2_PLACEMENT_3D('',#1381,#1139,#1140);
#917=AXIS2_PLACEMENT_3D('',#1382,#1141,#1142);
#918=AXIS2_PLACEMENT_3D('',#1384,#1144,#1145);
#919=AXIS2_PLACEMENT_3D('',#1385,#1146,#1147);
#920=AXIS2_PLACEMENT_3D('',#1386,#1148,#1149);
#921=AXIS2_PLACEMENT_3D('',#1387,#1150,#1151);
#922=AXIS2_PLACEMENT_3D('',#1388,#1152,#1153);
#923=DIRECTION('',(0.,0.,1.));
#924=DIRECTION('',(1.,0.,0.));
#925=DIRECTION('',(1.,0.,0.));
#926=DIRECTION('',(0.,-1.,0.));
#927=DIRECTION('',(0.,0.,1.));
#928=DIRECTION('',(0.,-1.,0.));
#929=DIRECTION('',(0.,0.,1.));
#930=DIRECTION('',(0.,-1.,0.));
#931=DIRECTION('',(1.,0.,1.70070929017334E-16));
#932=DIRECTION('',(1.70070929017334E-16,0.,-1.));
#933=DIRECTION('',(-1.70070929017334E-16,0.,1.));
#934=DIRECTION('',(0.,-1.,0.));
#935=DIRECTION('',(-1.70070929017334E-16,0.,1.));
#936=DIRECTION('',(0.,-1.,0.));
#937=DIRECTION('',(-4.62592926927149E-16,0.,-1.));
#938=DIRECTION('',(-1.,0.,4.62592926927149E-16));
#939=DIRECTION('',(1.,0.,-4.62592926927149E-16));
#940=DIRECTION('',(0.,-1.,0.));
#941=DIRECTION('',(1.,0.,-4.62592926927149E-16));
#942=DIRECTION('',(1.,0.,1.70070929017334E-16));
#943=DIRECTION('',(1.70070929017334E-16,0.,-1.));
#944=DIRECTION('',(-1.70070929017334E-16,0.,1.));
#945=DIRECTION('',(0.,-1.,0.));
#946=DIRECTION('',(-1.70070929017334E-16,0.,1.));
#947=DIRECTION('',(1.,0.,0.));
#948=DIRECTION('',(0.,-1.,0.));
#949=DIRECTION('',(0.,0.,1.));
#950=DIRECTION('',(0.,-1.,0.));
#951=DIRECTION('',(0.,0.,1.));
#952=DIRECTION('',(0.,-1.,0.));
#953=DIRECTION('',(1.,0.,-1.13752359080446E-15));
#954=DIRECTION('',(-1.13752359080446E-15,0.,-1.));
#955=DIRECTION('',(1.13752359080446E-15,0.,1.));
#956=DIRECTION('',(0.,-1.,0.));
#957=DIRECTION('',(1.13752359080446E-15,0.,1.));
#958=DIRECTION('',(0.,-1.,0.));
#959=DIRECTION('',(0.,0.,-1.));
#960=DIRECTION('',(0.,1.,0.));
#961=DIRECTION('',(1.,0.,0.));
#962=DIRECTION('',(0.,-1.,0.));
#963=DIRECTION('',(1.,0.,0.));
#964=DIRECTION('',(1.,0.,-1.13752359080446E-15));
#965=DIRECTION('',(-1.13752359080446E-15,0.,-1.));
#966=DIRECTION('',(1.13752359080446E-15,0.,1.));
#967=DIRECTION('',(0.,-1.,0.));
#968=DIRECTION('',(1.13752359080446E-15,0.,1.));
#969=DIRECTION('',(-9.77309000550314E-16,0.,-1.));
#970=DIRECTION('',(-1.,0.,9.77309000550314E-16));
#971=DIRECTION('',(1.,0.,-9.77309000550314E-16));
#972=DIRECTION('',(1.,0.,-9.77309000550314E-16));
#973=DIRECTION('',(0.,0.,-1.));
#974=DIRECTION('',(0.,1.,0.));
#975=DIRECTION('',(1.,0.,0.));
#976=DIRECTION('',(1.,0.,0.));
#977=DIRECTION('',(0.,1.,0.));
#978=DIRECTION('',(1.,0.,0.));
#979=DIRECTION('',(1.,0.,-1.020425574104E-15));
#980=DIRECTION('',(1.,0.,-1.020425574104E-15));
#981=DIRECTION('',(0.,1.,0.));
#982=DIRECTION('',(1.,0.,0.));
#983=DIRECTION('',(1.,0.,0.));
#984=DIRECTION('',(6.80283716069336E-16,0.,1.));
#985=DIRECTION('',(1.,0.,-1.020425574104E-15));
#986=DIRECTION('',(1.,0.,-1.020425574104E-15));
#987=DIRECTION('',(0.,0.,1.));
#988=DIRECTION('',(1.,0.,0.));
#989=DIRECTION('',(1.,0.,0.));
#990=DIRECTION('',(-1.,0.,0.));
#991=DIRECTION('',(0.,0.,-1.));
#992=DIRECTION('',(1.,0.,-3.25260651745651E-16));
#993=DIRECTION('',(0.,0.,-1.));
#994=DIRECTION('',(1.,0.,-1.020425574104E-15));
#995=DIRECTION('',(0.,1.,0.));
#996=DIRECTION('',(1.,0.,0.));
#997=DIRECTION('',(0.,-1.,0.));
#998=DIRECTION('',(1.,0.,0.));
#999=DIRECTION('',(0.,-1.,0.));
#1000=DIRECTION('',(1.,0.,0.));
#1001=DIRECTION('',(0.,1.,0.));
#1002=DIRECTION('',(1.,0.,0.));
#1003=DIRECTION('',(-1.020425574104E-15,0.,-1.));
#1004=DIRECTION('',(-1.,0.,1.020425574104E-15));
#1005=DIRECTION('',(0.,-1.,0.));
#1006=DIRECTION('',(1.,0.,-1.020425574104E-15));
#1007=DIRECTION('',(0.,-1.,0.));
#1008=DIRECTION('',(0.,0.,-1.));
#1009=DIRECTION('',(0.,1.,0.));
#1010=DIRECTION('',(1.,0.,0.));
#1011=DIRECTION('',(0.,-1.,0.));
#1012=DIRECTION('',(1.,0.,0.));
#1013=DIRECTION('',(0.,-1.,0.));
#1014=DIRECTION('',(-1.,0.,0.));
#1015=DIRECTION('',(0.,-1.,0.));
#1016=DIRECTION('',(-1.,0.,0.));
#1017=DIRECTION('',(1.,0.,0.));
#1018=DIRECTION('',(1.,0.,0.));
#1019=DIRECTION('',(0.,-1.,0.));
#1020=DIRECTION('',(-1.,0.,0.));
#1021=DIRECTION('',(0.,1.,0.));
#1022=DIRECTION('',(0.,0.,-1.));
#1023=DIRECTION('',(0.,-1.,0.));
#1024=DIRECTION('',(0.,0.,-1.));
#1025=DIRECTION('',(0.,-1.,0.));
#1026=DIRECTION('',(-3.25260651745651E-16,0.,-1.));
#1027=DIRECTION('',(-1.,0.,3.25260651745651E-16));
#1028=DIRECTION('',(1.,0.,-3.25260651745651E-16));
#1029=DIRECTION('',(0.,-1.,0.));
#1030=DIRECTION('',(1.,0.,-3.25260651745651E-16));
#1031=DIRECTION('',(0.,-1.,0.));
#1032=DIRECTION('',(-1.,0.,0.));
#1033=DIRECTION('',(0.,1.,0.));
#1034=DIRECTION('',(0.,0.,-1.));
#1035=DIRECTION('',(0.,-1.,0.));
#1036=DIRECTION('',(0.,0.,-1.));
#1037=DIRECTION('',(0.,-1.,0.));
#1038=DIRECTION('',(1.,0.,6.30808536718839E-16));
#1039=DIRECTION('',(6.30808536718839E-16,0.,-1.));
#1040=DIRECTION('',(-6.30808536718839E-16,0.,1.));
#1041=DIRECTION('',(0.,-1.,0.));
#1042=DIRECTION('',(-6.30808536718839E-16,0.,1.));
#1043=DIRECTION('',(0.,-1.,0.));
#1044=DIRECTION('',(0.,0.,-1.));
#1045=DIRECTION('',(0.,1.,0.));
#1046=DIRECTION('',(0.,-1.,0.));
#1047=DIRECTION('',(1.,0.,0.));
#1048=DIRECTION('',(1.,0.,0.));
#1049=DIRECTION('',(0.,-1.,0.));
#1050=DIRECTION('',(1.,0.,0.));
#1051=DIRECTION('',(0.,-1.,0.));
#1052=DIRECTION('',(1.,0.,0.));
#1053=DIRECTION('',(0.,-1.,0.));
#1054=DIRECTION('',(0.,0.,1.));
#1055=DIRECTION('',(1.,0.,-6.80283716069336E-16));
#1056=DIRECTION('',(-6.80283716069336E-16,0.,-1.));
#1057=DIRECTION('',(6.80283716069336E-16,0.,1.));
#1058=DIRECTION('',(0.,-1.,0.));
#1059=DIRECTION('',(-1.,0.,0.));
#1060=DIRECTION('',(0.,-1.,0.));
#1061=DIRECTION('',(1.,0.,0.));
#1062=DIRECTION('',(0.,-1.,0.));
#1063=DIRECTION('',(-1.,0.,0.));
#1064=DIRECTION('',(0.,-1.,0.));
#1065=DIRECTION('',(1.,0.,0.));
#1066=DIRECTION('',(0.,-1.,0.));
#1067=DIRECTION('',(-1.,0.,0.));
#1068=DIRECTION('',(0.,1.,0.));
#1069=DIRECTION('',(1.,0.,0.));
#1070=DIRECTION('',(1.,0.,-6.30808536718839E-16));
#1071=DIRECTION('',(-6.30808536718839E-16,0.,-1.));
#1072=DIRECTION('',(6.30808536718839E-16,0.,1.));
#1073=DIRECTION('',(0.,-1.,0.));
#1074=DIRECTION('',(6.30808536718839E-16,0.,1.));
#1075=DIRECTION('',(0.,-1.,0.));
#1076=DIRECTION('',(-1.,0.,0.));
#1077=DIRECTION('',(0.,1.,0.));
#1078=DIRECTION('',(1.,0.,0.));
#1079=DIRECTION('',(0.,1.,0.));
#1080=DIRECTION('',(1.,0.,0.));
#1081=DIRECTION('',(0.,1.,0.));
#1082=DIRECTION('',(1.,0.,0.));
#1083=DIRECTION('',(0.,1.,0.));
#1084=DIRECTION('',(1.,0.,0.));
#1085=DIRECTION('',(0.,1.,0.));
#1086=DIRECTION('',(1.,0.,0.));
#1087=DIRECTION('',(0.,1.,0.));
#1088=DIRECTION('',(1.,0.,0.));
#1089=DIRECTION('',(0.,1.,0.));
#1090=DIRECTION('',(1.,0.,0.));
#1091=DIRECTION('',(0.,1.,0.));
#1092=DIRECTION('',(1.,0.,0.));
#1093=DIRECTION('',(0.,-1.,0.));
#1094=DIRECTION('',(-1.,0.,0.));
#1095=DIRECTION('',(0.,-1.,0.));
#1096=DIRECTION('',(-1.,0.,0.));
#1097=DIRECTION('',(-1.,0.,0.));
#1098=DIRECTION('',(0.,1.,0.));
#1099=DIRECTION('',(-1.,0.,0.));
#1100=DIRECTION('',(0.,1.,0.));
#1101=DIRECTION('',(1.,0.,0.));
#1102=DIRECTION('',(0.,-1.,0.));
#1103=DIRECTION('',(0.,0.,-1.));
#1104=DIRECTION('',(0.,1.,0.));
#1105=DIRECTION('',(0.,0.,-1.));
#1106=DIRECTION('',(0.,1.,0.));
#1107=DIRECTION('',(0.,-1.,0.));
#1108=DIRECTION('',(-1.,0.,0.));
#1109=DIRECTION('',(0.,-1.,0.));
#1110=DIRECTION('',(-1.,0.,0.));
#1111=DIRECTION('',(0.,0.,-1.));
#1112=DIRECTION('',(0.,1.,0.));
#1113=DIRECTION('',(6.93889390390722E-15,0.,1.));
#1114=DIRECTION('',(1.,0.,-6.93889390390722E-15));
#1115=DIRECTION('',(0.,-1.,0.));
#1116=DIRECTION('',(-1.,0.,0.));
#1117=DIRECTION('',(0.,-1.,0.));
#1118=DIRECTION('',(-1.,0.,0.));
#1119=DIRECTION('',(1.,0.,-6.93889390390722E-15));
#1120=DIRECTION('',(-6.93889390390722E-15,0.,-1.));
#1121=DIRECTION('',(1.,0.,0.));
#1122=DIRECTION('',(0.,-1.,0.));
#1123=DIRECTION('',(0.,0.,-1.));
#1124=DIRECTION('',(0.,1.,0.));
#1125=DIRECTION('',(0.,0.,-1.));
#1126=DIRECTION('',(0.,1.,0.));
#1127=DIRECTION('',(1.,0.,-3.25260651745651E-16));
#1128=DIRECTION('',(-3.25260651745651E-16,0.,-1.));
#1129=DIRECTION('',(-1.,0.,0.));
#1130=DIRECTION('',(0.,1.,0.));
#1131=DIRECTION('',(0.,0.,1.));
#1132=DIRECTION('',(0.,-1.,0.));
#1133=DIRECTION('',(0.,6.93889390390723E-15,1.));
#1134=DIRECTION('',(0.,-1.,6.93889390390723E-15));
#1135=DIRECTION('',(0.,-1.,6.93889390390723E-15));
#1136=DIRECTION('',(0.,-6.93889390390723E-15,-1.));
#1137=DIRECTION('',(0.,-1.,0.));
#1138=DIRECTION('',(-1.,0.,0.));
#1139=DIRECTION('',(0.,1.,0.));
#1140=DIRECTION('',(1.,0.,0.));
#1141=DIRECTION('',(0.,1.,0.));
#1142=DIRECTION('',(1.,0.,0.));
#1143=DIRECTION('',(1.,0.,0.));
#1144=DIRECTION('',(1.,0.,0.));
#1145=DIRECTION('',(0.,-1.,0.));
#1146=DIRECTION('',(0.707106781186548,-0.707106781186548,0.));
#1147=DIRECTION('',(-0.707106781186548,-0.707106781186548,0.));
#1148=DIRECTION('',(0.707106781186548,0.707106781186548,0.));
#1149=DIRECTION('',(-0.707106781186548,0.707106781186548,0.));
#1150=DIRECTION('',(0.,-1.,0.));
#1151=DIRECTION('',(-1.,0.,0.));
#1152=DIRECTION('',(0.,1.,0.));
#1153=DIRECTION('',(1.,0.,0.));
#1154=CARTESIAN_POINT('',(0.,0.,0.));
#1155=CARTESIAN_POINT('',(0.0041,0.0015,0.024));
#1156=CARTESIAN_POINT('',(0.0041,0.,0.024));
#1157=CARTESIAN_POINT('',(0.0041,0.,0.0225));
#1158=CARTESIAN_POINT('',(0.0041,0.,0.0255));
#1159=CARTESIAN_POINT('',(0.0041,0.0015,0.0255));
#1160=CARTESIAN_POINT('',(0.0041,0.0015,0.0255));
#1161=CARTESIAN_POINT('',(0.0041,0.0015,0.024));
#1162=CARTESIAN_POINT('',(0.0041,0.0015,0.0225));
#1163=CARTESIAN_POINT('',(0.0041,0.0015,0.0225));
#1164=CARTESIAN_POINT('',(0.0075,0.0015,3.46944695195361E-18));
#1165=CARTESIAN_POINT('',(0.0075,0.,3.46944695195361E-18));
#1166=CARTESIAN_POINT('',(0.0075,0.,-0.0255));
#1167=CARTESIAN_POINT('',(0.0075,0.,0.0255));
#1168=CARTESIAN_POINT('',(0.0075,0.0015,-0.0255));
#1169=CARTESIAN_POINT('',(0.0075,0.0015,-0.0255));
#1170=CARTESIAN_POINT('',(0.0075,0.0015,3.46944695195361E-18));
#1171=CARTESIAN_POINT('',(0.0075,0.0015,0.0255));
#1172=CARTESIAN_POINT('',(0.0075,0.0015,0.0255));
#1173=CARTESIAN_POINT('',(4.33680868994202E-18,0.0015,-0.0255));
#1174=CARTESIAN_POINT('',(4.33680868994202E-18,0.,-0.0255));
#1175=CARTESIAN_POINT('',(-0.0075,0.,-0.0255));
#1176=CARTESIAN_POINT('',(-0.0075,0.0015,-0.0255));
#1177=CARTESIAN_POINT('',(-0.0075,0.0015,-0.0255));
#1178=CARTESIAN_POINT('',(4.33680868994202E-18,0.0015,-0.0255));
#1179=CARTESIAN_POINT('',(-0.0075,0.0015,6.93889390390723E-18));
#1180=CARTESIAN_POINT('',(-0.0075,0.,6.93889390390723E-18));
#1181=CARTESIAN_POINT('',(-0.0075,0.,0.0255));
#1182=CARTESIAN_POINT('',(-0.0075,0.0015,0.0255));
#1183=CARTESIAN_POINT('',(-0.0075,0.0015,0.0255));
#1184=CARTESIAN_POINT('',(-0.0075,0.0015,6.93889390390723E-18));
#1185=CARTESIAN_POINT('',(-0.0041,0.0015,0.024));
#1186=CARTESIAN_POINT('',(-0.0041,0.,0.024));
#1187=CARTESIAN_POINT('',(-0.0041,0.,0.0225));
#1188=CARTESIAN_POINT('',(-0.0041,0.,0.0255));
#1189=CARTESIAN_POINT('',(-0.0041,0.0015,0.0225));
#1190=CARTESIAN_POINT('',(-0.0041,0.0015,0.0225));
#1191=CARTESIAN_POINT('',(-0.0041,0.0015,0.024));
#1192=CARTESIAN_POINT('',(-0.0041,0.0015,0.0255));
#1193=CARTESIAN_POINT('',(-0.0041,0.0015,0.0255));
#1194=CARTESIAN_POINT('',(-0.00149999999999998,0.0015,0.019525));
#1195=CARTESIAN_POINT('',(-0.00149999999999998,0.,0.019525));
#1196=CARTESIAN_POINT('',(-0.00149999999999998,0.,0.018));
#1197=CARTESIAN_POINT('',(-0.00149999999999997,0.,0.02105));
#1198=CARTESIAN_POINT('',(-0.00149999999999998,0.0015,0.018));
#1199=CARTESIAN_POINT('',(-0.00149999999999998,0.0015,0.018));
#1200=CARTESIAN_POINT('',(-0.00149999999999998,0.0015,0.019525));
#1201=CARTESIAN_POINT('',(-0.00149999999999997,0.0015,0.02105));
#1202=CARTESIAN_POINT('',(-0.00149999999999997,0.0015,0.02105));
#1203=CARTESIAN_POINT('',(0.000275000000000022,0.0015,0.018));
#1204=CARTESIAN_POINT('',(0.000275000000000022,0.,0.018));
#1205=CARTESIAN_POINT('',(0.00205,0.,0.018));
#1206=CARTESIAN_POINT('',(0.00205,0.0015,0.018));
#1207=CARTESIAN_POINT('',(0.00205,0.0015,0.018));
#1208=CARTESIAN_POINT('',(0.000275000000000022,0.0015,0.018));
#1209=CARTESIAN_POINT('',(0.00205000000000003,0.0015,0.019525));
#1210=CARTESIAN_POINT('',(0.00205000000000003,0.,0.019525));
#1211=CARTESIAN_POINT('',(0.00205000000000003,0.,0.02105));
#1212=CARTESIAN_POINT('',(0.00205000000000003,0.0015,0.02105));
#1213=CARTESIAN_POINT('',(0.00205000000000003,0.0015,0.02105));
#1214=CARTESIAN_POINT('',(0.00205000000000003,0.0015,0.019525));
#1215=CARTESIAN_POINT('',(0.000275000000000025,0.0015,0.02105));
#1216=CARTESIAN_POINT('',(0.000275000000000025,0.,0.02105));
#1217=CARTESIAN_POINT('',(0.000275000000000025,0.0015,0.02105));
#1218=CARTESIAN_POINT('',(-4.33680868994202E-18,0.0015,0.0225));
#1219=CARTESIAN_POINT('',(-4.33680868994202E-18,0.,0.0225));
#1220=CARTESIAN_POINT('',(-4.33680868994202E-18,0.0015,0.0225));
#1221=CARTESIAN_POINT('',(6.93889390390723E-18,0.0015,-2.11966484785081E-05));
#1222=CARTESIAN_POINT('',(0.0058,0.0015,0.0255));
#1223=CARTESIAN_POINT('',(-0.0058,0.0015,0.0255));
#1224=CARTESIAN_POINT('',(6.93889390390723E-18,0.,-2.11966484785081E-05));
#1225=CARTESIAN_POINT('',(0.009,0.,-0.025542393296957));
#1226=CARTESIAN_POINT('',(-0.0105,0.,-0.025542393296957));
#1227=CARTESIAN_POINT('',(0.0105,0.,-0.025542393296957));
#1228=CARTESIAN_POINT('',(-0.0105,0.,3.46944695195361E-18));
#1229=CARTESIAN_POINT('',(-0.0105,0.,0.0255));
#1230=CARTESIAN_POINT('',(0.0058,0.,0.0255));
#1231=CARTESIAN_POINT('',(0.0058,0.,0.0255));
#1232=CARTESIAN_POINT('',(0.0105,0.,0.0255));
#1233=CARTESIAN_POINT('',(0.0105,0.,-0.0255211966484785));
#1234=CARTESIAN_POINT('',(-0.0075,0.,-0.030542393296957));
#1235=CARTESIAN_POINT('',(-0.0155,0.,-0.030542393296957));
#1236=CARTESIAN_POINT('',(-0.0075,0.,-0.030542393296957));
#1237=CARTESIAN_POINT('',(0.0075,0.,-0.030542393296957));
#1238=CARTESIAN_POINT('',(0.0075,0.,-0.030542393296957));
#1239=CARTESIAN_POINT('',(6.93889390390723E-18,0.,-0.030542393296957));
#1240=CARTESIAN_POINT('',(0.0155,0.,-0.030542393296957));
#1241=CARTESIAN_POINT('',(0.0155,0.,-2.11966484785081E-05));
#1242=CARTESIAN_POINT('',(0.0155,0.,0.0305));
#1243=CARTESIAN_POINT('',(1.68662382178485E-17,0.,0.0305));
#1244=CARTESIAN_POINT('',(-0.0155,0.,0.0305));
#1245=CARTESIAN_POINT('',(-0.0155,0.,-0.031042393296957));
#1246=CARTESIAN_POINT('',(0.0058,0.,0.0255));
#1247=CARTESIAN_POINT('',(-0.01325,0.,-0.0282817949727177));
#1248=CARTESIAN_POINT('',(-0.01175,0.,-0.0282817949727177));
#1249=CARTESIAN_POINT('',(0.01325,0.,-0.0282817949727177));
#1250=CARTESIAN_POINT('',(0.01475,0.,-0.0282817949727177));
#1251=CARTESIAN_POINT('',(-0.01325,0.,0.0282817949727177));
#1252=CARTESIAN_POINT('',(-0.01175,0.,0.0282817949727177));
#1253=CARTESIAN_POINT('',(0.01325,0.,0.0282817949727177));
#1254=CARTESIAN_POINT('',(0.01475,0.,0.0282817949727177));
#1255=CARTESIAN_POINT('',(0.0058,0.0031,0.0255));
#1256=CARTESIAN_POINT('',(-0.0105,0.0031,0.0255));
#1257=CARTESIAN_POINT('',(-0.0105,0.0031,0.0255));
#1258=CARTESIAN_POINT('',(0.0058,0.0031,0.0255));
#1259=CARTESIAN_POINT('',(0.0105,0.0031,0.0255));
#1260=CARTESIAN_POINT('',(0.0105,0.0031,0.0255));
#1261=CARTESIAN_POINT('',(-0.009,0.0031,-0.031042393296957));
#1262=CARTESIAN_POINT('',(-0.009,0.0031,-0.031042393296957));
#1263=CARTESIAN_POINT('',(-0.0155,0.0031,-0.031042393296957));
#1264=CARTESIAN_POINT('',(-0.008,0.0031,-0.031042393296957));
#1265=CARTESIAN_POINT('',(-0.008,0.0031,-0.031042393296957));
#1266=CARTESIAN_POINT('',(-0.008,0.001,-0.031042393296957));
#1267=CARTESIAN_POINT('',(-0.009,0.001,-0.031042393296957));
#1268=CARTESIAN_POINT('',(0.008,0.001,-0.031042393296957));
#1269=CARTESIAN_POINT('',(0.008,0.0031,-0.031042393296957));
#1270=CARTESIAN_POINT('',(0.008,0.0031,-0.031042393296957));
#1271=CARTESIAN_POINT('',(0.01175,0.0031,-0.031042393296957));
#1272=CARTESIAN_POINT('',(0.0155,0.0031,-0.031042393296957));
#1273=CARTESIAN_POINT('',(0.0155,0.0031,-0.031042393296957));
#1274=CARTESIAN_POINT('',(0.0155,0.0005,-0.031042393296957));
#1275=CARTESIAN_POINT('',(0.01175,0.0005,-0.031042393296957));
#1276=CARTESIAN_POINT('',(0.0075,0.0005,-0.031042393296957));
#1277=CARTESIAN_POINT('',(-0.0075,0.0005,-0.031042393296957));
#1278=CARTESIAN_POINT('',(-0.0075,0.0005,-0.031042393296957));
#1279=CARTESIAN_POINT('',(-0.016,0.0005,-0.031042393296957));
#1280=CARTESIAN_POINT('',(-0.0155,0.0005,-0.031042393296957));
#1281=CARTESIAN_POINT('',(-0.0155,0.0031,-0.031042393296957));
#1282=CARTESIAN_POINT('',(-0.016,0.0031,-0.026917393296957));
#1283=CARTESIAN_POINT('',(-0.016,0.0005,0.031));
#1284=CARTESIAN_POINT('',(-0.016,0.0005,-0.030542393296957));
#1285=CARTESIAN_POINT('',(-0.016,0.0005,0.0305));
#1286=CARTESIAN_POINT('',(-0.016,0.0031,0.0305));
#1287=CARTESIAN_POINT('',(-0.016,0.0031,0.0305));
#1288=CARTESIAN_POINT('',(-0.016,0.0031,-0.026917393296957));
#1289=CARTESIAN_POINT('',(-0.016,0.0031,-0.030542393296957));
#1290=CARTESIAN_POINT('',(-0.016,0.0031,-0.030542393296957));
#1291=CARTESIAN_POINT('',(3.12250225675825E-17,0.0031,0.031));
#1292=CARTESIAN_POINT('',(3.12250225675825E-17,0.0031,0.031));
#1293=CARTESIAN_POINT('',(-0.0155,0.0031,0.031));
#1294=CARTESIAN_POINT('',(0.0155,0.0031,0.031));
#1295=CARTESIAN_POINT('',(-0.0155,0.,0.031));
#1296=CARTESIAN_POINT('',(-0.0155,0.0005,0.031));
#1297=CARTESIAN_POINT('',(3.12250225675825E-17,0.0005,0.031));
#1298=CARTESIAN_POINT('',(0.0155,0.0005,0.031));
#1299=CARTESIAN_POINT('',(0.0155,0.0031,0.031));
#1300=CARTESIAN_POINT('',(0.016,0.0031,-0.028292393296957));
#1301=CARTESIAN_POINT('',(0.016,0.0005,-0.028292393296957));
#1302=CARTESIAN_POINT('',(0.016,0.0005,0.0305));
#1303=CARTESIAN_POINT('',(0.016,0.0005,-0.030542393296957));
#1304=CARTESIAN_POINT('',(0.016,0.0031,-0.030542393296957));
#1305=CARTESIAN_POINT('',(0.016,0.0031,-0.030542393296957));
#1306=CARTESIAN_POINT('',(0.016,0.0031,-0.028292393296957));
#1307=CARTESIAN_POINT('',(0.016,0.0031,0.0305));
#1308=CARTESIAN_POINT('',(0.016,0.0031,0.0305));
#1309=CARTESIAN_POINT('',(0.0075,0.0031,-0.028292393296957));
#1310=CARTESIAN_POINT('',(0.0075,0.0031,-0.028292393296957));
#1311=CARTESIAN_POINT('',(0.0075,0.0031,-0.030542393296957));
#1312=CARTESIAN_POINT('',(0.0075,0.0031,-0.025542393296957));
#1313=CARTESIAN_POINT('',(0.0075,0.001,-0.030542393296957));
#1314=CARTESIAN_POINT('',(0.0075,0.0015,-0.030542393296957));
#1315=CARTESIAN_POINT('',(0.0075,0.0015,-0.028292393296957));
#1316=CARTESIAN_POINT('',(0.0075,0.0015,-0.025542393296957));
#1317=CARTESIAN_POINT('',(0.0075,0.0031,-0.025542393296957));
#1318=CARTESIAN_POINT('',(0.009,0.0031,-0.025542393296957));
#1319=CARTESIAN_POINT('',(0.0105,0.0031,-0.025542393296957));
#1320=CARTESIAN_POINT('',(0.0105,0.0031,-0.025542393296957));
#1321=CARTESIAN_POINT('',(0.009,0.0031,-0.025542393296957));
#1322=CARTESIAN_POINT('',(-0.007,0.0015,-0.025542393296957));
#1323=CARTESIAN_POINT('',(-0.0075,0.0015,-0.025542393296957));
#1324=CARTESIAN_POINT('',(-0.0075,0.0031,-0.025542393296957));
#1325=CARTESIAN_POINT('',(-0.0075,0.0031,-0.025542393296957));
#1326=CARTESIAN_POINT('',(-0.009,0.0031,-0.025542393296957));
#1327=CARTESIAN_POINT('',(-0.0105,0.0031,-0.025542393296957));
#1328=CARTESIAN_POINT('',(-0.0105,0.0031,-0.025542393296957));
#1329=CARTESIAN_POINT('',(0.0105,0.0031,-0.0255211966484785));
#1330=CARTESIAN_POINT('',(0.0105,0.0031,-0.0255211966484785));
#1331=CARTESIAN_POINT('',(-0.0105,0.0031,3.46944695195361E-18));
#1332=CARTESIAN_POINT('',(-0.0105,0.0031,3.46944695195361E-18));
#1333=CARTESIAN_POINT('',(-0.01325,0.0031,0.0282817949727177));
#1334=CARTESIAN_POINT('',(-0.01325,0.0031,0.0282817949727177));
#1335=CARTESIAN_POINT('',(-0.01175,0.0031,0.0282817949727177));
#1336=CARTESIAN_POINT('',(0.01325,0.0031,-0.0282817949727177));
#1337=CARTESIAN_POINT('',(0.01325,0.0031,-0.0282817949727177));
#1338=CARTESIAN_POINT('',(0.01475,0.0031,-0.0282817949727177));
#1339=CARTESIAN_POINT('',(-0.01325,0.0031,-0.0282817949727177));
#1340=CARTESIAN_POINT('',(-0.01325,0.0031,-0.0282817949727177));
#1341=CARTESIAN_POINT('',(-0.01175,0.0031,-0.0282817949727177));
#1342=CARTESIAN_POINT('',(-0.0075,0.0031,-0.028292393296957));
#1343=CARTESIAN_POINT('',(-0.0075,0.0015,-0.028292393296957));
#1344=CARTESIAN_POINT('',(-0.0075,0.0015,-0.030542393296957));
#1345=CARTESIAN_POINT('',(-0.0075,0.0031,-0.030542393296957));
#1346=CARTESIAN_POINT('',(-0.0075,0.0031,-0.030542393296957));
#1347=CARTESIAN_POINT('',(-0.0075,0.0031,-0.028292393296957));
#1348=CARTESIAN_POINT('',(0.01325,0.0031,0.0282817949727177));
#1349=CARTESIAN_POINT('',(0.01325,0.0031,0.0282817949727177));
#1350=CARTESIAN_POINT('',(0.01475,0.0031,0.0282817949727177));
#1351=CARTESIAN_POINT('',(6.93889390390723E-18,0.0031,-2.11966484785081E-05));
#1352=CARTESIAN_POINT('',(-0.008,0.0031,-0.030542393296957));
#1353=CARTESIAN_POINT('',(-0.0155,0.0031,-0.030542393296957));
#1354=CARTESIAN_POINT('',(-0.0155,0.0031,0.0305));
#1355=CARTESIAN_POINT('',(0.0155,0.0031,0.0305));
#1356=CARTESIAN_POINT('',(0.0155,0.0031,-0.030542393296957));
#1357=CARTESIAN_POINT('',(0.008,0.0031,-0.030542393296957));
#1358=CARTESIAN_POINT('',(0.0155,0.0031,-0.030542393296957));
#1359=CARTESIAN_POINT('',(0.0155,0.0005,-0.030542393296957));
#1360=CARTESIAN_POINT('',(0.01175,0.0005,-0.030542393296957));
#1361=CARTESIAN_POINT('',(-0.0155,0.0005,-0.030542393296957));
#1362=CARTESIAN_POINT('',(0.0155,0.0005,-0.030542393296957));
#1363=CARTESIAN_POINT('',(0.0155,0.0005,-0.030542393296957));
#1364=CARTESIAN_POINT('',(0.0155,0.0005,-0.030542393296957));
#1365=CARTESIAN_POINT('',(0.0155,0.0031,0.0305));
#1366=CARTESIAN_POINT('',(0.0155,0.0005,0.0305));
#1367=CARTESIAN_POINT('',(0.0155,0.0005,-0.028292393296957));
#1368=CARTESIAN_POINT('',(0.0155,0.0005,0.0305));
#1369=CARTESIAN_POINT('',(-0.0155,0.0031,-0.030542393296957));
#1370=CARTESIAN_POINT('',(-0.0155,0.0005,-0.030542393296957));
#1371=CARTESIAN_POINT('',(0.0155,0.0005,0.0305));
#1372=CARTESIAN_POINT('',(0.0155,0.0005,0.0305));
#1373=CARTESIAN_POINT('',(-0.0155,0.0005,-0.030542393296957));
#1374=CARTESIAN_POINT('',(-0.0155,0.0005,-0.030542393296957));
#1375=CARTESIAN_POINT('',(3.10623922417097E-17,0.0005,0.0305));
#1376=CARTESIAN_POINT('',(-0.0155,0.0005,0.0305));
#1377=CARTESIAN_POINT('',(-0.0155,0.0005,-2.11966484785081E-05));
#1378=CARTESIAN_POINT('',(-0.0155,0.0005,0.0305));
#1379=CARTESIAN_POINT('',(-0.0155,0.0005,0.0305));
#1380=CARTESIAN_POINT('',(-0.0155,0.0005,0.0305));
#1381=CARTESIAN_POINT('',(-0.0155,0.0031,0.0305));
#1382=CARTESIAN_POINT('',(6.93889390390723E-18,0.0015,-2.11966484785081E-05));
#1383=CARTESIAN_POINT('',(6.93889390390723E-18,0.0015,-0.030542393296957));
#1384=CARTESIAN_POINT('',(-0.009,0.001,-0.030542393296957));
#1385=CARTESIAN_POINT('',(-0.008,0.001,-0.030542393296957));
#1386=CARTESIAN_POINT('',(0.008,0.001,-0.030542393296957));
#1387=CARTESIAN_POINT('',(-0.008,0.0031,-0.030542393296957));
#1388=CARTESIAN_POINT('',(0.008,0.0031,-0.030542393296957));
#1389=MECHANICAL_DESIGN_GEOMETRIC_PRESENTATION_REPRESENTATION('',(#840),#1390);
#1390=(
GEOMETRIC_REPRESENTATION_CONTEXT(3)
GLOBAL_UNCERTAINTY_ASSIGNED_CONTEXT((#1391))
GLOBAL_UNIT_ASSIGNED_CONTEXT((#1394,#1393,#1392))
REPRESENTATION_CONTEXT('Part 1','TOP_LEVEL_ASSEMBLY_PART')
);
#1391=UNCERTAINTY_MEASURE_WITH_UNIT(LENGTH_MEASURE(1.E-08),#1394,'DISTANCE_ACCURACY_VALUE','Maximum Tolerance applied to model');
#1392=(
NAMED_UNIT(*)
SI_UNIT($,.STERADIAN.)
SOLID_ANGLE_UNIT()
);
#1393=(
NAMED_UNIT(*)
PLANE_ANGLE_UNIT()
SI_UNIT($,.RADIAN.)
);
#1394=(
LENGTH_UNIT()
NAMED_UNIT(*)
SI_UNIT($,.METRE.)
);
#1395=PRODUCT_DEFINITION_SHAPE('','',#1396);
#1396=PRODUCT_DEFINITION('','',#1398,#1397);
#1397=PRODUCT_DEFINITION_CONTEXT('',#1404,'design');
#1398=PRODUCT_DEFINITION_FORMATION_WITH_SPECIFIED_SOURCE('','',#1400,.NOT_KNOWN.);
#1399=PRODUCT_RELATED_PRODUCT_CATEGORY('','',(#1400));
#1400=PRODUCT('Part 1','Part 1','Part 1',(#1402));
#1401=PRODUCT_CATEGORY('','');
#1402=PRODUCT_CONTEXT('',#1404,'mechanical');
#1403=APPLICATION_PROTOCOL_DEFINITION('international standard','ap242_managed_model_based_3d_engineering',2020,#1404);
#1404=APPLICATION_CONTEXT('managed model based 3d engineering');
ENDSEC;
END-ISO-10303-21;
