%TF.GenerationSoftware,KiCad,Pcbnew,9.0.6*%
%TF.CreationDate,2026-01-07T14:09:13-05:00*%
%TF.ProjectId,Miguel's-Custom-Devboard - V2,4d696775-656c-4277-932d-437573746f6d,rev?*%
%TF.SameCoordinates,Original*%
%TF.FileFunction,Soldermask,Top*%
%TF.FilePolarity,Negative*%
%FSLAX46Y46*%
G04 Gerber Fmt 4.6, Leading zero omitted, Abs format (unit mm)*
G04 Created by KiCad (PCBNEW 9.0.6) date 2026-01-07 14:09:13*
%MOMM*%
%LPD*%
G01*
G04 APERTURE LIST*
G04 Aperture macros list*
%AMRoundRect*
0 Rectangle with rounded corners*
0 $1 Rounding radius*
0 $2 $3 $4 $5 $6 $7 $8 $9 X,Y pos of 4 corners*
0 Add a 4 corners polygon primitive as box body*
4,1,4,$2,$3,$4,$5,$6,$7,$8,$9,$2,$3,0*
0 Add four circle primitives for the rounded corners*
1,1,$1+$1,$2,$3*
1,1,$1+$1,$4,$5*
1,1,$1+$1,$6,$7*
1,1,$1+$1,$8,$9*
0 Add four rect primitives between the rounded corners*
20,1,$1+$1,$2,$3,$4,$5,0*
20,1,$1+$1,$4,$5,$6,$7,0*
20,1,$1+$1,$6,$7,$8,$9,0*
20,1,$1+$1,$8,$9,$2,$3,0*%
%AMFreePoly0*
4,1,18,-0.410000,0.265000,0.000000,0.675000,0.328000,0.675000,0.359380,0.668758,0.385983,0.650983,0.403758,0.624380,0.410000,0.593000,0.410000,-0.593000,0.403758,-0.624380,0.385983,-0.650983,0.359380,-0.668758,0.328000,-0.675000,-0.328000,-0.675000,-0.359380,-0.668758,-0.385983,-0.650983,-0.403758,-0.624380,-0.410000,-0.593000,-0.410000,0.265000,-0.410000,0.265000,$1*%
G04 Aperture macros list end*
%ADD10RoundRect,0.062500X-0.387500X-0.062500X0.387500X-0.062500X0.387500X0.062500X-0.387500X0.062500X0*%
%ADD11R,0.200000X1.600000*%
%ADD12RoundRect,0.140000X0.140000X0.170000X-0.140000X0.170000X-0.140000X-0.170000X0.140000X-0.170000X0*%
%ADD13RoundRect,0.140000X0.170000X-0.140000X0.170000X0.140000X-0.170000X0.140000X-0.170000X-0.140000X0*%
%ADD14RoundRect,0.140000X-0.170000X0.140000X-0.170000X-0.140000X0.170000X-0.140000X0.170000X0.140000X0*%
%ADD15RoundRect,0.135000X0.135000X0.185000X-0.135000X0.185000X-0.135000X-0.185000X0.135000X-0.185000X0*%
%ADD16R,1.700000X1.700000*%
%ADD17C,1.700000*%
%ADD18RoundRect,0.050000X-0.387500X-0.050000X0.387500X-0.050000X0.387500X0.050000X-0.387500X0.050000X0*%
%ADD19RoundRect,0.050000X-0.050000X-0.387500X0.050000X-0.387500X0.050000X0.387500X-0.050000X0.387500X0*%
%ADD20R,3.200000X3.200000*%
%ADD21RoundRect,0.140000X-0.140000X-0.170000X0.140000X-0.170000X0.140000X0.170000X-0.140000X0.170000X0*%
%ADD22RoundRect,0.135000X-0.185000X0.135000X-0.185000X-0.135000X0.185000X-0.135000X0.185000X0.135000X0*%
%ADD23RoundRect,0.225000X0.225000X0.250000X-0.225000X0.250000X-0.225000X-0.250000X0.225000X-0.250000X0*%
%ADD24RoundRect,0.082000X0.593000X-0.328000X0.593000X0.328000X-0.593000X0.328000X-0.593000X-0.328000X0*%
%ADD25FreePoly0,90.000000*%
%ADD26RoundRect,0.250000X0.450000X0.350000X-0.450000X0.350000X-0.450000X-0.350000X0.450000X-0.350000X0*%
%ADD27RoundRect,0.150000X0.150000X-0.587500X0.150000X0.587500X-0.150000X0.587500X-0.150000X-0.587500X0*%
%ADD28C,0.650000*%
%ADD29R,0.600000X1.450000*%
%ADD30R,0.300000X1.450000*%
%ADD31O,1.000000X2.100000*%
%ADD32O,1.000000X1.600000*%
%ADD33RoundRect,0.200000X-0.800000X0.200000X-0.800000X-0.200000X0.800000X-0.200000X0.800000X0.200000X0*%
G04 APERTURE END LIST*
D10*
%TO.C,U3*%
X188998800Y-60927900D03*
X188998800Y-61427900D03*
X188998800Y-61927900D03*
X188998800Y-62427900D03*
X191848800Y-62427900D03*
X191848800Y-61927900D03*
X191848800Y-61427900D03*
X191848800Y-60927900D03*
D11*
X190423800Y-61677900D03*
%TD*%
D12*
%TO.C,C17*%
X191853800Y-59893200D03*
X190893800Y-59893200D03*
%TD*%
D13*
%TO.C,C1*%
X195453000Y-60881200D03*
X195453000Y-59921200D03*
%TD*%
D14*
%TO.C,C7*%
X195529200Y-74881800D03*
X195529200Y-75841800D03*
%TD*%
D12*
%TO.C,C8*%
X187830400Y-69723000D03*
X186870400Y-69723000D03*
%TD*%
D15*
%TO.C,R7*%
X189983800Y-59893200D03*
X188963800Y-59893200D03*
%TD*%
D13*
%TO.C,C2*%
X196443600Y-61795600D03*
X196443600Y-60835600D03*
%TD*%
D16*
%TO.C,J4*%
X190960000Y-92390000D03*
D17*
X193500000Y-92390000D03*
X196040000Y-92390000D03*
%TD*%
D18*
%TO.C,U1*%
X190292500Y-65890000D03*
X190292500Y-66290000D03*
X190292500Y-66690000D03*
X190292500Y-67090000D03*
X190292500Y-67490000D03*
X190292500Y-67890000D03*
X190292500Y-68290000D03*
X190292500Y-68690000D03*
X190292500Y-69090000D03*
X190292500Y-69490000D03*
X190292500Y-69890000D03*
X190292500Y-70290000D03*
X190292500Y-70690000D03*
X190292500Y-71090000D03*
D19*
X191130000Y-71927500D03*
X191530000Y-71927500D03*
X191930000Y-71927500D03*
X192330000Y-71927500D03*
X192730000Y-71927500D03*
X193130000Y-71927500D03*
X193530000Y-71927500D03*
X193930000Y-71927500D03*
X194330000Y-71927500D03*
X194730000Y-71927500D03*
X195130000Y-71927500D03*
X195530000Y-71927500D03*
X195930000Y-71927500D03*
X196330000Y-71927500D03*
D18*
X197167500Y-71090000D03*
X197167500Y-70690000D03*
X197167500Y-70290000D03*
X197167500Y-69890000D03*
X197167500Y-69490000D03*
X197167500Y-69090000D03*
X197167500Y-68690000D03*
X197167500Y-68290000D03*
X197167500Y-67890000D03*
X197167500Y-67490000D03*
X197167500Y-67090000D03*
X197167500Y-66690000D03*
X197167500Y-66290000D03*
X197167500Y-65890000D03*
D19*
X196330000Y-65052500D03*
X195930000Y-65052500D03*
X195530000Y-65052500D03*
X195130000Y-65052500D03*
X194730000Y-65052500D03*
X194330000Y-65052500D03*
X193930000Y-65052500D03*
X193530000Y-65052500D03*
X193130000Y-65052500D03*
X192730000Y-65052500D03*
X192330000Y-65052500D03*
X191930000Y-65052500D03*
X191530000Y-65052500D03*
X191130000Y-65052500D03*
D20*
X193730000Y-68490000D03*
%TD*%
D21*
%TO.C,C12*%
X198021000Y-61823600D03*
X198981000Y-61823600D03*
%TD*%
D12*
%TO.C,C9*%
X189481400Y-64541400D03*
X188521400Y-64541400D03*
%TD*%
D14*
%TO.C,C11*%
X196519800Y-74879200D03*
X196519800Y-75839200D03*
%TD*%
D16*
%TO.C,J3*%
X202390000Y-44370000D03*
D17*
X202390000Y-46910000D03*
X202390000Y-49450000D03*
X202390000Y-51990000D03*
X202390000Y-54530000D03*
X202390000Y-57070000D03*
X202390000Y-59610000D03*
X202390000Y-62150000D03*
X202390000Y-64690000D03*
X202390000Y-67230000D03*
X202390000Y-69770000D03*
X202390000Y-72310000D03*
X202390000Y-74850000D03*
X202390000Y-77390000D03*
X202390000Y-79930000D03*
X202390000Y-82470000D03*
X202390000Y-85010000D03*
X202390000Y-87550000D03*
X202390000Y-90090000D03*
X202390000Y-92630000D03*
%TD*%
D16*
%TO.C,J2*%
X184610000Y-44370000D03*
D17*
X184610000Y-46910000D03*
X184610000Y-49450000D03*
X184610000Y-51990000D03*
X184610000Y-54530000D03*
X184610000Y-57070000D03*
X184610000Y-59610000D03*
X184610000Y-62150000D03*
X184610000Y-64690000D03*
X184610000Y-67230000D03*
X184610000Y-69770000D03*
X184610000Y-72310000D03*
X184610000Y-74850000D03*
X184610000Y-77390000D03*
X184610000Y-79930000D03*
X184610000Y-82470000D03*
X184610000Y-85010000D03*
X184610000Y-87550000D03*
X184610000Y-90090000D03*
X184610000Y-92630000D03*
%TD*%
D13*
%TO.C,C5*%
X198374000Y-65707200D03*
X198374000Y-64747200D03*
%TD*%
D21*
%TO.C,C3*%
X198021000Y-62814200D03*
X198981000Y-62814200D03*
%TD*%
D13*
%TO.C,C10*%
X196443600Y-63675200D03*
X196443600Y-62715200D03*
%TD*%
D22*
%TO.C,R1*%
X194741800Y-51255200D03*
X194741800Y-52275200D03*
%TD*%
D23*
%TO.C,C14*%
X191198800Y-56997600D03*
X189648800Y-56997600D03*
%TD*%
D22*
%TO.C,R6*%
X194741800Y-54885400D03*
X194741800Y-55905400D03*
%TD*%
D21*
%TO.C,C4*%
X198021000Y-63804800D03*
X198981000Y-63804800D03*
%TD*%
D24*
%TO.C,LED1*%
X196550000Y-87200000D03*
X196550000Y-88700000D03*
X191100000Y-87200000D03*
D25*
X191100000Y-88700000D03*
%TD*%
D26*
%TO.C,Y1*%
X193987600Y-75553200D03*
X191787600Y-75553200D03*
X191787600Y-77253200D03*
X193987600Y-77253200D03*
%TD*%
D21*
%TO.C,C6*%
X199164000Y-69723000D03*
X200124000Y-69723000D03*
%TD*%
D23*
%TO.C,C13*%
X190436800Y-51562000D03*
X188886800Y-51562000D03*
%TD*%
D27*
%TO.C,U2*%
X189473800Y-55215000D03*
X191373800Y-55215000D03*
X190423800Y-53340000D03*
%TD*%
D28*
%TO.C,J1*%
X196390000Y-48100000D03*
X190610000Y-48100000D03*
D29*
X196750000Y-49545000D03*
X195950000Y-49545000D03*
D30*
X194750000Y-49545000D03*
X193750000Y-49545000D03*
X193250000Y-49545000D03*
X192250000Y-49545000D03*
D29*
X191050000Y-49545000D03*
X190250000Y-49545000D03*
X190250000Y-49545000D03*
X191050000Y-49545000D03*
D30*
X191750000Y-49545000D03*
X192750000Y-49545000D03*
X194250000Y-49545000D03*
X195250000Y-49545000D03*
D29*
X195950000Y-49545000D03*
X196750000Y-49545000D03*
D31*
X197820000Y-48630000D03*
D32*
X197820000Y-44450000D03*
D31*
X189180000Y-48630000D03*
D32*
X189180000Y-44450000D03*
%TD*%
D22*
%TO.C,R2*%
X191744600Y-51255200D03*
X191744600Y-52275200D03*
%TD*%
D14*
%TO.C,C18*%
X189300000Y-88600000D03*
X189300000Y-89560000D03*
%TD*%
D22*
%TO.C,R3*%
X194430000Y-62660000D03*
X194430000Y-63680000D03*
%TD*%
D14*
%TO.C,C15*%
X190263600Y-76772400D03*
X190263600Y-77732400D03*
%TD*%
D15*
%TO.C,R5*%
X194558200Y-74105400D03*
X193538200Y-74105400D03*
%TD*%
D33*
%TO.C,SW1*%
X196977000Y-51485800D03*
X196977000Y-55685800D03*
%TD*%
D22*
%TO.C,R8*%
X189300000Y-86180000D03*
X189300000Y-87200000D03*
%TD*%
D13*
%TO.C,C16*%
X195521400Y-77721400D03*
X195521400Y-76761400D03*
%TD*%
D22*
%TO.C,R4*%
X195440000Y-62650000D03*
X195440000Y-63670000D03*
%TD*%
M02*
