%TF.GenerationSoftware,KiCad,Pcbnew,9.0.6*%
%TF.CreationDate,2026-01-07T14:09:13-05:00*%
%TF.ProjectId,Miguel's-Custom-Devboard - V2,4d696775-656c-4277-932d-437573746f6d,rev?*%
%TF.SameCoordinates,Original*%
%TF.FileFunction,Legend,Top*%
%TF.FilePolarity,Positive*%
%FSLAX46Y46*%
G04 Gerber Fmt 4.6, Leading zero omitted, Abs format (unit mm)*
G04 Created by KiCad (PCBNEW 9.0.6) date 2026-01-07 14:09:13*
%MOMM*%
%LPD*%
G01*
G04 APERTURE LIST*
%ADD10C,0.150000*%
%ADD11C,0.120000*%
G04 APERTURE END LIST*
D10*
X188550779Y-80688787D02*
X188550779Y-79688787D01*
X188550779Y-79688787D02*
X188884112Y-80403072D01*
X188884112Y-80403072D02*
X189217445Y-79688787D01*
X189217445Y-79688787D02*
X189217445Y-80688787D01*
X189693636Y-80688787D02*
X189693636Y-80022120D01*
X189693636Y-79688787D02*
X189646017Y-79736406D01*
X189646017Y-79736406D02*
X189693636Y-79784025D01*
X189693636Y-79784025D02*
X189741255Y-79736406D01*
X189741255Y-79736406D02*
X189693636Y-79688787D01*
X189693636Y-79688787D02*
X189693636Y-79784025D01*
X190598397Y-80022120D02*
X190598397Y-80831644D01*
X190598397Y-80831644D02*
X190550778Y-80926882D01*
X190550778Y-80926882D02*
X190503159Y-80974501D01*
X190503159Y-80974501D02*
X190407921Y-81022120D01*
X190407921Y-81022120D02*
X190265064Y-81022120D01*
X190265064Y-81022120D02*
X190169826Y-80974501D01*
X190598397Y-80641168D02*
X190503159Y-80688787D01*
X190503159Y-80688787D02*
X190312683Y-80688787D01*
X190312683Y-80688787D02*
X190217445Y-80641168D01*
X190217445Y-80641168D02*
X190169826Y-80593548D01*
X190169826Y-80593548D02*
X190122207Y-80498310D01*
X190122207Y-80498310D02*
X190122207Y-80212596D01*
X190122207Y-80212596D02*
X190169826Y-80117358D01*
X190169826Y-80117358D02*
X190217445Y-80069739D01*
X190217445Y-80069739D02*
X190312683Y-80022120D01*
X190312683Y-80022120D02*
X190503159Y-80022120D01*
X190503159Y-80022120D02*
X190598397Y-80069739D01*
X191503159Y-80022120D02*
X191503159Y-80688787D01*
X191074588Y-80022120D02*
X191074588Y-80545929D01*
X191074588Y-80545929D02*
X191122207Y-80641168D01*
X191122207Y-80641168D02*
X191217445Y-80688787D01*
X191217445Y-80688787D02*
X191360302Y-80688787D01*
X191360302Y-80688787D02*
X191455540Y-80641168D01*
X191455540Y-80641168D02*
X191503159Y-80593548D01*
X192360302Y-80641168D02*
X192265064Y-80688787D01*
X192265064Y-80688787D02*
X192074588Y-80688787D01*
X192074588Y-80688787D02*
X191979350Y-80641168D01*
X191979350Y-80641168D02*
X191931731Y-80545929D01*
X191931731Y-80545929D02*
X191931731Y-80164977D01*
X191931731Y-80164977D02*
X191979350Y-80069739D01*
X191979350Y-80069739D02*
X192074588Y-80022120D01*
X192074588Y-80022120D02*
X192265064Y-80022120D01*
X192265064Y-80022120D02*
X192360302Y-80069739D01*
X192360302Y-80069739D02*
X192407921Y-80164977D01*
X192407921Y-80164977D02*
X192407921Y-80260215D01*
X192407921Y-80260215D02*
X191931731Y-80355453D01*
X192979350Y-80688787D02*
X192884112Y-80641168D01*
X192884112Y-80641168D02*
X192836493Y-80545929D01*
X192836493Y-80545929D02*
X192836493Y-79688787D01*
X193407922Y-79688787D02*
X193312684Y-79879263D01*
X193788874Y-80641168D02*
X193884112Y-80688787D01*
X193884112Y-80688787D02*
X194074588Y-80688787D01*
X194074588Y-80688787D02*
X194169826Y-80641168D01*
X194169826Y-80641168D02*
X194217445Y-80545929D01*
X194217445Y-80545929D02*
X194217445Y-80498310D01*
X194217445Y-80498310D02*
X194169826Y-80403072D01*
X194169826Y-80403072D02*
X194074588Y-80355453D01*
X194074588Y-80355453D02*
X193931731Y-80355453D01*
X193931731Y-80355453D02*
X193836493Y-80307834D01*
X193836493Y-80307834D02*
X193788874Y-80212596D01*
X193788874Y-80212596D02*
X193788874Y-80164977D01*
X193788874Y-80164977D02*
X193836493Y-80069739D01*
X193836493Y-80069739D02*
X193931731Y-80022120D01*
X193931731Y-80022120D02*
X194074588Y-80022120D01*
X194074588Y-80022120D02*
X194169826Y-80069739D01*
X189122207Y-82298731D02*
X188788874Y-81822540D01*
X188550779Y-82298731D02*
X188550779Y-81298731D01*
X188550779Y-81298731D02*
X188931731Y-81298731D01*
X188931731Y-81298731D02*
X189026969Y-81346350D01*
X189026969Y-81346350D02*
X189074588Y-81393969D01*
X189074588Y-81393969D02*
X189122207Y-81489207D01*
X189122207Y-81489207D02*
X189122207Y-81632064D01*
X189122207Y-81632064D02*
X189074588Y-81727302D01*
X189074588Y-81727302D02*
X189026969Y-81774921D01*
X189026969Y-81774921D02*
X188931731Y-81822540D01*
X188931731Y-81822540D02*
X188550779Y-81822540D01*
X189550779Y-82298731D02*
X189550779Y-81298731D01*
X189550779Y-81298731D02*
X189931731Y-81298731D01*
X189931731Y-81298731D02*
X190026969Y-81346350D01*
X190026969Y-81346350D02*
X190074588Y-81393969D01*
X190074588Y-81393969D02*
X190122207Y-81489207D01*
X190122207Y-81489207D02*
X190122207Y-81632064D01*
X190122207Y-81632064D02*
X190074588Y-81727302D01*
X190074588Y-81727302D02*
X190026969Y-81774921D01*
X190026969Y-81774921D02*
X189931731Y-81822540D01*
X189931731Y-81822540D02*
X189550779Y-81822540D01*
X190550779Y-81917778D02*
X191312684Y-81917778D01*
X191741255Y-81393969D02*
X191788874Y-81346350D01*
X191788874Y-81346350D02*
X191884112Y-81298731D01*
X191884112Y-81298731D02*
X192122207Y-81298731D01*
X192122207Y-81298731D02*
X192217445Y-81346350D01*
X192217445Y-81346350D02*
X192265064Y-81393969D01*
X192265064Y-81393969D02*
X192312683Y-81489207D01*
X192312683Y-81489207D02*
X192312683Y-81584445D01*
X192312683Y-81584445D02*
X192265064Y-81727302D01*
X192265064Y-81727302D02*
X191693636Y-82298731D01*
X191693636Y-82298731D02*
X192312683Y-82298731D01*
X192931731Y-81298731D02*
X193026969Y-81298731D01*
X193026969Y-81298731D02*
X193122207Y-81346350D01*
X193122207Y-81346350D02*
X193169826Y-81393969D01*
X193169826Y-81393969D02*
X193217445Y-81489207D01*
X193217445Y-81489207D02*
X193265064Y-81679683D01*
X193265064Y-81679683D02*
X193265064Y-81917778D01*
X193265064Y-81917778D02*
X193217445Y-82108254D01*
X193217445Y-82108254D02*
X193169826Y-82203492D01*
X193169826Y-82203492D02*
X193122207Y-82251112D01*
X193122207Y-82251112D02*
X193026969Y-82298731D01*
X193026969Y-82298731D02*
X192931731Y-82298731D01*
X192931731Y-82298731D02*
X192836493Y-82251112D01*
X192836493Y-82251112D02*
X192788874Y-82203492D01*
X192788874Y-82203492D02*
X192741255Y-82108254D01*
X192741255Y-82108254D02*
X192693636Y-81917778D01*
X192693636Y-81917778D02*
X192693636Y-81679683D01*
X192693636Y-81679683D02*
X192741255Y-81489207D01*
X192741255Y-81489207D02*
X192788874Y-81393969D01*
X192788874Y-81393969D02*
X192836493Y-81346350D01*
X192836493Y-81346350D02*
X192931731Y-81298731D01*
X194122207Y-81632064D02*
X194122207Y-82298731D01*
X193884112Y-81251112D02*
X193646017Y-81965397D01*
X193646017Y-81965397D02*
X194265064Y-81965397D01*
X194836493Y-81298731D02*
X194931731Y-81298731D01*
X194931731Y-81298731D02*
X195026969Y-81346350D01*
X195026969Y-81346350D02*
X195074588Y-81393969D01*
X195074588Y-81393969D02*
X195122207Y-81489207D01*
X195122207Y-81489207D02*
X195169826Y-81679683D01*
X195169826Y-81679683D02*
X195169826Y-81917778D01*
X195169826Y-81917778D02*
X195122207Y-82108254D01*
X195122207Y-82108254D02*
X195074588Y-82203492D01*
X195074588Y-82203492D02*
X195026969Y-82251112D01*
X195026969Y-82251112D02*
X194931731Y-82298731D01*
X194931731Y-82298731D02*
X194836493Y-82298731D01*
X194836493Y-82298731D02*
X194741255Y-82251112D01*
X194741255Y-82251112D02*
X194693636Y-82203492D01*
X194693636Y-82203492D02*
X194646017Y-82108254D01*
X194646017Y-82108254D02*
X194598398Y-81917778D01*
X194598398Y-81917778D02*
X194598398Y-81679683D01*
X194598398Y-81679683D02*
X194646017Y-81489207D01*
X194646017Y-81489207D02*
X194693636Y-81393969D01*
X194693636Y-81393969D02*
X194741255Y-81346350D01*
X194741255Y-81346350D02*
X194836493Y-81298731D01*
X189122207Y-83813436D02*
X189074588Y-83861056D01*
X189074588Y-83861056D02*
X188931731Y-83908675D01*
X188931731Y-83908675D02*
X188836493Y-83908675D01*
X188836493Y-83908675D02*
X188693636Y-83861056D01*
X188693636Y-83861056D02*
X188598398Y-83765817D01*
X188598398Y-83765817D02*
X188550779Y-83670579D01*
X188550779Y-83670579D02*
X188503160Y-83480103D01*
X188503160Y-83480103D02*
X188503160Y-83337246D01*
X188503160Y-83337246D02*
X188550779Y-83146770D01*
X188550779Y-83146770D02*
X188598398Y-83051532D01*
X188598398Y-83051532D02*
X188693636Y-82956294D01*
X188693636Y-82956294D02*
X188836493Y-82908675D01*
X188836493Y-82908675D02*
X188931731Y-82908675D01*
X188931731Y-82908675D02*
X189074588Y-82956294D01*
X189074588Y-82956294D02*
X189122207Y-83003913D01*
X189979350Y-83242008D02*
X189979350Y-83908675D01*
X189550779Y-83242008D02*
X189550779Y-83765817D01*
X189550779Y-83765817D02*
X189598398Y-83861056D01*
X189598398Y-83861056D02*
X189693636Y-83908675D01*
X189693636Y-83908675D02*
X189836493Y-83908675D01*
X189836493Y-83908675D02*
X189931731Y-83861056D01*
X189931731Y-83861056D02*
X189979350Y-83813436D01*
X190407922Y-83861056D02*
X190503160Y-83908675D01*
X190503160Y-83908675D02*
X190693636Y-83908675D01*
X190693636Y-83908675D02*
X190788874Y-83861056D01*
X190788874Y-83861056D02*
X190836493Y-83765817D01*
X190836493Y-83765817D02*
X190836493Y-83718198D01*
X190836493Y-83718198D02*
X190788874Y-83622960D01*
X190788874Y-83622960D02*
X190693636Y-83575341D01*
X190693636Y-83575341D02*
X190550779Y-83575341D01*
X190550779Y-83575341D02*
X190455541Y-83527722D01*
X190455541Y-83527722D02*
X190407922Y-83432484D01*
X190407922Y-83432484D02*
X190407922Y-83384865D01*
X190407922Y-83384865D02*
X190455541Y-83289627D01*
X190455541Y-83289627D02*
X190550779Y-83242008D01*
X190550779Y-83242008D02*
X190693636Y-83242008D01*
X190693636Y-83242008D02*
X190788874Y-83289627D01*
X191122208Y-83242008D02*
X191503160Y-83242008D01*
X191265065Y-82908675D02*
X191265065Y-83765817D01*
X191265065Y-83765817D02*
X191312684Y-83861056D01*
X191312684Y-83861056D02*
X191407922Y-83908675D01*
X191407922Y-83908675D02*
X191503160Y-83908675D01*
X191979351Y-83908675D02*
X191884113Y-83861056D01*
X191884113Y-83861056D02*
X191836494Y-83813436D01*
X191836494Y-83813436D02*
X191788875Y-83718198D01*
X191788875Y-83718198D02*
X191788875Y-83432484D01*
X191788875Y-83432484D02*
X191836494Y-83337246D01*
X191836494Y-83337246D02*
X191884113Y-83289627D01*
X191884113Y-83289627D02*
X191979351Y-83242008D01*
X191979351Y-83242008D02*
X192122208Y-83242008D01*
X192122208Y-83242008D02*
X192217446Y-83289627D01*
X192217446Y-83289627D02*
X192265065Y-83337246D01*
X192265065Y-83337246D02*
X192312684Y-83432484D01*
X192312684Y-83432484D02*
X192312684Y-83718198D01*
X192312684Y-83718198D02*
X192265065Y-83813436D01*
X192265065Y-83813436D02*
X192217446Y-83861056D01*
X192217446Y-83861056D02*
X192122208Y-83908675D01*
X192122208Y-83908675D02*
X191979351Y-83908675D01*
X192741256Y-83908675D02*
X192741256Y-83242008D01*
X192741256Y-83337246D02*
X192788875Y-83289627D01*
X192788875Y-83289627D02*
X192884113Y-83242008D01*
X192884113Y-83242008D02*
X193026970Y-83242008D01*
X193026970Y-83242008D02*
X193122208Y-83289627D01*
X193122208Y-83289627D02*
X193169827Y-83384865D01*
X193169827Y-83384865D02*
X193169827Y-83908675D01*
X193169827Y-83384865D02*
X193217446Y-83289627D01*
X193217446Y-83289627D02*
X193312684Y-83242008D01*
X193312684Y-83242008D02*
X193455541Y-83242008D01*
X193455541Y-83242008D02*
X193550780Y-83289627D01*
X193550780Y-83289627D02*
X193598399Y-83384865D01*
X193598399Y-83384865D02*
X193598399Y-83908675D01*
X188550779Y-85518619D02*
X188550779Y-84518619D01*
X188550779Y-84518619D02*
X188788874Y-84518619D01*
X188788874Y-84518619D02*
X188931731Y-84566238D01*
X188931731Y-84566238D02*
X189026969Y-84661476D01*
X189026969Y-84661476D02*
X189074588Y-84756714D01*
X189074588Y-84756714D02*
X189122207Y-84947190D01*
X189122207Y-84947190D02*
X189122207Y-85090047D01*
X189122207Y-85090047D02*
X189074588Y-85280523D01*
X189074588Y-85280523D02*
X189026969Y-85375761D01*
X189026969Y-85375761D02*
X188931731Y-85471000D01*
X188931731Y-85471000D02*
X188788874Y-85518619D01*
X188788874Y-85518619D02*
X188550779Y-85518619D01*
X189931731Y-85471000D02*
X189836493Y-85518619D01*
X189836493Y-85518619D02*
X189646017Y-85518619D01*
X189646017Y-85518619D02*
X189550779Y-85471000D01*
X189550779Y-85471000D02*
X189503160Y-85375761D01*
X189503160Y-85375761D02*
X189503160Y-84994809D01*
X189503160Y-84994809D02*
X189550779Y-84899571D01*
X189550779Y-84899571D02*
X189646017Y-84851952D01*
X189646017Y-84851952D02*
X189836493Y-84851952D01*
X189836493Y-84851952D02*
X189931731Y-84899571D01*
X189931731Y-84899571D02*
X189979350Y-84994809D01*
X189979350Y-84994809D02*
X189979350Y-85090047D01*
X189979350Y-85090047D02*
X189503160Y-85185285D01*
X190312684Y-84851952D02*
X190550779Y-85518619D01*
X190550779Y-85518619D02*
X190788874Y-84851952D01*
X191503160Y-84994809D02*
X191646017Y-85042428D01*
X191646017Y-85042428D02*
X191693636Y-85090047D01*
X191693636Y-85090047D02*
X191741255Y-85185285D01*
X191741255Y-85185285D02*
X191741255Y-85328142D01*
X191741255Y-85328142D02*
X191693636Y-85423380D01*
X191693636Y-85423380D02*
X191646017Y-85471000D01*
X191646017Y-85471000D02*
X191550779Y-85518619D01*
X191550779Y-85518619D02*
X191169827Y-85518619D01*
X191169827Y-85518619D02*
X191169827Y-84518619D01*
X191169827Y-84518619D02*
X191503160Y-84518619D01*
X191503160Y-84518619D02*
X191598398Y-84566238D01*
X191598398Y-84566238D02*
X191646017Y-84613857D01*
X191646017Y-84613857D02*
X191693636Y-84709095D01*
X191693636Y-84709095D02*
X191693636Y-84804333D01*
X191693636Y-84804333D02*
X191646017Y-84899571D01*
X191646017Y-84899571D02*
X191598398Y-84947190D01*
X191598398Y-84947190D02*
X191503160Y-84994809D01*
X191503160Y-84994809D02*
X191169827Y-84994809D01*
X192312684Y-85518619D02*
X192217446Y-85471000D01*
X192217446Y-85471000D02*
X192169827Y-85423380D01*
X192169827Y-85423380D02*
X192122208Y-85328142D01*
X192122208Y-85328142D02*
X192122208Y-85042428D01*
X192122208Y-85042428D02*
X192169827Y-84947190D01*
X192169827Y-84947190D02*
X192217446Y-84899571D01*
X192217446Y-84899571D02*
X192312684Y-84851952D01*
X192312684Y-84851952D02*
X192455541Y-84851952D01*
X192455541Y-84851952D02*
X192550779Y-84899571D01*
X192550779Y-84899571D02*
X192598398Y-84947190D01*
X192598398Y-84947190D02*
X192646017Y-85042428D01*
X192646017Y-85042428D02*
X192646017Y-85328142D01*
X192646017Y-85328142D02*
X192598398Y-85423380D01*
X192598398Y-85423380D02*
X192550779Y-85471000D01*
X192550779Y-85471000D02*
X192455541Y-85518619D01*
X192455541Y-85518619D02*
X192312684Y-85518619D01*
X193503160Y-85518619D02*
X193503160Y-84994809D01*
X193503160Y-84994809D02*
X193455541Y-84899571D01*
X193455541Y-84899571D02*
X193360303Y-84851952D01*
X193360303Y-84851952D02*
X193169827Y-84851952D01*
X193169827Y-84851952D02*
X193074589Y-84899571D01*
X193503160Y-85471000D02*
X193407922Y-85518619D01*
X193407922Y-85518619D02*
X193169827Y-85518619D01*
X193169827Y-85518619D02*
X193074589Y-85471000D01*
X193074589Y-85471000D02*
X193026970Y-85375761D01*
X193026970Y-85375761D02*
X193026970Y-85280523D01*
X193026970Y-85280523D02*
X193074589Y-85185285D01*
X193074589Y-85185285D02*
X193169827Y-85137666D01*
X193169827Y-85137666D02*
X193407922Y-85137666D01*
X193407922Y-85137666D02*
X193503160Y-85090047D01*
X193979351Y-85518619D02*
X193979351Y-84851952D01*
X193979351Y-85042428D02*
X194026970Y-84947190D01*
X194026970Y-84947190D02*
X194074589Y-84899571D01*
X194074589Y-84899571D02*
X194169827Y-84851952D01*
X194169827Y-84851952D02*
X194265065Y-84851952D01*
X195026970Y-85518619D02*
X195026970Y-84518619D01*
X195026970Y-85471000D02*
X194931732Y-85518619D01*
X194931732Y-85518619D02*
X194741256Y-85518619D01*
X194741256Y-85518619D02*
X194646018Y-85471000D01*
X194646018Y-85471000D02*
X194598399Y-85423380D01*
X194598399Y-85423380D02*
X194550780Y-85328142D01*
X194550780Y-85328142D02*
X194550780Y-85042428D01*
X194550780Y-85042428D02*
X194598399Y-84947190D01*
X194598399Y-84947190D02*
X194646018Y-84899571D01*
X194646018Y-84899571D02*
X194741256Y-84851952D01*
X194741256Y-84851952D02*
X194931732Y-84851952D01*
X194931732Y-84851952D02*
X195026970Y-84899571D01*
X196122209Y-84518619D02*
X196455542Y-85518619D01*
X196455542Y-85518619D02*
X196788875Y-84518619D01*
X197122209Y-85423380D02*
X197169828Y-85471000D01*
X197169828Y-85471000D02*
X197122209Y-85518619D01*
X197122209Y-85518619D02*
X197074590Y-85471000D01*
X197074590Y-85471000D02*
X197122209Y-85423380D01*
X197122209Y-85423380D02*
X197122209Y-85518619D01*
X197550780Y-84613857D02*
X197598399Y-84566238D01*
X197598399Y-84566238D02*
X197693637Y-84518619D01*
X197693637Y-84518619D02*
X197931732Y-84518619D01*
X197931732Y-84518619D02*
X198026970Y-84566238D01*
X198026970Y-84566238D02*
X198074589Y-84613857D01*
X198074589Y-84613857D02*
X198122208Y-84709095D01*
X198122208Y-84709095D02*
X198122208Y-84804333D01*
X198122208Y-84804333D02*
X198074589Y-84947190D01*
X198074589Y-84947190D02*
X197503161Y-85518619D01*
X197503161Y-85518619D02*
X198122208Y-85518619D01*
X189661895Y-59182719D02*
X189661895Y-59992242D01*
X189661895Y-59992242D02*
X189709514Y-60087480D01*
X189709514Y-60087480D02*
X189757133Y-60135100D01*
X189757133Y-60135100D02*
X189852371Y-60182719D01*
X189852371Y-60182719D02*
X190042847Y-60182719D01*
X190042847Y-60182719D02*
X190138085Y-60135100D01*
X190138085Y-60135100D02*
X190185704Y-60087480D01*
X190185704Y-60087480D02*
X190233323Y-59992242D01*
X190233323Y-59992242D02*
X190233323Y-59182719D01*
X190614276Y-59182719D02*
X191233323Y-59182719D01*
X191233323Y-59182719D02*
X190899990Y-59563671D01*
X190899990Y-59563671D02*
X191042847Y-59563671D01*
X191042847Y-59563671D02*
X191138085Y-59611290D01*
X191138085Y-59611290D02*
X191185704Y-59658909D01*
X191185704Y-59658909D02*
X191233323Y-59754147D01*
X191233323Y-59754147D02*
X191233323Y-59992242D01*
X191233323Y-59992242D02*
X191185704Y-60087480D01*
X191185704Y-60087480D02*
X191138085Y-60135100D01*
X191138085Y-60135100D02*
X191042847Y-60182719D01*
X191042847Y-60182719D02*
X190757133Y-60182719D01*
X190757133Y-60182719D02*
X190661895Y-60135100D01*
X190661895Y-60135100D02*
X190614276Y-60087480D01*
D11*
%TO.C,U3*%
X189238232Y-60542900D02*
X192033800Y-60542900D01*
X192033800Y-62812900D02*
X188813800Y-62812900D01*
X188943800Y-60537900D02*
X188803800Y-60347900D01*
X189083800Y-60347900D01*
X188943800Y-60537900D01*
G36*
X188943800Y-60537900D02*
G01*
X188803800Y-60347900D01*
X189083800Y-60347900D01*
X188943800Y-60537900D01*
G37*
%TO.C,C17*%
X191481636Y-59533200D02*
X191265964Y-59533200D01*
X191481636Y-60253200D02*
X191265964Y-60253200D01*
%TO.C,C1*%
X195093000Y-60509036D02*
X195093000Y-60293364D01*
X195813000Y-60509036D02*
X195813000Y-60293364D01*
%TO.C,C7*%
X195169200Y-75253964D02*
X195169200Y-75469636D01*
X195889200Y-75253964D02*
X195889200Y-75469636D01*
%TO.C,C8*%
X187458236Y-69363000D02*
X187242564Y-69363000D01*
X187458236Y-70083000D02*
X187242564Y-70083000D01*
%TO.C,R7*%
X189627441Y-59513200D02*
X189320159Y-59513200D01*
X189627441Y-60273200D02*
X189320159Y-60273200D01*
%TO.C,C2*%
X196083600Y-61423436D02*
X196083600Y-61207764D01*
X196803600Y-61423436D02*
X196803600Y-61207764D01*
%TO.C,J4*%
X189580000Y-93770000D02*
X189580000Y-92390000D01*
X190960000Y-93770000D02*
X189580000Y-93770000D01*
X192230000Y-91010000D02*
X197420000Y-91010000D01*
X192230000Y-93770000D02*
X192230000Y-91010000D01*
X192230000Y-93770000D02*
X197420000Y-93770000D01*
X197420000Y-93770000D02*
X197420000Y-91010000D01*
%TO.C,U1*%
X190120000Y-64880000D02*
X190770000Y-64880000D01*
X190120000Y-65530000D02*
X190120000Y-64880000D01*
X190120000Y-72100000D02*
X190120000Y-71450000D01*
X190770000Y-72100000D02*
X190120000Y-72100000D01*
X196690000Y-64880000D02*
X197340000Y-64880000D01*
X197340000Y-64880000D02*
X197340000Y-65530000D01*
X197340000Y-71450000D02*
X197340000Y-72100000D01*
X197340000Y-72100000D02*
X196690000Y-72100000D01*
X189590000Y-65890000D02*
X189260000Y-66130000D01*
X189260000Y-65650000D01*
X189590000Y-65890000D01*
G36*
X189590000Y-65890000D02*
G01*
X189260000Y-66130000D01*
X189260000Y-65650000D01*
X189590000Y-65890000D01*
G37*
%TO.C,C12*%
X198393164Y-61463600D02*
X198608836Y-61463600D01*
X198393164Y-62183600D02*
X198608836Y-62183600D01*
%TO.C,C9*%
X189109236Y-64181400D02*
X188893564Y-64181400D01*
X189109236Y-64901400D02*
X188893564Y-64901400D01*
%TO.C,C11*%
X196159800Y-75251364D02*
X196159800Y-75467036D01*
X196879800Y-75251364D02*
X196879800Y-75467036D01*
%TO.C,J3*%
X201010000Y-42990000D02*
X202390000Y-42990000D01*
X201010000Y-44370000D02*
X201010000Y-42990000D01*
X201010000Y-45640000D02*
X201010000Y-94010000D01*
X201010000Y-45640000D02*
X203770000Y-45640000D01*
X201010000Y-94010000D02*
X203770000Y-94010000D01*
X203770000Y-45640000D02*
X203770000Y-94010000D01*
%TO.C,J2*%
X183230000Y-42990000D02*
X184610000Y-42990000D01*
X183230000Y-44370000D02*
X183230000Y-42990000D01*
X183230000Y-45640000D02*
X183230000Y-94010000D01*
X183230000Y-45640000D02*
X185990000Y-45640000D01*
X183230000Y-94010000D02*
X185990000Y-94010000D01*
X185990000Y-45640000D02*
X185990000Y-94010000D01*
%TO.C,C5*%
X198014000Y-65335036D02*
X198014000Y-65119364D01*
X198734000Y-65335036D02*
X198734000Y-65119364D01*
%TO.C,C3*%
X198393164Y-62454200D02*
X198608836Y-62454200D01*
X198393164Y-63174200D02*
X198608836Y-63174200D01*
%TO.C,C10*%
X196083600Y-63303036D02*
X196083600Y-63087364D01*
X196803600Y-63303036D02*
X196803600Y-63087364D01*
%TO.C,R1*%
X194361800Y-51611559D02*
X194361800Y-51918841D01*
X195121800Y-51611559D02*
X195121800Y-51918841D01*
%TO.C,C14*%
X190564380Y-56487600D02*
X190283220Y-56487600D01*
X190564380Y-57507600D02*
X190283220Y-57507600D01*
%TO.C,R6*%
X194361800Y-55241759D02*
X194361800Y-55549041D01*
X195121800Y-55241759D02*
X195121800Y-55549041D01*
%TO.C,C4*%
X198393164Y-63444800D02*
X198608836Y-63444800D01*
X198393164Y-64164800D02*
X198608836Y-64164800D01*
%TO.C,LED1*%
X190325000Y-89680000D02*
X189845000Y-89200000D01*
X190325000Y-89200000D01*
X190325000Y-89680000D01*
G36*
X190325000Y-89680000D02*
G01*
X189845000Y-89200000D01*
X190325000Y-89200000D01*
X190325000Y-89680000D01*
G37*
%TO.C,Y1*%
X194947600Y-74693200D02*
X190827600Y-74693200D01*
X194947600Y-78113200D02*
X194947600Y-74693200D01*
%TO.C,C6*%
X199536164Y-69363000D02*
X199751836Y-69363000D01*
X199536164Y-70083000D02*
X199751836Y-70083000D01*
%TO.C,C13*%
X189802380Y-51052000D02*
X189521220Y-51052000D01*
X189802380Y-52072000D02*
X189521220Y-52072000D01*
%TO.C,U2*%
X188863800Y-53517500D02*
X189863800Y-53517500D01*
X188863800Y-55037500D02*
X188863800Y-53517500D01*
X188913800Y-55037500D02*
X188863800Y-55037500D01*
X190813800Y-55037500D02*
X190033800Y-55037500D01*
X190983800Y-53517500D02*
X191983800Y-53517500D01*
X191983800Y-53517500D02*
X191983800Y-55037500D01*
X191983800Y-55037500D02*
X191933800Y-55037500D01*
X190373800Y-55817500D02*
X190043800Y-55577500D01*
X190373800Y-55337500D01*
X190373800Y-55817500D01*
G36*
X190373800Y-55817500D02*
G01*
X190043800Y-55577500D01*
X190373800Y-55337500D01*
X190373800Y-55817500D01*
G37*
%TO.C,J1*%
X188800000Y-43500000D02*
X188800000Y-41600000D01*
X188800000Y-47400000D02*
X188800000Y-45400000D01*
X198200000Y-41600000D02*
X188800000Y-41600000D01*
X198200000Y-43500000D02*
X198200000Y-41600000D01*
X198200000Y-47400000D02*
X198200000Y-45400000D01*
%TO.C,R2*%
X191364600Y-51611559D02*
X191364600Y-51918841D01*
X192124600Y-51611559D02*
X192124600Y-51918841D01*
%TO.C,C18*%
X189660000Y-88972164D02*
X189660000Y-89187836D01*
X188940000Y-88972164D02*
X188940000Y-89187836D01*
%TO.C,R3*%
X194050000Y-63016359D02*
X194050000Y-63323641D01*
X194810000Y-63016359D02*
X194810000Y-63323641D01*
%TO.C,C15*%
X189903600Y-77144564D02*
X189903600Y-77360236D01*
X190623600Y-77144564D02*
X190623600Y-77360236D01*
%TO.C,R5*%
X194201841Y-73725400D02*
X193894559Y-73725400D01*
X194201841Y-74485400D02*
X193894559Y-74485400D01*
%TO.C,SW1*%
X195407000Y-51515800D02*
X195707000Y-51515800D01*
X195407000Y-55655800D02*
X195407000Y-51515800D01*
X195707000Y-55655800D02*
X195407000Y-55655800D01*
X198247000Y-51515800D02*
X198547000Y-51515800D01*
X198547000Y-51515800D02*
X198547000Y-55655800D01*
X198547000Y-55655800D02*
X198247000Y-55655800D01*
%TO.C,R8*%
X188920000Y-86536359D02*
X188920000Y-86843641D01*
X189680000Y-86536359D02*
X189680000Y-86843641D01*
%TO.C,C16*%
X195161400Y-77349236D02*
X195161400Y-77133564D01*
X195881400Y-77349236D02*
X195881400Y-77133564D01*
%TO.C,R4*%
X195060000Y-63006359D02*
X195060000Y-63313641D01*
X195820000Y-63006359D02*
X195820000Y-63313641D01*
%TD*%
M02*
