M48
; DRILL file {KiCad 9.0.6} date 2026-01-07T14:09:02-0500
; FORMAT={-:-/ absolute / metric / decimal}
; #@! TF.CreationDate,2026-01-07T14:09:02-05:00
; #@! TF.GenerationSoftware,Kicad,Pcbnew,9.0.6
; #@! TF.FileFunction,Plated,1,2,PTH
FMAT,2
METRIC
; #@! TA.AperFunction,Plated,PTH,ViaDrill
T1C0.300
; #@! TA.AperFunction,Plated,PTH,ComponentDrill
T2C0.600
; #@! TA.AperFunction,Plated,PTH,ComponentDrill
T3C1.000
%
G90
G05
T1
X184.034Y-68.549
X184.152Y-71.04
X184.578Y-73.66
X186.233Y-86.614
X187.833Y-90.5
X187.965Y-63.856
X188.609Y-65.684
X189.423Y-62.764
X189.881Y-60.596
X190.953Y-60.622
X191.191Y-70.035
X191.999Y-70.739
X192.175Y-58.191
X192.175Y-58.991
X192.921Y-65.972
X193.23Y-70.968
X193.827Y-58.979
X194.132Y-65.761
X194.431Y-70.992
X194.818Y-93.2
X195.123Y-70.59
X195.388Y-74.029
X195.529Y-61.798
X195.956Y-69.677
X196.349Y-67.897
X196.4Y-86.2
X196.444Y-62.713
X196.7Y-85.3
X197.18Y-63.348
X197.968Y-60.985
X198.125Y-73.782
X199.085Y-60.985
X199.187Y-44.45
X199.187Y-90.551
X200.589Y-70.404
X200.736Y-87.071
T3
X184.61Y-44.37
X184.61Y-46.91
X184.61Y-49.45
X184.61Y-51.99
X184.61Y-54.53
X184.61Y-57.07
X184.61Y-59.61
X184.61Y-62.15
X184.61Y-64.69
X184.61Y-67.23
X184.61Y-69.77
X184.61Y-72.31
X184.61Y-74.85
X184.61Y-77.39
X184.61Y-79.93
X184.61Y-82.47
X184.61Y-85.01
X184.61Y-87.55
X184.61Y-90.09
X184.61Y-92.63
X190.96Y-92.39
X193.5Y-92.39
X196.04Y-92.39
X202.39Y-44.37
X202.39Y-46.91
X202.39Y-49.45
X202.39Y-51.99
X202.39Y-54.53
X202.39Y-57.07
X202.39Y-59.61
X202.39Y-62.15
X202.39Y-64.69
X202.39Y-67.23
X202.39Y-69.77
X202.39Y-72.31
X202.39Y-74.85
X202.39Y-77.39
X202.39Y-79.93
X202.39Y-82.47
X202.39Y-85.01
X202.39Y-87.55
X202.39Y-90.09
X202.39Y-92.63
T2
G00X189.18Y-44.75
M15
G01X189.18Y-44.15
M16
G05
G00X189.18Y-49.18
M15
G01X189.18Y-48.08
M16
G05
G00X197.82Y-44.75
M15
G01X197.82Y-44.15
M16
G05
G00X197.82Y-49.18
M15
G01X197.82Y-48.08
M16
G05
M30
